<?xml version="1.0" encoding="UTF-8" standalone="no"?>
<!-- Created with Inkscape (http://www.inkscape.org/) -->

<svg
   xmlns:ns0="http://www.iki.fi/pav/software/textext/"
   xmlns:dc="http://purl.org/dc/elements/1.1/"
   xmlns:cc="http://creativecommons.org/ns#"
   xmlns:rdf="http://www.w3.org/1999/02/22-rdf-syntax-ns#"
   xmlns:svg="http://www.w3.org/2000/svg"
   xmlns="http://www.w3.org/2000/svg"
   xmlns:sodipodi="http://sodipodi.sourceforge.net/DTD/sodipodi-0.dtd"
   xmlns:inkscape="http://www.inkscape.org/namespaces/inkscape"
   width="173.35388mm"
   height="31.560829mm"
   viewBox="0 0 173.35388 31.560829"
   version="1.1"
   id="svg34379"
   inkscape:version="0.92.3 (2405546, 2018-03-11)"
   sodipodi:docname="CascadedControllers_Position_Velocity_Motor_Control_reduced.svg">
  <sodipodi:namedview
     id="base"
     pagecolor="#ffffff"
     bordercolor="#666666"
     borderopacity="1.0"
     inkscape:pageopacity="0.0"
     inkscape:pageshadow="2"
     inkscape:zoom="1.8735051"
     inkscape:cx="179.65748"
     inkscape:cy="17.34196"
     inkscape:document-units="mm"
     inkscape:current-layer="layer1"
     showgrid="false"
     inkscape:window-width="2560"
     inkscape:window-height="1377"
     inkscape:window-x="-8"
     inkscape:window-y="-8"
     inkscape:window-maximized="1"
     fit-margin-top="0"
     fit-margin-left="0"
     fit-margin-right="0"
     fit-margin-bottom="0" />
  <defs
     id="defs34373">
    <marker
       inkscape:stockid="Arrow2Lend"
       orient="auto"
       refY="0"
       refX="0"
       id="marker2509"
       style="overflow:visible"
       inkscape:isstock="true">
      <path
         id="path2507"
         style="fill:#000000;fill-opacity:1;fill-rule:evenodd;stroke:#000000;stroke-width:0.625;stroke-linejoin:round;stroke-opacity:1"
         d="M 8.7185878,4.0337352 -2.2072895,0.01601326 8.7185884,-4.0017078 c -1.7454984,2.3720609 -1.7354408,5.6174519 -6e-7,8.035443 z"
         transform="matrix(-1.1,0,0,-1.1,-1.1,0)"
         inkscape:connector-curvature="0" />
    </marker>
    <marker
       inkscape:isstock="true"
       style="overflow:visible"
       id="marker2344"
       refX="0"
       refY="0"
       orient="auto"
       inkscape:stockid="Arrow2Lend">
      <path
         inkscape:connector-curvature="0"
         transform="matrix(-1.1,0,0,-1.1,-1.1,0)"
         d="M 8.7185878,4.0337352 -2.2072895,0.01601326 8.7185884,-4.0017078 c -1.7454984,2.3720609 -1.7354408,5.6174519 -6e-7,8.035443 z"
         style="fill:#000000;fill-opacity:1;fill-rule:evenodd;stroke:#000000;stroke-width:0.625;stroke-linejoin:round;stroke-opacity:1"
         id="path2342" />
    </marker>
    <marker
       inkscape:isstock="true"
       style="overflow:visible"
       id="marker18514"
       refX="0"
       refY="0"
       orient="auto"
       inkscape:stockid="Arrow2Lend"
       inkscape:collect="always">
      <path
         inkscape:connector-curvature="0"
         transform="matrix(-1.1,0,0,-1.1,-1.1,0)"
         d="M 8.7185878,4.0337352 -2.2072895,0.01601326 8.7185884,-4.0017078 c -1.7454984,2.3720609 -1.7354408,5.6174519 -6e-7,8.035443 z"
         style="fill:#000000;fill-opacity:1;fill-rule:evenodd;stroke:#000000;stroke-width:0.625;stroke-linejoin:round;stroke-opacity:1"
         id="path18512" />
    </marker>
    <marker
       inkscape:collect="always"
       inkscape:isstock="true"
       style="overflow:visible"
       id="marker18256"
       refX="0"
       refY="0"
       orient="auto"
       inkscape:stockid="Arrow2Lend">
      <path
         inkscape:connector-curvature="0"
         transform="matrix(-1.1,0,0,-1.1,-1.1,0)"
         d="M 8.7185878,4.0337352 -2.2072895,0.01601326 8.7185884,-4.0017078 c -1.7454984,2.3720609 -1.7354408,5.6174519 -6e-7,8.035443 z"
         style="fill:#000000;fill-opacity:1;fill-rule:evenodd;stroke:#000000;stroke-width:0.625;stroke-linejoin:round;stroke-opacity:1"
         id="path18254" />
    </marker>
    <marker
       inkscape:stockid="Arrow2Lend"
       orient="auto"
       refY="0"
       refX="0"
       id="marker18340"
       style="overflow:visible"
       inkscape:isstock="true">
      <path
         id="path18338"
         style="fill:#000000;fill-opacity:1;fill-rule:evenodd;stroke:#000000;stroke-width:0.625;stroke-linejoin:round;stroke-opacity:1"
         d="M 8.7185878,4.0337352 -2.2072895,0.01601326 8.7185884,-4.0017078 c -1.7454984,2.3720609 -1.7354408,5.6174519 -6e-7,8.035443 z"
         transform="matrix(-1.1,0,0,-1.1,-1.1,0)"
         inkscape:connector-curvature="0" />
    </marker>
  </defs>
  <metadata
     id="metadata34376">
    <rdf:RDF>
      <cc:Work
         rdf:about="">
        <dc:format>image/svg+xml</dc:format>
        <dc:type
           rdf:resource="http://purl.org/dc/dcmitype/StillImage" />
        <dc:title></dc:title>
      </cc:Work>
    </rdf:RDF>
  </metadata>
  <g
     transform="translate(-55.521209,-180.01578)"
     id="layer1"
     inkscape:groupmode="layer"
     inkscape:label="Layer 1">
    <path
       style="opacity:1;vector-effect:none;fill:none;fill-opacity:1;stroke:#000000;stroke-width:0.5;stroke-linecap:butt;stroke-linejoin:miter;stroke-miterlimit:4;stroke-dasharray:none;stroke-dashoffset:0;stroke-opacity:1;marker-end:url(#marker18256)"
       d="M 92.812355,189.09472 H 228.03924"
       id="path67253"
       inkscape:connector-curvature="0"
       sodipodi:nodetypes="cc" />
    <rect
       style="opacity:1;vector-effect:none;fill:#ececec;fill-opacity:1;stroke:#000000;stroke-width:0.3472423;stroke-linecap:butt;stroke-linejoin:miter;stroke-miterlimit:4;stroke-dasharray:none;stroke-dashoffset:0;stroke-opacity:1"
       id="rect4582"
       width="21.471558"
       height="14.726181"
       x="153.05711"
       y="181.73161" />
    <rect
       y="181.73161"
       x="101.228"
       height="14.726181"
       width="21.471558"
       id="rect3102"
       style="opacity:1;vector-effect:none;fill:#ffffff;fill-opacity:1;stroke:#000000;stroke-width:0.3472423;stroke-linecap:butt;stroke-linejoin:miter;stroke-miterlimit:4;stroke-dasharray:none;stroke-dashoffset:0;stroke-opacity:1" />
    <g
       ns0:jacobian_sqrt="0.607864"
       inkscapeversion="0.92.3"
       ns0:alignment="middle center"
       ns0:scale="1.72308015551"
       ns0:preamble="C:\\Users\\alsai\\AppData\\Roaming\\inkscape\\extensions\\textext\\default_packages.tex"
       ns0:text="$\\Theta(s)$"
       ns0:pdfconverter="pstoedit"
       ns0:texconverter="pdflatex"
       ns0:version="0.9.0"
       word-spacing="normal"
       letter-spacing="normal"
       font-size-adjust="none"
       font-stretch="normal"
       font-weight="normal"
       font-variant="normal"
       font-style="normal"
       stroke-miterlimit="10.433"
       xml:space="preserve"
       transform="matrix(0.607864,0,0,-0.607864,119.10871,584.70428)"
       id="g2157"
       style="font-style:normal;font-variant:normal;font-weight:normal;font-stretch:normal;letter-spacing:normal;word-spacing:normal;text-anchor:start;fill:none;fill-opacity:1;fill-rule:evenodd;stroke:#000000;stroke-linecap:butt;stroke-linejoin:miter;stroke-miterlimit:10.43299961;stroke-dasharray:none;stroke-dashoffset:0;stroke-opacity:1">
<path
   id="path2147"
   d="m 155.9,660.6 v 0.19 l -0.02,0.19 -0.02,0.18 -0.03,0.18 -0.03,0.18 -0.05,0.17 -0.05,0.17 -0.06,0.17 -0.07,0.16 -0.07,0.15 -0.08,0.16 -0.09,0.14 -0.09,0.15 -0.1,0.13 -0.11,0.13 -0.11,0.13 -0.11,0.12 -0.12,0.11 -0.13,0.11 -0.13,0.1 -0.14,0.1 -0.13,0.08 -0.15,0.08 -0.14,0.07 -0.15,0.07 -0.16,0.06 -0.16,0.04 -0.16,0.04 -0.16,0.04 -0.16,0.02 -0.17,0.01 -0.17,0.01 v -0.22 c 1.01,0 2.35,-0.9 2.35,-3.42 0,-2.53 -1.4,-3.36 -2.34,-3.36 v 0 c -0.99,0 -2.35,0.86 -2.35,3.36 0,2.56 1.38,3.42 2.34,3.42 v 0.22 c -1.78,0 -3.31,-1.59 -3.31,-3.64 0,-2.03 1.54,-3.58 3.31,-3.58 1.82,0 3.32,1.58 3.32,3.58 z"
   inkscape:connector-curvature="0"
   style="fill:#000000;stroke-width:0" />
<polygon
   id="polygon2149"
   points="154.37,659.92 154.37,661.35 154.12,661.35 154.12,661.01 151.05,661.01 151.05,661.35 150.81,661.35 150.81,659.92 151.05,659.92 151.05,660.26 154.12,660.26 154.12,659.92 "
   style="fill:#000000;stroke-width:0" />
<path
   id="path2151"
   d="m 159.76,654.85 v 0.01 0 0 0.01 0 0 0.01 0 0 l -0.01,0.01 v 0 0.01 h -0.01 v 0.01 0 l -0.01,0.01 v 0.01 h -0.01 v 0.01 h -0.01 v 0.01 0 h -0.01 v 0.01 h -0.01 v 0.01 0 l -0.01,0.01 v 0 l -0.01,0.01 v 0 l -0.01,0.01 -0.01,0.01 v 0 l -0.01,0.01 v 0.01 h -0.01 l -0.01,0.01 -0.01,0.01 v 0 l -0.01,0.01 -0.01,0.01 c -1.24,1.25 -1.56,3.13 -1.56,4.65 0,1.73 0.38,3.45 1.6,4.7 0.13,0.12 0.13,0.14 0.13,0.17 0,0.07 -0.04,0.09 -0.1,0.09 -0.1,0 -1,-0.67 -1.58,-1.93 -0.51,-1.09 -0.63,-2.2 -0.63,-3.03 0,-0.78 0.11,-1.98 0.66,-3.1 0.6,-1.22 1.45,-1.87 1.55,-1.87 0.06,0 0.1,0.03 0.1,0.1 z"
   inkscape:connector-curvature="0"
   style="fill:#000000;stroke-width:0" />
<path
   id="path2153"
   d="m 164.23,660.95 h -0.02 -0.03 l -0.02,-0.01 h -0.03 l -0.02,-0.01 -0.02,-0.01 h -0.03 l -0.02,-0.01 -0.02,-0.01 -0.02,-0.01 -0.02,-0.02 -0.02,-0.01 -0.02,-0.01 -0.02,-0.02 -0.01,-0.01 -0.02,-0.02 -0.02,-0.01 -0.01,-0.02 -0.01,-0.01 -0.02,-0.02 -0.01,-0.02 -0.01,-0.02 -0.01,-0.02 -0.01,-0.02 -0.01,-0.02 v -0.02 l -0.01,-0.02 -0.01,-0.02 v -0.02 -0.02 -0.02 -0.02 c 0,-0.14 0.09,-0.28 0.31,-0.28 0.21,0 0.45,0.16 0.45,0.55 0,0.45 -0.43,0.86 -1.18,0.86 -1.32,0 -1.69,-1.02 -1.69,-1.46 0,-0.77 0.74,-0.92 1.03,-0.98 0.52,-0.1 1.04,-0.21 1.04,-0.75 0,-0.26 -0.23,-1.1 -1.43,-1.1 -0.14,0 -0.91,0 -1.14,0.53 0.38,-0.05 0.63,0.25 0.63,0.53 0,0.23 -0.16,0.34 -0.37,0.34 -0.26,0 -0.56,-0.2 -0.56,-0.65 0,-0.57 0.57,-0.96 1.43,-0.96 1.62,0 2,1.2 2,1.65 0,0.35 -0.19,0.6 -0.3,0.72 -0.27,0.28 -0.56,0.33 -1,0.42 -0.36,0.08 -0.76,0.15 -0.76,0.59 0,0.29 0.24,0.9 1.12,0.9 0.25,0 0.75,-0.07 0.89,-0.46 z"
   inkscape:connector-curvature="0"
   style="fill:#000000;stroke-width:0" />
<path
   id="path2155"
   d="m 167.89,659.72 v 0.07 0.08 l -0.01,0.08 v 0.08 l -0.01,0.17 -0.01,0.17 -0.02,0.18 -0.02,0.19 -0.02,0.2 -0.04,0.2 -0.04,0.2 -0.04,0.21 -0.06,0.21 -0.06,0.21 -0.07,0.21 -0.08,0.21 -0.04,0.11 -0.04,0.11 -0.05,0.1 -0.05,0.11 c -0.6,1.22 -1.46,1.86 -1.56,1.86 -0.06,0 -0.1,-0.03 -0.1,-0.09 0,-0.03 0,-0.05 0.19,-0.23 0.98,-0.99 1.55,-2.57 1.55,-4.64 0,-1.7 -0.37,-3.45 -1.61,-4.7 -0.13,-0.12 -0.13,-0.14 -0.13,-0.17 0,-0.06 0.04,-0.1 0.1,-0.1 0.1,0 1,0.68 1.59,1.94 0.51,1.09 0.63,2.19 0.63,3.03 z"
   inkscape:connector-curvature="0"
   style="fill:#000000;stroke-width:0" />
</g>    <rect
       style="opacity:1;vector-effect:none;fill:#ffffff;fill-opacity:1;stroke:#000000;stroke-width:0.3472423;stroke-linecap:butt;stroke-linejoin:miter;stroke-miterlimit:4;stroke-dasharray:none;stroke-dashoffset:0;stroke-opacity:1"
       id="rect2214"
       width="10.977798"
       height="14.726166"
       x="195.41554"
       y="181.73161" />
    <g
       id="g2283"
       transform="matrix(0.607864,0,0,-0.607864,108.57294,590.13601)"
       xml:space="preserve"
       stroke-miterlimit="10.433"
       font-style="normal"
       font-variant="normal"
       font-weight="normal"
       font-stretch="normal"
       font-size-adjust="none"
       letter-spacing="normal"
       word-spacing="normal"
       ns0:version="0.9.0"
       ns0:texconverter="pdflatex"
       ns0:pdfconverter="pstoedit"
       ns0:text="$\\frac{1}{s}$"
       ns0:preamble="C:\\Users\\alsai\\AppData\\Roaming\\inkscape\\extensions\\textext\\default_packages.tex"
       ns0:scale="1.72308017509"
       ns0:alignment="middle center"
       inkscapeversion="0.92.3"
       ns0:jacobian_sqrt="0.607864"
       style="font-style:normal;font-variant:normal;font-weight:normal;font-stretch:normal;letter-spacing:normal;word-spacing:normal;text-anchor:start;fill:none;fill-opacity:1;fill-rule:evenodd;stroke:#000000;stroke-linecap:butt;stroke-linejoin:miter;stroke-miterlimit:10.43299961;stroke-dasharray:none;stroke-dashoffset:0;stroke-opacity:1">
<path
   inkscape:connector-curvature="0"
   d="m 152.25,665.58 v 0.01 0.01 0.01 0 0.01 0.01 0.01 0 0.01 0.01 0 0.01 0 0.01 0.01 h -0.01 v 0.01 0 0.01 0.01 0 l -0.01,0.01 v 0.01 h -0.01 v 0.01 h -0.01 v 0.01 h -0.01 -0.01 l -0.01,0.01 v 0 h -0.01 -0.01 v 0 h -0.01 -0.01 v 0 h -0.01 v 0 h -0.01 -0.01 v 0 h -0.01 -0.01 -0.01 v 0 h -0.01 -0.01 l -0.01,0.01 h -0.01 c -0.45,-0.44 -1.08,-0.45 -1.37,-0.45 v -0.25 c 0.17,0 0.63,0 1.01,0.2 v -3.55 c 0,-0.23 0,-0.32 -0.69,-0.32 h -0.27 v -0.25 c 0.13,0 0.99,0.03 1.24,0.03 0.22,0 1.1,-0.03 1.25,-0.03 v 0.25 h -0.26 c -0.7,0 -0.7,0.09 -0.7,0.32 z"
   style="fill:#000000;fill-opacity:1;stroke:#000000;stroke-width:0;stroke-opacity:1"
   id="path2277" />
<line
   x1="149.91"
   y1="659.72998"
   x2="153.88"
   y2="659.72998"
   style="fill-opacity:1;stroke:#000000;stroke-width:0.398;stroke-opacity:1"
   id="line2279" />
<path
   inkscape:connector-curvature="0"
   d="m 153.03,656.41 h -0.02 -0.02 l -0.01,-0.01 -0.02,-0.01 h -0.01 l -0.02,-0.01 -0.01,-0.01 h -0.02 l -0.01,-0.01 -0.01,-0.01 -0.01,-0.01 -0.02,-0.01 -0.01,-0.01 -0.01,-0.01 -0.01,-0.01 -0.01,-0.01 -0.01,-0.01 -0.01,-0.01 v -0.02 l -0.01,-0.01 -0.01,-0.01 -0.01,-0.01 v -0.02 l -0.01,-0.01 v -0.01 l -0.01,-0.01 v -0.02 -0.01 -0.01 l -0.01,-0.02 v -0.01 -0.01 c 0,-0.16 0.14,-0.23 0.23,-0.23 0.07,0 0.34,0.05 0.34,0.4 0,0.45 -0.5,0.61 -0.93,0.61 -1.09,0 -1.29,-0.8 -1.29,-1.02 0,-0.26 0.15,-0.42 0.25,-0.51 0.18,-0.13 0.3,-0.16 0.79,-0.25 0.14,-0.02 0.59,-0.11 0.59,-0.46 0,-0.11 -0.08,-0.38 -0.37,-0.55 -0.27,-0.16 -0.61,-0.16 -0.7,-0.16 -0.28,0 -0.68,0.07 -0.84,0.3 0.23,0.02 0.39,0.2 0.39,0.39 0,0.18 -0.13,0.26 -0.28,0.26 -0.2,0 -0.4,-0.16 -0.4,-0.46 0,-0.42 0.45,-0.68 1.12,-0.68 1.29,0 1.53,0.88 1.53,1.15 0,0.64 -0.71,0.76 -0.97,0.81 -0.06,0.02 -0.23,0.04 -0.28,0.06 -0.25,0.05 -0.38,0.19 -0.38,0.34 0,0.17 0.13,0.35 0.28,0.45 0.19,0.12 0.43,0.13 0.55,0.13 0.15,0 0.51,-0.02 0.67,-0.26 z"
   style="fill:#000000;fill-opacity:1;stroke:#000000;stroke-width:0;stroke-opacity:1"
   id="path2281" />
</g>    <path
       inkscape:connector-curvature="0"
       d="m 214.42036,189.11328 v 22.21333 H 90.822787 v -17.50954"
       style="opacity:1;vector-effect:none;fill:none;fill-opacity:1;stroke:#000000;stroke-width:0.5;stroke-linecap:butt;stroke-linejoin:miter;stroke-miterlimit:4;stroke-dasharray:none;stroke-dashoffset:0;stroke-opacity:1;marker-end:url(#marker2344)"
       id="path2340"
       sodipodi:nodetypes="cccc" />
    <g
       style="stroke-linecap:butt;stroke-linejoin:round"
       transform="matrix(0.69448458,0,0,0.69448458,11.7444,53.894564)"
       id="g2495">
      <circle
         r="5.6088095"
         cy="194.67697"
         cx="113.74731"
         id="circle2489"
         style="opacity:1;vector-effect:none;fill:#ffffff;fill-opacity:1;stroke:#000000;stroke-width:0.5;stroke-linecap:butt;stroke-linejoin:miter;stroke-miterlimit:4;stroke-dasharray:none;stroke-dashoffset:0;stroke-opacity:1" />
      <path
         inkscape:connector-curvature="0"
         id="path2491"
         d="m 117.62634,190.89556 -7.77761,7.77761"
         style="fill:none;stroke:#000000;stroke-width:0.5;stroke-linecap:butt;stroke-linejoin:miter;stroke-miterlimit:4;stroke-dasharray:none;stroke-opacity:1"
         sodipodi:nodetypes="cc" />
      <path
         style="fill:none;stroke:#000000;stroke-width:0.5;stroke-linecap:butt;stroke-linejoin:miter;stroke-miterlimit:4;stroke-dasharray:none;stroke-opacity:1"
         d="m 109.84874,190.89556 7.77761,7.77761"
         id="path2493"
         inkscape:connector-curvature="0"
         sodipodi:nodetypes="cc" />
    </g>
    <path
       sodipodi:nodetypes="cc"
       inkscape:connector-curvature="0"
       id="path2497"
       d="M 62.682624,189.09472 H 86.200823"
       style="opacity:1;vector-effect:none;fill:none;fill-opacity:1;stroke:#000000;stroke-width:0.5;stroke-linecap:butt;stroke-linejoin:miter;stroke-miterlimit:4;stroke-dasharray:none;stroke-dashoffset:0;stroke-opacity:1;marker-end:url(#marker18514)" />
    <text
       xml:space="preserve"
       style="font-style:normal;font-weight:normal;font-size:7.60670996px;line-height:1.25;font-family:sans-serif;letter-spacing:0px;word-spacing:0px;fill:#000000;fill-opacity:1;stroke:none;stroke-width:0.3472423;stroke-linecap:butt;stroke-linejoin:round;stroke-miterlimit:4;stroke-dasharray:none"
       x="82.747017"
       y="185.64821"
       id="text2501"><tspan
         sodipodi:role="line"
         id="tspan2499"
         x="82.747017"
         y="185.64821"
         style="stroke-width:0.3472423;stroke-linecap:butt;stroke-linejoin:round;stroke-miterlimit:4;stroke-dasharray:none">+</tspan></text>
    <text
       xml:space="preserve"
       style="font-style:normal;font-weight:normal;font-size:7.60670996px;line-height:1.25;font-family:sans-serif;letter-spacing:0px;word-spacing:0px;fill:#000000;fill-opacity:1;stroke:none;stroke-width:0.3472423;stroke-linecap:butt;stroke-linejoin:round;stroke-miterlimit:4;stroke-dasharray:none"
       x="84.205513"
       y="196.6595"
       id="text2505"><tspan
         sodipodi:role="line"
         id="tspan2503"
         x="84.205513"
         y="196.6595"
         style="stroke-width:0.3472423;stroke-linecap:butt;stroke-linejoin:round;stroke-miterlimit:4;stroke-dasharray:none">-</tspan></text>
    <g
       id="g2605"
       transform="matrix(0.607864,0,0,-0.607864,89.581407,585.22704)"
       xml:space="preserve"
       stroke-miterlimit="10.433"
       font-style="normal"
       font-variant="normal"
       font-weight="normal"
       font-stretch="normal"
       font-size-adjust="none"
       letter-spacing="normal"
       word-spacing="normal"
       ns0:version="0.9.0"
       ns0:texconverter="pdflatex"
       ns0:pdfconverter="pstoedit"
       ns0:text="$\\dot{\\Theta}(s)$"
       ns0:preamble="C:\\Users\\alsai\\AppData\\Roaming\\inkscape\\extensions\\textext\\default_packages.tex"
       ns0:scale="1.72308015551"
       ns0:alignment="middle center"
       inkscapeversion="0.92.3"
       ns0:jacobian_sqrt="0.607864"
       style="font-style:normal;font-variant:normal;font-weight:normal;font-stretch:normal;letter-spacing:normal;word-spacing:normal;text-anchor:start;fill:none;fill-opacity:1;fill-rule:evenodd;stroke:#000000;stroke-linecap:butt;stroke-linejoin:miter;stroke-miterlimit:10.43299961;stroke-dasharray:none;stroke-dashoffset:0;stroke-opacity:1">
<path
   inkscape:connector-curvature="0"
   d="m 153.12,665.87 v 0.03 0.02 l -0.01,0.03 v 0.02 l -0.01,0.03 -0.01,0.02 v 0.02 l -0.01,0.03 -0.01,0.02 -0.01,0.02 -0.02,0.03 -0.01,0.02 -0.02,0.02 -0.01,0.02 -0.02,0.02 -0.01,0.02 -0.02,0.02 -0.02,0.01 -0.02,0.02 -0.02,0.01 -0.02,0.02 -0.03,0.01 -0.02,0.01 -0.02,0.02 -0.03,0.01 h -0.02 l -0.03,0.01 -0.02,0.01 h -0.03 l -0.03,0.01 h -0.02 -0.03 c -0.34,0 -0.54,-0.28 -0.54,-0.53 0,-0.27 0.23,-0.52 0.53,-0.52 0.34,0 0.54,0.28 0.54,0.52 z"
   style="fill:#000000;fill-opacity:1;stroke:#000000;stroke-width:0;stroke-opacity:1"
   id="path2593" />
<path
   inkscape:connector-curvature="0"
   d="m 155.9,660.6 v 0.19 l -0.02,0.19 -0.02,0.18 -0.03,0.18 -0.03,0.18 -0.05,0.17 -0.05,0.17 -0.06,0.17 -0.07,0.16 -0.07,0.15 -0.08,0.16 -0.09,0.14 -0.09,0.15 -0.1,0.13 -0.11,0.13 -0.11,0.13 -0.11,0.12 -0.12,0.11 -0.13,0.11 -0.13,0.1 -0.14,0.1 -0.13,0.08 -0.15,0.08 -0.14,0.07 -0.15,0.07 -0.16,0.06 -0.16,0.04 -0.16,0.04 -0.16,0.04 -0.16,0.02 -0.17,0.01 -0.17,0.01 v -0.22 c 1.01,0 2.35,-0.9 2.35,-3.42 0,-2.53 -1.4,-3.36 -2.34,-3.36 v 0 c -0.99,0 -2.35,0.86 -2.35,3.36 0,2.56 1.38,3.42 2.34,3.42 v 0.22 c -1.78,0 -3.31,-1.59 -3.31,-3.64 0,-2.03 1.54,-3.58 3.31,-3.58 1.82,0 3.32,1.58 3.32,3.58 z"
   style="fill:#000000;fill-opacity:1;stroke:#000000;stroke-width:0;stroke-opacity:1"
   id="path2595" />
<polygon
   points="151.05,660.26 154.12,660.26 154.12,659.92 154.37,659.92 154.37,661.35 154.12,661.35 154.12,661.01 151.05,661.01 151.05,661.35 150.81,661.35 150.81,659.92 151.05,659.92 "
   style="fill:#000000;fill-opacity:1;stroke:#000000;stroke-width:0;stroke-opacity:1"
   id="polygon2597" />
<path
   inkscape:connector-curvature="0"
   d="m 159.76,654.85 v 0.01 0 0 0.01 0 0 0.01 0 0 l -0.01,0.01 v 0 0.01 h -0.01 v 0.01 0 l -0.01,0.01 v 0.01 h -0.01 v 0.01 h -0.01 v 0.01 0 h -0.01 v 0.01 h -0.01 v 0.01 0 l -0.01,0.01 v 0 l -0.01,0.01 v 0 l -0.01,0.01 -0.01,0.01 v 0 l -0.01,0.01 v 0.01 h -0.01 l -0.01,0.01 -0.01,0.01 v 0 l -0.01,0.01 -0.01,0.01 c -1.24,1.25 -1.56,3.13 -1.56,4.65 0,1.73 0.38,3.46 1.6,4.7 0.13,0.12 0.13,0.14 0.13,0.17 0,0.07 -0.04,0.09 -0.1,0.09 -0.1,0 -1,-0.67 -1.58,-1.93 -0.51,-1.09 -0.63,-2.2 -0.63,-3.03 0,-0.78 0.11,-1.98 0.66,-3.1 0.6,-1.22 1.45,-1.87 1.55,-1.87 0.06,0 0.1,0.03 0.1,0.1 z"
   style="fill:#000000;fill-opacity:1;stroke:#000000;stroke-width:0;stroke-opacity:1"
   id="path2599" />
<path
   inkscape:connector-curvature="0"
   d="m 164.23,660.95 h -0.02 -0.03 l -0.02,-0.01 h -0.03 l -0.02,-0.01 -0.02,-0.01 h -0.03 l -0.02,-0.01 -0.02,-0.01 -0.02,-0.01 -0.02,-0.02 -0.02,-0.01 -0.02,-0.01 -0.02,-0.02 -0.01,-0.01 -0.02,-0.02 -0.02,-0.01 -0.01,-0.02 -0.01,-0.01 -0.02,-0.02 -0.01,-0.02 -0.01,-0.02 -0.01,-0.02 -0.01,-0.02 -0.01,-0.02 v -0.02 l -0.01,-0.02 -0.01,-0.02 v -0.02 -0.02 -0.02 -0.02 c 0,-0.14 0.09,-0.28 0.31,-0.28 0.21,0 0.45,0.16 0.45,0.55 0,0.45 -0.43,0.86 -1.18,0.86 -1.32,0 -1.69,-1.02 -1.69,-1.45 0,-0.78 0.74,-0.93 1.03,-0.99 0.52,-0.1 1.04,-0.21 1.04,-0.75 0,-0.26 -0.23,-1.1 -1.43,-1.1 -0.14,0 -0.91,0 -1.14,0.53 0.38,-0.05 0.63,0.25 0.63,0.53 0,0.23 -0.16,0.34 -0.37,0.34 -0.26,0 -0.56,-0.2 -0.56,-0.65 0,-0.57 0.57,-0.96 1.43,-0.96 1.62,0 2,1.2 2,1.65 0,0.35 -0.19,0.6 -0.3,0.72 -0.27,0.28 -0.56,0.33 -1,0.42 -0.36,0.08 -0.76,0.15 -0.76,0.59 0,0.29 0.24,0.9 1.12,0.9 0.25,0 0.75,-0.07 0.89,-0.46 z"
   style="fill:#000000;fill-opacity:1;stroke:#000000;stroke-width:0;stroke-opacity:1"
   id="path2601" />
<path
   inkscape:connector-curvature="0"
   d="m 167.89,659.72 v 0.07 0.08 l -0.01,0.08 v 0.08 l -0.01,0.17 -0.01,0.17 -0.02,0.18 -0.02,0.19 -0.02,0.2 -0.04,0.2 -0.04,0.2 -0.04,0.21 -0.06,0.21 -0.06,0.21 -0.07,0.21 -0.08,0.21 -0.04,0.11 -0.04,0.11 -0.05,0.1 -0.05,0.11 c -0.6,1.22 -1.46,1.86 -1.56,1.86 -0.06,0 -0.1,-0.03 -0.1,-0.09 0,-0.03 0,-0.05 0.19,-0.23 0.98,-0.99 1.55,-2.57 1.55,-4.64 0,-1.7 -0.37,-3.45 -1.61,-4.7 -0.13,-0.12 -0.13,-0.14 -0.13,-0.17 0,-0.06 0.04,-0.1 0.1,-0.1 0.1,0 1,0.68 1.59,1.94 0.51,1.09 0.63,2.19 0.63,3.03 z"
   style="fill:#000000;fill-opacity:1;stroke:#000000;stroke-width:0;stroke-opacity:1"
   id="path2603" />
</g>    <g
       style="font-style:normal;font-variant:normal;font-weight:normal;font-stretch:normal;letter-spacing:normal;word-spacing:normal;text-anchor:start;fill:none;fill-opacity:1;fill-rule:evenodd;stroke:#000000;stroke-linecap:butt;stroke-linejoin:miter;stroke-miterlimit:10.43299961;stroke-dasharray:none;stroke-dashoffset:0;stroke-opacity:1"
       ns0:jacobian_sqrt="0.607865"
       inkscapeversion="0.92.3"
       ns0:alignment="middle center"
       ns0:scale="1.72308015551"
       ns0:preamble="C:\\Users\\alsai\\AppData\\Roaming\\inkscape\\extensions\\textext\\default_packages.tex"
       ns0:text="$G_{c2}(s)$"
       ns0:pdfconverter="pstoedit"
       ns0:texconverter="pdflatex"
       ns0:version="0.9.0"
       word-spacing="normal"
       letter-spacing="normal"
       font-size-adjust="none"
       font-stretch="normal"
       font-weight="normal"
       font-variant="normal"
       font-style="normal"
       stroke-miterlimit="10.433"
       xml:space="preserve"
       transform="matrix(0.607865,0,0,-0.607865,13.749657,590.11237)"
       id="g2426">
<path
   id="path2414"
   style="fill:#000000;fill-opacity:1;stroke:#000000;stroke-width:0;stroke-opacity:1"
   d="m 156.29,664.14 v 0 0.01 0 0 0.01 0 0 0.01 0 l -0.01,0.01 v 0 0 0.01 0 l -0.01,0.01 v 0 0 l -0.01,0.01 v 0 0 l -0.01,0.01 v 0 h -0.01 v 0.01 h -0.01 v 0 h -0.01 v 0 0 h -0.01 v 0 0.01 h -0.01 v 0 0 h -0.01 v 0 0 h -0.01 c -0.03,0 -0.04,-0.01 -0.15,-0.12 l -0.7,-0.77 c -0.09,0.14 -0.54,0.89 -1.65,0.89 -2.23,0 -4.47,-2.2 -4.47,-4.5 0,-1.58 1.11,-2.72 2.72,-2.72 0.44,0 0.89,0.09 1.25,0.24 0.5,0.19 0.69,0.4 0.87,0.6 0.09,-0.25 0.35,-0.62 0.45,-0.62 0.05,0 0.07,0.04 0.07,0.04 0.02,0.02 0.11,0.4 0.17,0.61 l 0.19,0.77 c 0.03,0.16 0.08,0.33 0.12,0.5 0.11,0.45 0.12,0.47 0.69,0.48 0.05,0 0.16,0.01 0.16,0.2 0,0.07 -0.05,0.11 -0.13,0.11 -0.23,0 -0.82,-0.03 -1.04,-0.03 -0.31,0 -1.09,0.03 -1.4,0.03 -0.09,0 -0.21,0 -0.21,-0.2 0,-0.11 0.08,-0.11 0.3,-0.11 0.01,0 0.3,0 0.53,-0.02 0.26,-0.03 0.31,-0.06 0.31,-0.19 0,-0.09 -0.11,-0.54 -0.21,-0.9 -0.28,-1.1 -1.58,-1.21 -1.93,-1.21 -0.96,0 -2,0.57 -2,2.09 0,0.31 0.1,1.95 1.14,3.24 0.54,0.67 1.51,1.28 2.5,1.28 1.01,0 1.6,-0.77 1.6,-1.92 0,-0.39 -0.03,-0.4 -0.03,-0.5 0,-0.1 0.11,-0.1 0.15,-0.1 0.13,0 0.13,0.02 0.18,0.2 z"
   inkscape:connector-curvature="0" />
<path
   id="path2416"
   style="fill:#000000;fill-opacity:1;stroke:#000000;stroke-width:0;stroke-opacity:1"
   d="m 159.61,658.4 h -0.03 l -0.02,-0.01 h -0.02 l -0.02,-0.01 -0.02,-0.01 h -0.02 l -0.02,-0.01 -0.01,-0.01 -0.02,-0.01 -0.02,-0.01 -0.01,-0.01 -0.02,-0.02 -0.01,-0.01 -0.01,-0.01 -0.01,-0.01 -0.02,-0.02 -0.01,-0.01 -0.01,-0.02 v -0.01 l -0.01,-0.02 -0.01,-0.01 -0.01,-0.02 v -0.01 l -0.01,-0.02 v -0.01 l -0.01,-0.02 v -0.01 -0.02 l -0.01,-0.01 v -0.02 -0.01 -0.01 c 0,-0.19 0.15,-0.26 0.27,-0.26 0.16,0 0.4,0.11 0.4,0.44 0,0.47 -0.54,0.61 -0.92,0.61 -1.05,0 -2.02,-0.96 -2.02,-1.93 0,-0.6 0.42,-1.21 1.29,-1.21 1.18,0 1.74,0.69 1.74,0.79 0,0.04 -0.07,0.12 -0.12,0.12 -0.04,0 -0.06,-0.02 -0.12,-0.07 -0.54,-0.64 -1.36,-0.64 -1.48,-0.64 -0.51,0 -0.73,0.34 -0.73,0.77 0,0.2 0.1,0.96 0.46,1.44 0.27,0.34 0.63,0.53 0.98,0.53 0.1,0 0.43,-0.01 0.61,-0.21 z"
   inkscape:connector-curvature="0" />
<path
   id="path2418"
   style="fill:#000000;fill-opacity:1;stroke:#000000;stroke-width:0;stroke-opacity:1"
   d="m 163.64,657.01 h -0.24 c -0.02,-0.16 -0.09,-0.57 -0.18,-0.64 -0.06,-0.04 -0.6,-0.04 -0.7,-0.04 h -1.28 c 0.73,0.65 0.98,0.84 1.4,1.17 0.51,0.41 1,0.84 1,1.5 0,0.84 -0.74,1.36 -1.64,1.36 -0.87,0 -1.45,-0.61 -1.45,-1.25 0,-0.35 0.3,-0.39 0.37,-0.39 0.17,0 0.37,0.12 0.37,0.37 0,0.13 -0.05,0.37 -0.41,0.37 0.21,0.5 0.69,0.65 1.02,0.65 0.7,0 1.06,-0.54 1.06,-1.11 0,-0.6 -0.44,-1.08 -0.66,-1.33 l -1.68,-1.66 c -0.07,-0.06 -0.07,-0.07 -0.07,-0.27 h 2.88 z"
   inkscape:connector-curvature="0" />
<path
   id="path2420"
   style="fill:#000000;fill-opacity:1;stroke:#000000;stroke-width:0;stroke-opacity:1"
   d="m 167.88,654.85 v 0.01 0 0 l -0.01,0.01 v 0 0 0.01 0 0 0.01 h -0.01 v 0.01 0 l -0.01,0.01 v 0 0.01 l -0.01,0.01 h -0.01 v 0.01 0 l -0.01,0.01 v 0 0 l -0.01,0.01 v 0 l -0.01,0.01 v 0 l -0.01,0.01 v 0 l -0.01,0.01 v 0 l -0.01,0.01 v 0.01 h -0.01 v 0.01 l -0.01,0.01 h -0.01 v 0.01 l -0.01,0.01 h -0.01 l -0.01,0.01 v 0.01 c -1.25,1.25 -1.57,3.13 -1.57,4.65 0,1.73 0.38,3.45 1.61,4.7 0.13,0.12 0.13,0.14 0.13,0.17 0,0.07 -0.04,0.09 -0.1,0.09 -0.1,0 -1,-0.67 -1.59,-1.93 -0.51,-1.09 -0.63,-2.2 -0.63,-3.03 0,-0.78 0.11,-1.98 0.66,-3.1 0.6,-1.22 1.46,-1.87 1.56,-1.87 0.06,0 0.1,0.03 0.1,0.1 z"
   inkscape:connector-curvature="0" />
<path
   id="path2422"
   style="fill:#000000;fill-opacity:1;stroke:#000000;stroke-width:0;stroke-opacity:1"
   d="m 172.35,660.95 h -0.03 -0.02 l -0.03,-0.01 h -0.02 l -0.03,-0.01 -0.02,-0.01 h -0.02 l -0.02,-0.01 -0.02,-0.01 -0.03,-0.01 -0.02,-0.02 -0.02,-0.01 -0.01,-0.01 -0.02,-0.02 -0.02,-0.01 -0.02,-0.02 -0.01,-0.01 -0.02,-0.02 -0.01,-0.01 -0.01,-0.02 -0.01,-0.02 -0.02,-0.02 -0.01,-0.02 v -0.02 l -0.01,-0.02 -0.01,-0.02 -0.01,-0.02 v -0.02 -0.02 l -0.01,-0.02 v -0.02 -0.02 c 0,-0.14 0.09,-0.28 0.31,-0.28 0.22,0 0.46,0.16 0.46,0.55 0,0.45 -0.43,0.86 -1.19,0.86 -1.32,0 -1.68,-1.02 -1.68,-1.46 0,-0.77 0.73,-0.92 1.02,-0.98 0.52,-0.1 1.04,-0.21 1.04,-0.75 0,-0.26 -0.23,-1.1 -1.43,-1.1 -0.14,0 -0.9,0 -1.13,0.53 0.38,-0.05 0.63,0.25 0.63,0.53 0,0.23 -0.16,0.34 -0.37,0.34 -0.26,0 -0.56,-0.2 -0.56,-0.65 0,-0.57 0.57,-0.96 1.43,-0.96 1.61,0 2,1.2 2,1.65 0,0.35 -0.19,0.6 -0.31,0.72 -0.27,0.28 -0.56,0.33 -1,0.42 -0.36,0.08 -0.75,0.15 -0.75,0.59 0,0.29 0.23,0.9 1.11,0.9 0.25,0 0.75,-0.07 0.9,-0.46 z"
   inkscape:connector-curvature="0" />
<path
   id="path2424"
   style="fill:#000000;fill-opacity:1;stroke:#000000;stroke-width:0;stroke-opacity:1"
   d="m 176,659.72 v 0.07 0.08 0.08 0.08 l -0.01,0.17 -0.01,0.17 -0.02,0.18 -0.02,0.19 -0.03,0.2 -0.03,0.2 -0.04,0.2 -0.05,0.21 -0.05,0.21 -0.06,0.21 -0.07,0.21 -0.08,0.21 -0.04,0.11 -0.05,0.11 -0.05,0.1 -0.05,0.11 c -0.6,1.22 -1.45,1.86 -1.55,1.86 -0.06,0 -0.1,-0.03 -0.1,-0.09 0,-0.03 0,-0.05 0.19,-0.23 0.97,-0.99 1.54,-2.57 1.54,-4.64 0,-1.7 -0.37,-3.45 -1.6,-4.7 -0.13,-0.12 -0.13,-0.14 -0.13,-0.17 0,-0.06 0.04,-0.1 0.1,-0.1 0.1,0 1,0.68 1.58,1.94 0.51,1.09 0.63,2.19 0.63,3.03 z"
   inkscape:connector-curvature="0" />
</g>    <g
       style="font-style:normal;font-variant:normal;font-weight:normal;font-stretch:normal;letter-spacing:normal;word-spacing:normal;text-anchor:start;fill:none;fill-opacity:1;fill-rule:evenodd;stroke:#000000;stroke-linecap:butt;stroke-linejoin:miter;stroke-miterlimit:10.43299961;stroke-dasharray:none;stroke-dashoffset:0;stroke-opacity:1"
       ns0:jacobian_sqrt="0.607864"
       inkscapeversion="0.92.3"
       ns0:alignment="middle center"
       ns0:scale="1.72308015551"
       ns0:preamble="C:\\Users\\alsai\\AppData\\Roaming\\inkscape\\extensions\\textext\\default_packages.tex"
       ns0:text="$\\dot{\\Theta}_{ref}(s)$"
       ns0:pdfconverter="pstoedit"
       ns0:texconverter="pdflatex"
       ns0:version="0.9.0"
       word-spacing="normal"
       letter-spacing="normal"
       font-size-adjust="none"
       font-stretch="normal"
       font-weight="normal"
       font-variant="normal"
       font-style="normal"
       stroke-miterlimit="10.433"
       xml:space="preserve"
       transform="matrix(0.607864,0,0,-0.607864,36.385768,585.09635)"
       id="g3427">
<path
   inkscape:connector-curvature="0"
   id="path3409"
   style="fill:#000000;fill-opacity:1;stroke:#000000;stroke-width:0;stroke-opacity:1"
   d="m 153.12,665.87 v 0.03 0.02 l -0.01,0.03 v 0.02 l -0.01,0.03 -0.01,0.02 v 0.02 l -0.01,0.03 -0.01,0.02 -0.01,0.02 -0.02,0.03 -0.01,0.02 -0.02,0.02 -0.01,0.02 -0.02,0.02 -0.01,0.02 -0.02,0.02 -0.02,0.01 -0.02,0.02 -0.02,0.01 -0.02,0.02 -0.03,0.01 -0.02,0.01 -0.02,0.02 -0.03,0.01 h -0.02 l -0.03,0.01 -0.02,0.01 h -0.03 l -0.03,0.01 h -0.02 -0.03 c -0.34,0 -0.54,-0.28 -0.54,-0.53 0,-0.27 0.23,-0.52 0.53,-0.52 0.34,0 0.54,0.28 0.54,0.52 z" />
<path
   inkscape:connector-curvature="0"
   id="path3411"
   style="fill:#000000;fill-opacity:1;stroke:#000000;stroke-width:0;stroke-opacity:1"
   d="m 155.9,660.6 v 0.19 l -0.02,0.19 -0.02,0.18 -0.03,0.18 -0.03,0.18 -0.05,0.17 -0.05,0.17 -0.06,0.17 -0.07,0.16 -0.07,0.15 -0.08,0.16 -0.09,0.14 -0.09,0.15 -0.1,0.13 -0.11,0.13 -0.11,0.13 -0.11,0.12 -0.12,0.11 -0.13,0.11 -0.13,0.1 -0.14,0.1 -0.13,0.08 -0.15,0.08 -0.14,0.07 -0.15,0.07 -0.16,0.06 -0.16,0.04 -0.16,0.04 -0.16,0.04 -0.16,0.02 -0.17,0.01 -0.17,0.01 v -0.22 c 1.01,0 2.35,-0.9 2.35,-3.42 0,-2.53 -1.4,-3.36 -2.34,-3.36 v 0 c -0.99,0 -2.35,0.86 -2.35,3.36 0,2.56 1.38,3.42 2.34,3.42 v 0.22 c -1.78,0 -3.31,-1.59 -3.31,-3.64 0,-2.03 1.54,-3.58 3.31,-3.58 1.82,0 3.32,1.58 3.32,3.58 z" />
<polygon
   id="polygon3413"
   style="fill:#000000;fill-opacity:1;stroke:#000000;stroke-width:0;stroke-opacity:1"
   points="151.05,659.92 151.05,660.26 154.12,660.26 154.12,659.92 154.37,659.92 154.37,661.35 154.12,661.35 154.12,661.01 151.05,661.01 151.05,661.35 150.81,661.35 150.81,659.92 " />
<path
   inkscape:connector-curvature="0"
   id="path3415"
   style="fill:#000000;fill-opacity:1;stroke:#000000;stroke-width:0;stroke-opacity:1"
   d="m 158.1,657.15 v 0 h 0.01 v 0.01 0 0.01 0 0.01 0.01 h 0.01 v 0.01 0.01 0.01 0.01 l 0.01,0.01 v 0.03 l 0.01,0.02 0.01,0.03 v 0.03 l 0.01,0.03 0.01,0.03 0.01,0.03 0.01,0.06 0.02,0.06 0.01,0.03 v 0.03 l 0.01,0.03 0.01,0.03 0.01,0.02 v 0.03 l 0.01,0.02 v 0.01 0.01 l 0.01,0.01 v 0.01 0.01 0.01 l 0.01,0.01 v 0 0.01 0 0.01 0 l 0.01,0.01 v 0 c 0.01,0.05 0.21,0.4 0.44,0.57 0.07,0.05 0.26,0.19 0.56,0.19 0.07,0 0.25,0 0.39,-0.09 -0.23,-0.07 -0.31,-0.26 -0.31,-0.39 0,-0.15 0.12,-0.25 0.28,-0.25 0.16,0 0.39,0.13 0.39,0.42 0,0.36 -0.38,0.51 -0.74,0.51 -0.36,0 -0.68,-0.15 -0.99,-0.5 -0.12,0.43 -0.55,0.5 -0.72,0.5 -0.25,0 -0.43,-0.16 -0.54,-0.36 -0.16,-0.27 -0.26,-0.67 -0.26,-0.71 0,-0.09 0.1,-0.09 0.12,-0.09 0.1,0 0.1,0.02 0.15,0.21 0.11,0.43 0.24,0.75 0.51,0.75 0.19,0 0.23,-0.15 0.23,-0.34 0,-0.13 -0.06,-0.39 -0.11,-0.57 -0.05,-0.19 -0.12,-0.48 -0.15,-0.63 l -0.23,-0.89 c -0.02,-0.09 -0.07,-0.27 -0.07,-0.29 0,-0.15 0.13,-0.22 0.24,-0.22 0.11,0 0.25,0.06 0.3,0.2 0.02,0.04 0.09,0.35 0.13,0.53 z" />
<path
   inkscape:connector-curvature="0"
   id="path3417"
   style="fill:#000000;fill-opacity:1;stroke:#000000;stroke-width:0;stroke-opacity:1"
   d="m 161.94,657.33 h 0.02 0.02 0.03 0.02 0.03 0.03 0.03 0.03 0.03 0.03 l 0.04,0.01 h 0.03 0.04 0.04 l 0.08,0.01 0.08,0.01 0.08,0.01 0.08,0.01 0.08,0.01 0.08,0.02 0.04,0.01 0.04,0.01 0.04,0.01 0.04,0.01 0.03,0.01 0.04,0.01 c 0.52,0.18 0.61,0.52 0.61,0.73 0,0.38 -0.38,0.61 -0.86,0.61 v -0.2 c 0.3,0 0.56,-0.15 0.56,-0.41 0,-0.68 -1.18,-0.68 -1.48,-0.68 h -0.34 c 0.28,1.01 1.06,1.09 1.26,1.09 v 0.2 c -0.84,0 -1.97,-0.64 -1.97,-1.83 0,-0.7 0.44,-1.31 1.25,-1.31 1.19,0 1.74,0.69 1.74,0.79 0,0.04 -0.07,0.12 -0.12,0.12 -0.04,0 -0.06,-0.02 -0.11,-0.07 -0.55,-0.64 -1.37,-0.64 -1.49,-0.64 -0.42,0 -0.7,0.27 -0.7,0.84 0,0.09 0,0.23 0.08,0.62 z" />
<path
   inkscape:connector-curvature="0"
   id="path3419"
   style="fill:#000000;fill-opacity:1;stroke:#000000;stroke-width:0;stroke-opacity:1"
   d="m 167,658.49 h 0.69 c 0.14,0 0.23,0 0.23,0.15 0,0.1 -0.09,0.1 -0.22,0.1 h -0.65 c 0.16,0.88 0.22,1.2 0.27,1.4 0.04,0.16 0.19,0.3 0.36,0.3 0.01,0 0.2,0 0.33,-0.08 -0.29,-0.09 -0.31,-0.34 -0.31,-0.38 0,-0.16 0.12,-0.26 0.28,-0.26 0.19,0 0.4,0.16 0.4,0.42 0,0.32 -0.34,0.5 -0.7,0.5 -0.31,0 -0.65,-0.18 -0.84,-0.53 -0.14,-0.25 -0.19,-0.57 -0.34,-1.37 h -0.55 c -0.14,0 -0.24,0 -0.24,-0.15 0,-0.1 0.1,-0.1 0.22,-0.1 h 0.52 c -0.01,-0.04 -0.45,-2.55 -0.62,-3.29 -0.03,-0.15 -0.15,-0.68 -0.49,-0.68 0,0 -0.17,0 -0.3,0.08 0.28,0.09 0.3,0.34 0.3,0.38 0,0.16 -0.11,0.26 -0.27,0.26 -0.19,0 -0.4,-0.16 -0.4,-0.42 0,-0.32 0.32,-0.5 0.67,-0.5 0.45,0 0.76,0.46 0.84,0.61 0.25,0.47 0.42,1.33 0.43,1.41 z" />
<path
   inkscape:connector-curvature="0"
   id="path3421"
   style="fill:#000000;fill-opacity:1;stroke:#000000;stroke-width:0;stroke-opacity:1"
   d="m 172.62,654.85 v 0.01 0 0 0.01 0 0 0.01 h -0.01 v 0 0.01 0 0.01 h -0.01 v 0.01 h -0.01 v 0.01 l -0.01,0.01 v 0 0.01 h -0.01 v 0.01 h -0.01 v 0 0.01 h -0.01 v 0.01 h -0.01 v 0.01 h -0.01 v 0.01 h -0.01 V 655 l -0.01,0.01 v 0 l -0.01,0.01 -0.01,0.01 v 0 l -0.01,0.01 -0.01,0.01 v 0 l -0.01,0.01 -0.01,0.01 c -1.25,1.25 -1.57,3.13 -1.57,4.65 0,1.73 0.38,3.46 1.61,4.7 0.13,0.12 0.13,0.14 0.13,0.17 0,0.07 -0.04,0.09 -0.1,0.09 -0.1,0 -1,-0.67 -1.59,-1.93 -0.5,-1.09 -0.62,-2.2 -0.62,-3.03 0,-0.78 0.11,-1.98 0.65,-3.1 0.6,-1.22 1.46,-1.87 1.56,-1.87 0.06,0 0.1,0.03 0.1,0.1 z" />
<path
   inkscape:connector-curvature="0"
   id="path3423"
   style="fill:#000000;fill-opacity:1;stroke:#000000;stroke-width:0;stroke-opacity:1"
   d="m 177.09,660.95 h -0.02 -0.03 l -0.02,-0.01 h -0.03 l -0.02,-0.01 -0.02,-0.01 h -0.03 l -0.02,-0.01 -0.02,-0.01 -0.02,-0.01 -0.02,-0.02 -0.02,-0.01 -0.02,-0.01 -0.02,-0.02 -0.01,-0.01 -0.02,-0.02 -0.02,-0.01 -0.01,-0.02 -0.02,-0.01 -0.01,-0.02 -0.01,-0.02 -0.01,-0.02 -0.01,-0.02 -0.01,-0.02 -0.01,-0.02 -0.01,-0.02 v -0.02 l -0.01,-0.02 v -0.02 -0.02 l -0.01,-0.02 v -0.02 c 0,-0.14 0.09,-0.28 0.31,-0.28 0.22,0 0.46,0.16 0.46,0.55 0,0.45 -0.43,0.86 -1.18,0.86 -1.32,0 -1.69,-1.02 -1.69,-1.45 0,-0.78 0.74,-0.93 1.03,-0.99 0.52,-0.1 1.03,-0.21 1.03,-0.75 0,-0.26 -0.22,-1.1 -1.42,-1.1 -0.14,0 -0.91,0 -1.14,0.53 0.38,-0.05 0.63,0.25 0.63,0.53 0,0.23 -0.16,0.34 -0.37,0.34 -0.26,0 -0.56,-0.2 -0.56,-0.65 0,-0.57 0.57,-0.96 1.43,-0.96 1.61,0 2,1.2 2,1.65 0,0.35 -0.19,0.6 -0.31,0.72 -0.26,0.28 -0.56,0.33 -0.99,0.42 -0.36,0.08 -0.76,0.15 -0.76,0.59 0,0.29 0.24,0.9 1.12,0.9 0.25,0 0.74,-0.07 0.89,-0.46 z" />
<path
   inkscape:connector-curvature="0"
   id="path3425"
   style="fill:#000000;fill-opacity:1;stroke:#000000;stroke-width:0;stroke-opacity:1"
   d="m 180.75,659.72 v 0.07 l -0.01,0.08 v 0.08 0.08 l -0.01,0.17 -0.01,0.17 -0.02,0.18 -0.02,0.19 -0.02,0.2 -0.04,0.2 -0.04,0.2 -0.04,0.21 -0.06,0.21 -0.06,0.21 -0.07,0.21 -0.08,0.21 -0.04,0.11 -0.04,0.11 -0.05,0.1 -0.05,0.11 c -0.6,1.22 -1.46,1.86 -1.56,1.86 -0.06,0 -0.1,-0.03 -0.1,-0.09 0,-0.03 0,-0.05 0.19,-0.23 0.98,-0.99 1.55,-2.57 1.55,-4.64 0,-1.7 -0.37,-3.45 -1.61,-4.7 -0.13,-0.12 -0.13,-0.14 -0.13,-0.17 0,-0.06 0.04,-0.1 0.1,-0.1 0.1,0 1,0.68 1.59,1.94 0.51,1.09 0.63,2.19 0.63,3.03 z" />
</g>    <g
       id="g3749"
       transform="matrix(0.607864,0,0,-0.607864,-35.21465,584.57359)"
       xml:space="preserve"
       stroke-miterlimit="10.433"
       font-style="normal"
       font-variant="normal"
       font-weight="normal"
       font-stretch="normal"
       font-size-adjust="none"
       letter-spacing="normal"
       word-spacing="normal"
       ns0:version="0.9.0"
       ns0:texconverter="pdflatex"
       ns0:pdfconverter="pstoedit"
       ns0:text="$\\Theta_{ref}(s)$"
       ns0:preamble="C:\\Users\\alsai\\AppData\\Roaming\\inkscape\\extensions\\textext\\default_packages.tex"
       ns0:scale="1.72308015551"
       ns0:alignment="middle center"
       inkscapeversion="0.92.3"
       ns0:jacobian_sqrt="0.607864"
       style="font-style:normal;font-variant:normal;font-weight:normal;font-stretch:normal;letter-spacing:normal;word-spacing:normal;text-anchor:start;fill:none;fill-opacity:1;fill-rule:evenodd;stroke:#000000;stroke-linecap:butt;stroke-linejoin:miter;stroke-miterlimit:10.43299961;stroke-dasharray:none;stroke-dashoffset:0;stroke-opacity:1">
<path
   inkscape:connector-curvature="0"
   d="m 155.9,660.6 v 0.19 l -0.02,0.19 -0.02,0.18 -0.03,0.18 -0.03,0.18 -0.05,0.17 -0.05,0.17 -0.06,0.17 -0.07,0.16 -0.07,0.15 -0.08,0.16 -0.09,0.14 -0.09,0.15 -0.1,0.13 -0.11,0.13 -0.11,0.13 -0.11,0.12 -0.12,0.11 -0.13,0.11 -0.13,0.1 -0.14,0.1 -0.13,0.08 -0.15,0.08 -0.14,0.07 -0.15,0.07 -0.16,0.06 -0.16,0.04 -0.16,0.04 -0.16,0.04 -0.16,0.02 -0.17,0.01 -0.17,0.01 v -0.22 c 1.01,0 2.35,-0.9 2.35,-3.42 0,-2.53 -1.4,-3.36 -2.34,-3.36 v 0 c -0.99,0 -2.35,0.86 -2.35,3.36 0,2.56 1.38,3.42 2.34,3.42 v 0.22 c -1.78,0 -3.31,-1.59 -3.31,-3.64 0,-2.03 1.54,-3.58 3.31,-3.58 1.82,0 3.32,1.58 3.32,3.58 z"
   style="fill:#000000;fill-opacity:1;stroke:#000000;stroke-width:0;stroke-opacity:1"
   id="path3733" />
<polygon
   points="151.05,659.92 151.05,660.26 154.12,660.26 154.12,659.92 154.37,659.92 154.37,661.35 154.12,661.35 154.12,661.01 151.05,661.01 151.05,661.35 150.81,661.35 150.81,659.92 "
   style="fill:#000000;fill-opacity:1;stroke:#000000;stroke-width:0;stroke-opacity:1"
   id="polygon3735" />
<path
   inkscape:connector-curvature="0"
   d="m 158.1,657.15 v 0 h 0.01 v 0.01 0 0.01 0 0.01 0.01 h 0.01 v 0.01 0.01 0.01 0.01 l 0.01,0.01 v 0.03 l 0.01,0.02 0.01,0.03 v 0.03 l 0.01,0.03 0.01,0.03 0.01,0.03 0.01,0.06 0.02,0.06 0.01,0.03 v 0.03 l 0.01,0.03 0.01,0.03 0.01,0.02 v 0.03 l 0.01,0.02 v 0.01 0.01 l 0.01,0.01 v 0.01 0.01 0.01 l 0.01,0.01 v 0 0.01 0 0.01 0 l 0.01,0.01 v 0 c 0.01,0.05 0.21,0.4 0.44,0.57 0.07,0.05 0.26,0.19 0.56,0.19 0.07,0 0.25,0 0.39,-0.09 -0.23,-0.07 -0.31,-0.26 -0.31,-0.39 0,-0.15 0.12,-0.25 0.28,-0.25 0.16,0 0.39,0.13 0.39,0.42 0,0.36 -0.38,0.51 -0.74,0.51 -0.36,0 -0.68,-0.15 -0.99,-0.5 -0.12,0.43 -0.55,0.5 -0.72,0.5 -0.25,0 -0.43,-0.16 -0.54,-0.36 -0.16,-0.27 -0.26,-0.67 -0.26,-0.71 0,-0.09 0.1,-0.09 0.12,-0.09 0.1,0 0.1,0.02 0.15,0.21 0.11,0.43 0.24,0.75 0.51,0.75 0.19,0 0.23,-0.15 0.23,-0.34 0,-0.13 -0.06,-0.39 -0.11,-0.57 -0.05,-0.19 -0.12,-0.48 -0.15,-0.63 l -0.23,-0.89 c -0.02,-0.09 -0.07,-0.27 -0.07,-0.29 0,-0.15 0.13,-0.22 0.24,-0.22 0.11,0 0.25,0.06 0.3,0.2 0.02,0.04 0.09,0.35 0.13,0.53 z"
   style="fill:#000000;fill-opacity:1;stroke:#000000;stroke-width:0;stroke-opacity:1"
   id="path3737" />
<path
   inkscape:connector-curvature="0"
   d="m 161.94,657.33 h 0.02 0.02 0.03 0.02 0.03 0.03 0.03 0.03 0.03 0.03 l 0.04,0.01 h 0.03 0.04 0.04 l 0.08,0.01 0.08,0.01 0.08,0.01 0.08,0.01 0.08,0.01 0.08,0.02 0.04,0.01 0.04,0.01 0.04,0.01 0.04,0.01 0.03,0.01 0.04,0.01 c 0.52,0.18 0.61,0.52 0.61,0.73 0,0.38 -0.38,0.61 -0.86,0.61 v -0.2 c 0.3,0 0.56,-0.15 0.56,-0.41 0,-0.68 -1.18,-0.68 -1.48,-0.68 h -0.34 c 0.28,1.01 1.06,1.09 1.26,1.09 v 0.2 c -0.84,0 -1.97,-0.64 -1.97,-1.83 0,-0.7 0.44,-1.31 1.25,-1.31 1.19,0 1.74,0.69 1.74,0.79 0,0.04 -0.07,0.12 -0.12,0.12 -0.04,0 -0.06,-0.02 -0.11,-0.07 -0.55,-0.64 -1.37,-0.64 -1.49,-0.64 -0.42,0 -0.7,0.27 -0.7,0.84 0,0.09 0,0.23 0.08,0.62 z"
   style="fill:#000000;fill-opacity:1;stroke:#000000;stroke-width:0;stroke-opacity:1"
   id="path3739" />
<path
   inkscape:connector-curvature="0"
   d="m 167,658.49 h 0.69 c 0.14,0 0.23,0 0.23,0.15 0,0.1 -0.09,0.1 -0.22,0.1 h -0.65 c 0.16,0.88 0.22,1.2 0.27,1.4 0.04,0.16 0.19,0.3 0.36,0.3 0.01,0 0.2,0 0.33,-0.08 -0.29,-0.09 -0.31,-0.34 -0.31,-0.38 0,-0.16 0.12,-0.26 0.28,-0.26 0.19,0 0.4,0.16 0.4,0.42 0,0.32 -0.34,0.5 -0.7,0.5 -0.31,0 -0.65,-0.18 -0.84,-0.53 -0.14,-0.25 -0.19,-0.57 -0.34,-1.37 h -0.55 c -0.14,0 -0.24,0 -0.24,-0.15 0,-0.1 0.1,-0.1 0.22,-0.1 h 0.52 c -0.01,-0.04 -0.45,-2.55 -0.62,-3.29 -0.03,-0.15 -0.15,-0.68 -0.49,-0.68 0,0 -0.17,0 -0.3,0.08 0.28,0.09 0.3,0.34 0.3,0.38 0,0.16 -0.11,0.26 -0.27,0.26 -0.19,0 -0.4,-0.16 -0.4,-0.42 0,-0.32 0.32,-0.5 0.67,-0.5 0.45,0 0.76,0.46 0.84,0.61 0.25,0.47 0.42,1.33 0.43,1.41 z"
   style="fill:#000000;fill-opacity:1;stroke:#000000;stroke-width:0;stroke-opacity:1"
   id="path3741" />
<path
   inkscape:connector-curvature="0"
   d="m 172.62,654.85 v 0.01 0 0 0.01 0 0 0.01 h -0.01 v 0 0.01 0 0.01 h -0.01 v 0.01 h -0.01 v 0.01 l -0.01,0.01 v 0 0.01 h -0.01 v 0.01 h -0.01 v 0 0.01 h -0.01 v 0.01 h -0.01 v 0.01 h -0.01 v 0.01 h -0.01 V 655 l -0.01,0.01 v 0 l -0.01,0.01 -0.01,0.01 v 0 l -0.01,0.01 -0.01,0.01 v 0 l -0.01,0.01 -0.01,0.01 c -1.25,1.25 -1.57,3.13 -1.57,4.65 0,1.73 0.38,3.45 1.61,4.7 0.13,0.12 0.13,0.14 0.13,0.17 0,0.07 -0.04,0.09 -0.1,0.09 -0.1,0 -1,-0.67 -1.59,-1.93 -0.5,-1.09 -0.62,-2.2 -0.62,-3.03 0,-0.78 0.11,-1.98 0.65,-3.1 0.6,-1.22 1.46,-1.87 1.56,-1.87 0.06,0 0.1,0.03 0.1,0.1 z"
   style="fill:#000000;fill-opacity:1;stroke:#000000;stroke-width:0;stroke-opacity:1"
   id="path3743" />
<path
   inkscape:connector-curvature="0"
   d="m 177.09,660.95 h -0.02 -0.03 l -0.02,-0.01 h -0.03 l -0.02,-0.01 -0.02,-0.01 h -0.03 l -0.02,-0.01 -0.02,-0.01 -0.02,-0.01 -0.02,-0.02 -0.02,-0.01 -0.02,-0.01 -0.02,-0.02 -0.01,-0.01 -0.02,-0.02 -0.02,-0.01 -0.01,-0.02 -0.02,-0.01 -0.01,-0.02 -0.01,-0.02 -0.01,-0.02 -0.01,-0.02 -0.01,-0.02 -0.01,-0.02 -0.01,-0.02 v -0.02 l -0.01,-0.02 v -0.02 -0.02 l -0.01,-0.02 v -0.02 c 0,-0.14 0.09,-0.28 0.31,-0.28 0.22,0 0.46,0.16 0.46,0.55 0,0.45 -0.43,0.86 -1.18,0.86 -1.32,0 -1.69,-1.02 -1.69,-1.46 0,-0.77 0.74,-0.92 1.03,-0.98 0.52,-0.1 1.03,-0.21 1.03,-0.75 0,-0.26 -0.22,-1.1 -1.42,-1.1 -0.14,0 -0.91,0 -1.14,0.53 0.38,-0.05 0.63,0.25 0.63,0.53 0,0.23 -0.16,0.34 -0.37,0.34 -0.26,0 -0.56,-0.2 -0.56,-0.65 0,-0.57 0.57,-0.96 1.43,-0.96 1.61,0 2,1.2 2,1.65 0,0.35 -0.19,0.6 -0.31,0.72 -0.26,0.28 -0.56,0.33 -0.99,0.42 -0.36,0.08 -0.76,0.15 -0.76,0.59 0,0.29 0.24,0.9 1.12,0.9 0.25,0 0.74,-0.07 0.89,-0.46 z"
   style="fill:#000000;fill-opacity:1;stroke:#000000;stroke-width:0;stroke-opacity:1"
   id="path3745" />
<path
   inkscape:connector-curvature="0"
   d="m 180.75,659.72 v 0.07 l -0.01,0.08 v 0.08 0.08 l -0.01,0.17 -0.01,0.17 -0.02,0.18 -0.02,0.19 -0.02,0.2 -0.04,0.2 -0.04,0.2 -0.04,0.21 -0.06,0.21 -0.06,0.21 -0.07,0.21 -0.08,0.21 -0.04,0.11 -0.04,0.11 -0.05,0.1 -0.05,0.11 c -0.6,1.22 -1.46,1.86 -1.56,1.86 -0.06,0 -0.1,-0.03 -0.1,-0.09 0,-0.03 0,-0.05 0.19,-0.23 0.98,-0.99 1.55,-2.57 1.55,-4.64 0,-1.7 -0.37,-3.45 -1.61,-4.7 -0.13,-0.12 -0.13,-0.14 -0.13,-0.17 0,-0.06 0.04,-0.1 0.1,-0.1 0.1,0 1,0.68 1.59,1.94 0.51,1.09 0.63,2.19 0.63,3.03 z"
   style="fill:#000000;fill-opacity:1;stroke:#000000;stroke-width:0;stroke-opacity:1"
   id="path3747" />
</g>    <circle
       transform="matrix(0.26458333,0,0,0.26458333,19.468171,180.66924)"
       r="0"
       cy="0"
       cx="0"
       id="path3861"
       style="opacity:1;vector-effect:none;fill:#171717;fill-opacity:1;stroke:none;stroke-width:1.88976383;stroke-linecap:butt;stroke-linejoin:miter;stroke-miterlimit:4;stroke-dasharray:none;stroke-dashoffset:0;stroke-opacity:1" />
    <g
       style="font-style:normal;font-variant:normal;font-weight:normal;font-stretch:normal;letter-spacing:normal;word-spacing:normal;text-anchor:start;fill:none;fill-opacity:1;fill-rule:evenodd;stroke:#000000;stroke-linecap:butt;stroke-linejoin:miter;stroke-miterlimit:10.43299961;stroke-dasharray:none;stroke-dashoffset:0;stroke-opacity:1"
       ns0:jacobian_sqrt="0.607864"
       inkscapeversion="0.92.3"
       ns0:alignment="middle center"
       ns0:scale="1.72308015551"
       ns0:preamble="C:\\Users\\alsai\\AppData\\Roaming\\inkscape\\extensions\\textext\\default_packages.tex"
       ns0:text="$G_{v\\,cl}(s)$"
       ns0:pdfconverter="pstoedit"
       ns0:texconverter="pdflatex"
       ns0:version="0.9.0"
       word-spacing="normal"
       letter-spacing="normal"
       font-size-adjust="none"
       font-stretch="normal"
       font-weight="normal"
       font-variant="normal"
       font-style="normal"
       stroke-miterlimit="10.433"
       xml:space="preserve"
       transform="matrix(0.607864,0,0,-0.607864,63.677682,590.1117)"
       id="g4248">
<path
   id="path4234"
   style="fill:#000000;fill-opacity:1;stroke:#000000;stroke-width:0;stroke-opacity:1"
   d="m 156.29,664.14 v 0 0.01 0 0 0.01 0 0 0.01 0 l -0.01,0.01 v 0 0 0.01 0 l -0.01,0.01 v 0 0 l -0.01,0.01 v 0 0 l -0.01,0.01 v 0 h -0.01 v 0.01 h -0.01 v 0 h -0.01 v 0 0 h -0.01 v 0 0.01 h -0.01 v 0 0 h -0.01 v 0 0 h -0.01 c -0.03,0 -0.04,-0.01 -0.15,-0.12 l -0.7,-0.77 c -0.09,0.14 -0.54,0.89 -1.65,0.89 -2.23,0 -4.47,-2.2 -4.47,-4.5 0,-1.58 1.11,-2.72 2.72,-2.72 0.44,0 0.89,0.09 1.25,0.24 0.5,0.19 0.69,0.4 0.87,0.6 0.09,-0.25 0.35,-0.62 0.45,-0.62 0.05,0 0.07,0.04 0.07,0.04 0.02,0.02 0.11,0.4 0.17,0.61 l 0.19,0.77 c 0.03,0.16 0.08,0.33 0.12,0.5 0.11,0.45 0.12,0.47 0.69,0.48 0.05,0 0.16,0.01 0.16,0.2 0,0.07 -0.05,0.11 -0.13,0.11 -0.23,0 -0.82,-0.03 -1.04,-0.03 -0.31,0 -1.09,0.03 -1.4,0.03 -0.09,0 -0.21,0 -0.21,-0.2 0,-0.11 0.08,-0.11 0.3,-0.11 0.01,0 0.3,0 0.53,-0.02 0.26,-0.03 0.31,-0.06 0.31,-0.19 0,-0.09 -0.11,-0.54 -0.21,-0.9 -0.28,-1.1 -1.58,-1.21 -1.93,-1.21 -0.96,0 -2,0.57 -2,2.09 0,0.31 0.1,1.95 1.14,3.24 0.54,0.67 1.51,1.28 2.5,1.28 1.01,0 1.6,-0.77 1.6,-1.92 0,-0.39 -0.03,-0.4 -0.03,-0.5 0,-0.1 0.11,-0.1 0.15,-0.1 0.13,0 0.13,0.02 0.18,0.2 z"
   inkscape:connector-curvature="0" />
<path
   id="path4236"
   style="fill:#000000;fill-opacity:1;stroke:#000000;stroke-width:0;stroke-opacity:1"
   d="m 160.28,658.27 v 0.02 0.02 0.03 0.02 l -0.01,0.02 v 0.02 0.02 l -0.01,0.02 v 0.02 0.02 l -0.01,0.02 v 0.02 l -0.01,0.01 v 0.02 l -0.01,0.01 v 0.02 l -0.01,0.01 v 0.02 l -0.01,0.01 -0.01,0.01 v 0.01 l -0.01,0.02 -0.01,0.01 -0.01,0.01 v 0.01 l -0.01,0.01 -0.02,0.01 -0.01,0.02 -0.02,0.01 -0.01,0.02 -0.02,0.01 -0.02,0.01 h -0.01 l -0.02,0.01 -0.01,0.01 h -0.01 l -0.02,0.01 h -0.01 -0.01 -0.01 -0.01 -0.01 v 0 h -0.01 v 0.01 c -0.18,0 -0.38,-0.19 -0.38,-0.37 0,-0.12 0.07,-0.18 0.12,-0.22 0.12,-0.1 0.26,-0.28 0.26,-0.56 0,-0.31 -0.46,-1.8 -1.29,-1.8 -0.57,0 -0.57,0.5 -0.57,0.61 0,0.32 0.13,0.71 0.38,1.36 0.06,0.15 0.1,0.25 0.1,0.37 0,0.36 -0.31,0.6 -0.66,0.6 -0.7,0 -1.02,-0.96 -1.02,-1.07 0,-0.09 0.1,-0.09 0.12,-0.09 0.1,0 0.11,0.04 0.13,0.11 0.17,0.58 0.47,0.85 0.75,0.85 0.12,0 0.17,-0.07 0.17,-0.24 0,-0.16 -0.05,-0.31 -0.13,-0.47 -0.29,-0.77 -0.37,-1.07 -0.37,-1.32 0,-0.69 0.54,-0.91 1.08,-0.91 1.17,0 1.66,2.03 1.66,2.6 z"
   inkscape:connector-curvature="0" />
<path
   id="path4238"
   style="fill:#000000;fill-opacity:1;stroke:#000000;stroke-width:0;stroke-opacity:1"
   d="m 165.2,658.4 h -0.02 l -0.02,-0.01 h -0.02 l -0.02,-0.01 -0.02,-0.01 h -0.02 l -0.02,-0.01 -0.02,-0.01 -0.02,-0.01 -0.01,-0.01 -0.02,-0.01 -0.01,-0.02 -0.01,-0.01 -0.02,-0.01 -0.01,-0.01 -0.01,-0.02 -0.01,-0.01 -0.01,-0.02 -0.01,-0.01 -0.01,-0.02 v -0.01 l -0.01,-0.02 -0.01,-0.01 v -0.02 l -0.01,-0.01 v -0.02 l -0.01,-0.01 v -0.02 -0.01 -0.02 -0.01 -0.01 c 0,-0.19 0.14,-0.26 0.27,-0.26 0.15,0 0.4,0.11 0.4,0.44 0,0.47 -0.55,0.61 -0.92,0.61 -1.05,0 -2.03,-0.96 -2.03,-1.93 0,-0.6 0.42,-1.21 1.3,-1.21 1.18,0 1.73,0.69 1.73,0.79 0,0.04 -0.06,0.12 -0.12,0.12 -0.04,0 -0.05,-0.02 -0.11,-0.07 -0.54,-0.64 -1.36,-0.64 -1.49,-0.64 -0.5,0 -0.73,0.34 -0.73,0.77 0,0.2 0.1,0.96 0.47,1.44 0.26,0.34 0.62,0.53 0.98,0.53 0.09,0 0.43,-0.01 0.6,-0.21 z"
   inkscape:connector-curvature="0" />
<path
   id="path4240"
   style="fill:#000000;fill-opacity:1;stroke:#000000;stroke-width:0;stroke-opacity:1"
   d="m 167.67,660.36 v 0 0 0 0 0 h 0.01 v 0.01 0 0 0 0.01 0 0 0.01 0 0.01 h 0.01 v 0.01 0.01 0 0.01 0 0 0.01 h 0.01 v 0.01 0 0 0.01 0 0 0 0 0 0.01 0 0 0 0 0 0 c 0,0.03 -0.03,0.1 -0.11,0.1 -0.14,0 -0.72,-0.06 -0.9,-0.07 -0.04,-0.01 -0.14,-0.02 -0.14,-0.16 0,-0.1 0.1,-0.1 0.17,-0.1 0.34,0 0.34,-0.05 0.34,-0.1 0,-0.05 -0.02,-0.1 -0.03,-0.16 l -0.87,-3.43 c -0.02,-0.07 -0.03,-0.15 -0.03,-0.22 0,-0.44 0.4,-0.66 0.74,-0.66 0.17,0 0.38,0.06 0.56,0.37 0.14,0.26 0.24,0.67 0.24,0.69 0,0.1 -0.09,0.1 -0.11,0.1 -0.1,0 -0.11,-0.05 -0.14,-0.17 -0.09,-0.35 -0.22,-0.79 -0.52,-0.79 -0.19,0 -0.24,0.17 -0.24,0.34 0,0.07 0.02,0.2 0.04,0.28 z"
   inkscape:connector-curvature="0" />
<path
   id="path4242"
   style="fill:#000000;fill-opacity:1;stroke:#000000;stroke-width:0;stroke-opacity:1"
   d="m 172.06,654.85 v 0.01 0 0 0.01 0 0 0.01 0 h -0.01 v 0.01 0 0.01 h -0.01 v 0.01 0 l -0.01,0.01 v 0.01 h -0.01 v 0.01 h -0.01 v 0.01 0 H 172 v 0.01 h -0.01 v 0.01 h -0.01 v 0.01 h -0.01 v 0.01 h -0.01 V 655 l -0.01,0.01 v 0 l -0.01,0.01 -0.01,0.01 v 0 l -0.01,0.01 -0.01,0.01 v 0 l -0.01,0.01 -0.01,0.01 c -1.24,1.25 -1.56,3.13 -1.56,4.65 0,1.73 0.38,3.45 1.6,4.7 0.13,0.12 0.13,0.14 0.13,0.17 0,0.07 -0.04,0.09 -0.1,0.09 -0.1,0 -1,-0.67 -1.58,-1.93 -0.51,-1.09 -0.63,-2.2 -0.63,-3.03 0,-0.78 0.11,-1.98 0.65,-3.1 0.6,-1.22 1.46,-1.87 1.56,-1.87 0.06,0 0.1,0.03 0.1,0.1 z"
   inkscape:connector-curvature="0" />
<path
   id="path4244"
   style="fill:#000000;fill-opacity:1;stroke:#000000;stroke-width:0;stroke-opacity:1"
   d="m 176.53,660.95 h -0.02 -0.03 l -0.02,-0.01 h -0.03 l -0.02,-0.01 -0.02,-0.01 h -0.03 l -0.02,-0.01 -0.02,-0.01 -0.02,-0.01 -0.02,-0.02 -0.02,-0.01 -0.02,-0.01 -0.02,-0.02 -0.01,-0.01 -0.02,-0.02 -0.02,-0.01 -0.01,-0.02 -0.02,-0.01 -0.01,-0.02 -0.01,-0.02 -0.01,-0.02 -0.01,-0.02 -0.01,-0.02 -0.01,-0.02 -0.01,-0.02 v -0.02 l -0.01,-0.02 v -0.02 -0.02 l -0.01,-0.02 v -0.02 c 0,-0.14 0.09,-0.28 0.31,-0.28 0.22,0 0.46,0.16 0.46,0.55 0,0.45 -0.43,0.86 -1.18,0.86 -1.32,0 -1.69,-1.02 -1.69,-1.46 0,-0.77 0.74,-0.92 1.03,-0.98 0.52,-0.1 1.03,-0.21 1.03,-0.75 0,-0.26 -0.22,-1.1 -1.42,-1.1 -0.14,0 -0.91,0 -1.14,0.53 0.38,-0.05 0.63,0.25 0.63,0.53 0,0.23 -0.16,0.34 -0.37,0.34 -0.26,0 -0.56,-0.2 -0.56,-0.65 0,-0.57 0.57,-0.96 1.43,-0.96 1.61,0 2,1.2 2,1.65 0,0.35 -0.19,0.6 -0.31,0.72 -0.26,0.28 -0.56,0.33 -0.99,0.42 -0.36,0.08 -0.76,0.15 -0.76,0.59 0,0.29 0.24,0.9 1.12,0.9 0.24,0 0.74,-0.07 0.89,-0.46 z"
   inkscape:connector-curvature="0" />
<path
   id="path4246"
   style="fill:#000000;fill-opacity:1;stroke:#000000;stroke-width:0;stroke-opacity:1"
   d="m 180.19,659.72 v 0.07 l -0.01,0.08 v 0.08 0.08 l -0.01,0.17 -0.01,0.17 -0.02,0.18 -0.02,0.19 -0.02,0.2 -0.04,0.2 -0.04,0.2 -0.04,0.21 -0.06,0.21 -0.06,0.21 -0.07,0.21 -0.08,0.21 -0.04,0.11 -0.04,0.11 -0.05,0.1 -0.05,0.11 c -0.6,1.22 -1.46,1.86 -1.56,1.86 -0.06,0 -0.1,-0.03 -0.1,-0.09 0,-0.03 0,-0.05 0.19,-0.23 0.98,-0.99 1.55,-2.57 1.55,-4.64 0,-1.7 -0.37,-3.45 -1.61,-4.7 -0.13,-0.12 -0.13,-0.14 -0.13,-0.17 0,-0.06 0.04,-0.1 0.1,-0.1 0.1,0 1,0.68 1.59,1.94 0.51,1.09 0.63,2.19 0.63,3.03 z"
   inkscape:connector-curvature="0" />
</g>  </g>
</svg>
