<?xml version="1.0" encoding="UTF-8" standalone="no"?>
<!-- Created with Inkscape (http://www.inkscape.org/) -->

<svg
   xmlns:ns0="http://www.iki.fi/pav/software/textext/"
   xmlns:dc="http://purl.org/dc/elements/1.1/"
   xmlns:cc="http://creativecommons.org/ns#"
   xmlns:rdf="http://www.w3.org/1999/02/22-rdf-syntax-ns#"
   xmlns:svg="http://www.w3.org/2000/svg"
   xmlns="http://www.w3.org/2000/svg"
   xmlns:sodipodi="http://sodipodi.sourceforge.net/DTD/sodipodi-0.dtd"
   xmlns:inkscape="http://www.inkscape.org/namespaces/inkscape"
   width="303.33023mm"
   height="163.46419mm"
   viewBox="0 0 303.33023 163.46419"
   version="1.1"
   id="svg34379"
   inkscape:version="0.92.3 (2405546, 2018-03-11)"
   sodipodi:docname="GeneralTimerCountDown.svg">
  <sodipodi:namedview
     id="base"
     pagecolor="#ffffff"
     bordercolor="#666666"
     borderopacity="1.0"
     inkscape:pageopacity="0.0"
     inkscape:pageshadow="2"
     inkscape:zoom="0.84260477"
     inkscape:cx="420.8778"
     inkscape:cy="189.93012"
     inkscape:document-units="mm"
     inkscape:current-layer="layer1"
     showgrid="false"
     inkscape:window-width="2560"
     inkscape:window-height="1377"
     inkscape:window-x="-8"
     inkscape:window-y="-8"
     inkscape:window-maximized="1"
     fit-margin-top="0"
     fit-margin-left="0"
     fit-margin-right="0"
     fit-margin-bottom="0" />
  <defs
     id="defs34373">
    <marker
       inkscape:stockid="Arrow1Mend"
       orient="auto"
       refY="0"
       refX="0"
       id="marker7604"
       style="overflow:visible"
       inkscape:isstock="true">
      <path
         inkscape:connector-curvature="0"
         id="path7602"
         d="M 0,0 5,-5 -12.5,0 5,5 Z"
         style="fill:#000000;fill-opacity:1;fill-rule:evenodd;stroke:#000000;stroke-width:1.00000003pt;stroke-opacity:1"
         transform="matrix(-0.4,0,0,-0.4,-4,0)" />
    </marker>
    <marker
       inkscape:stockid="Arrow1Mend"
       orient="auto"
       refY="0"
       refX="0"
       id="marker7562"
       style="overflow:visible"
       inkscape:isstock="true">
      <path
         inkscape:connector-curvature="0"
         id="path7560"
         d="M 0,0 5,-5 -12.5,0 5,5 Z"
         style="fill:#000000;fill-opacity:1;fill-rule:evenodd;stroke:#000000;stroke-width:1.00000003pt;stroke-opacity:1"
         transform="matrix(-0.4,0,0,-0.4,-4,0)" />
    </marker>
    <marker
       inkscape:isstock="true"
       style="overflow:visible"
       id="Arrow1Mend"
       refX="0"
       refY="0"
       orient="auto"
       inkscape:stockid="Arrow1Mend"
       inkscape:collect="always">
      <path
         transform="matrix(-0.4,0,0,-0.4,-4,0)"
         style="fill:#000000;fill-opacity:1;fill-rule:evenodd;stroke:#000000;stroke-width:1.00000003pt;stroke-opacity:1"
         d="M 0,0 5,-5 -12.5,0 5,5 Z"
         id="path1662"
         inkscape:connector-curvature="0" />
    </marker>
    <marker
       inkscape:isstock="true"
       style="overflow:visible"
       id="Arrow1Mstart"
       refX="0"
       refY="0"
       orient="auto"
       inkscape:stockid="Arrow1Mstart">
      <path
         transform="matrix(0.4,0,0,0.4,4,0)"
         style="fill:#000000;fill-opacity:1;fill-rule:evenodd;stroke:#000000;stroke-width:1.00000003pt;stroke-opacity:1"
         d="M 0,0 5,-5 -12.5,0 5,5 Z"
         id="path1659"
         inkscape:connector-curvature="0" />
    </marker>
    <marker
       inkscape:isstock="true"
       style="overflow:visible"
       id="Arrow1Sstart"
       refX="0"
       refY="0"
       orient="auto"
       inkscape:stockid="Arrow1Sstart">
      <path
         transform="matrix(0.2,0,0,0.2,1.2,0)"
         style="fill:#000000;fill-opacity:1;fill-rule:evenodd;stroke:#000000;stroke-width:1.00000003pt;stroke-opacity:1"
         d="M 0,0 5,-5 -12.5,0 5,5 Z"
         id="path1665"
         inkscape:connector-curvature="0" />
    </marker>
    <marker
       inkscape:stockid="Arrow2Lend"
       orient="auto"
       refY="0"
       refX="0"
       id="marker2829"
       style="overflow:visible"
       inkscape:isstock="true">
      <path
         id="path2827"
         style="fill:#000000;fill-opacity:1;fill-rule:evenodd;stroke:#000000;stroke-width:0.625;stroke-linejoin:round;stroke-opacity:1"
         d="M 8.7185878,4.0337352 -2.2072895,0.01601326 8.7185884,-4.0017078 c -1.7454984,2.3720609 -1.7354408,5.6174519 -6e-7,8.035443 z"
         transform="matrix(-1.1,0,0,-1.1,-1.1,0)"
         inkscape:connector-curvature="0" />
    </marker>
    <marker
       inkscape:isstock="true"
       style="overflow:visible"
       id="Arrow2Lstart"
       refX="0"
       refY="0"
       orient="auto"
       inkscape:stockid="Arrow2Lstart">
      <path
         transform="matrix(1.1,0,0,1.1,1.1,0)"
         d="M 8.7185878,4.0337352 -2.2072895,0.01601326 8.7185884,-4.0017078 c -1.7454984,2.3720609 -1.7354408,5.6174519 -6e-7,8.035443 z"
         style="fill:#000000;fill-opacity:1;fill-rule:evenodd;stroke:#000000;stroke-width:0.625;stroke-linejoin:round;stroke-opacity:1"
         id="path1671"
         inkscape:connector-curvature="0" />
    </marker>
    <marker
       inkscape:isstock="true"
       style="overflow:visible"
       id="Arrow2Lend-7"
       refX="0"
       refY="0"
       orient="auto"
       inkscape:stockid="Arrow2Lend">
      <path
         transform="matrix(-1.1,0,0,-1.1,-1.1,0)"
         d="M 8.7185878,4.0337352 -2.2072895,0.01601326 8.7185884,-4.0017078 c -1.7454984,2.3720609 -1.7354408,5.6174519 -6e-7,8.035443 z"
         style="fill:#000000;fill-opacity:1;fill-rule:evenodd;stroke:#000000;stroke-width:0.625;stroke-linejoin:round;stroke-opacity:1"
         id="path1674-8"
         inkscape:connector-curvature="0" />
    </marker>
  </defs>
  <metadata
     id="metadata34376">
    <rdf:RDF>
      <cc:Work
         rdf:about="">
        <dc:format>image/svg+xml</dc:format>
        <dc:type
           rdf:resource="http://purl.org/dc/dcmitype/StillImage" />
        <dc:title></dc:title>
      </cc:Work>
    </rdf:RDF>
  </metadata>
  <g
     transform="translate(15.545767,-144.86609)"
     id="layer1"
     inkscape:groupmode="layer"
     inkscape:label="Layer 1">
    <path
       sodipodi:nodetypes="ccc"
       inkscape:connector-curvature="0"
       id="path1651"
       d="m 73.173912,207.83851 v 59.64596 H 277.32298"
       style="fill:none;stroke:#000000;stroke-width:2;stroke-linecap:butt;stroke-linejoin:miter;stroke-miterlimit:4;stroke-dasharray:none;stroke-opacity:1;marker-end:url(#marker7562)" />
    <text
       id="text2269"
       y="271.48138"
       x="283.16458"
       style="font-style:normal;font-weight:normal;font-size:10.58333302px;line-height:1.25;font-family:sans-serif;letter-spacing:0px;word-spacing:0px;fill:#000000;fill-opacity:1;stroke:none;stroke-width:0.26458332"
       xml:space="preserve"><tspan
         style="font-style:italic;stroke-width:0.26458332"
         y="271.48138"
         x="283.16458"
         id="tspan2267"
         sodipodi:role="line">t</tspan></text>
    <text
       xml:space="preserve"
       style="font-style:normal;font-weight:normal;font-size:10.58333302px;line-height:1.25;font-family:sans-serif;letter-spacing:0px;word-spacing:0px;fill:#000000;fill-opacity:1;stroke:none;stroke-width:0.26458332"
       x="41.813652"
       y="272.09628"
       id="text2273"><tspan
         sodipodi:role="line"
         id="tspan2271"
         x="41.813652"
         y="272.09628"
         style="font-style:normal;stroke-width:0.26458332">0x00</tspan></text>
    <text
       id="text2277"
       y="219.87941"
       x="41.813652"
       style="font-style:normal;font-weight:normal;font-size:10.58333302px;line-height:1.25;font-family:sans-serif;letter-spacing:0px;word-spacing:0px;fill:#000000;fill-opacity:1;stroke:none;stroke-width:0.26458332"
       xml:space="preserve"><tspan
         style="font-style:normal;stroke-width:0.26458332"
         y="219.87941"
         x="41.813652"
         id="tspan2275"
         sodipodi:role="line">0x07</tspan></text>
    <text
       xml:space="preserve"
       style="font-style:normal;font-weight:normal;font-size:10.58333302px;line-height:1.25;font-family:sans-serif;letter-spacing:0px;word-spacing:0px;fill:#000000;fill-opacity:1;stroke:none;stroke-width:0.26458332"
       x="41.813652"
       y="174.81972"
       id="text2281"><tspan
         sodipodi:role="line"
         id="tspan2279"
         x="41.813652"
         y="174.81972"
         style="font-style:normal;stroke-width:0.26458332">0xFF</tspan></text>
    <path
       inkscape:connector-curvature="0"
       id="path2283"
       d="M 73.173912,171.43778 H 273.63354"
       style="fill:none;stroke:#000000;stroke-width:0.26458332;stroke-linecap:butt;stroke-linejoin:miter;stroke-miterlimit:4;stroke-dasharray:0.26458332, 0.52916663;stroke-dashoffset:0;stroke-opacity:1" />
    <path
       sodipodi:nodetypes="cccccccccccccccccccccc"
       inkscape:connector-curvature="0"
       id="path2285"
       d="m 73.481366,216.41171 h 15.987577 v 0 7.30392 h 15.987577 v 0 7.30392 h 15.98758 v 0 7.30392 h 15.98758 v 0 7.30392 h 15.98758 v 0 7.30392 h 15.98758 v 0 7.30392 h 15.98758 v 0 7.30392"
       style="fill:none;stroke:#000000;stroke-width:1.5;stroke-linecap:butt;stroke-linejoin:round;stroke-miterlimit:4;stroke-dasharray:none;stroke-opacity:1" />
    <path
       sodipodi:nodetypes="cc"
       inkscape:connector-curvature="0"
       id="path2315"
       d="M 73.173912,207.83851 V 192.77329"
       style="fill:none;stroke:#000000;stroke-width:0.26458332;stroke-linecap:butt;stroke-linejoin:miter;stroke-miterlimit:4;stroke-dasharray:0.26458332, 1.5874999;stroke-dashoffset:0;stroke-opacity:1" />
    <path
       inkscape:connector-curvature="0"
       id="path2781"
       d="M 73.173912,192.77329 V 148.80745"
       style="opacity:1;vector-effect:none;fill:none;fill-opacity:1;stroke:#000000;stroke-width:2;stroke-linecap:butt;stroke-linejoin:miter;stroke-miterlimit:4;stroke-dasharray:none;stroke-dashoffset:0;stroke-opacity:1;marker-end:url(#marker7604)" />
    <path
       style="fill:none;stroke:#000000;stroke-width:0.26458332px;stroke-linecap:butt;stroke-linejoin:miter;stroke-opacity:1"
       d="M 185.39442,267.53915 H 201.382 v 0"
       id="path2867"
       inkscape:connector-curvature="0"
       sodipodi:nodetypes="ccc" />
    <path
       inkscape:connector-curvature="0"
       id="path2869"
       d="m 201.382,267.53915 v -96.2876"
       style="opacity:1;vector-effect:none;fill:none;fill-opacity:1;stroke:#000000;stroke-width:0.26458332;stroke-linecap:butt;stroke-linejoin:miter;stroke-miterlimit:4;stroke-dasharray:0.26458332, 0.52916663;stroke-dashoffset:0;stroke-opacity:1" />
    <path
       style="fill:none;stroke:#000000;stroke-width:1.5;stroke-linecap:butt;stroke-linejoin:round;stroke-miterlimit:4;stroke-dasharray:none;stroke-opacity:1"
       d="m 201.382,171.25155 h 15.98758 v 0 7.30392 h 15.98758 v 0 7.30392 h 15.98758 v 0 7.30392 h 15.98758 v 0 7.30392"
       id="path2885"
       inkscape:connector-curvature="0"
       sodipodi:nodetypes="ccccccccccccc" />
    <path
       sodipodi:nodetypes="cc"
       inkscape:connector-curvature="0"
       id="path2895"
       d="m 89.468943,223.71563 v 55.75952"
       style="opacity:1;vector-effect:none;fill:none;fill-opacity:1;stroke:#000000;stroke-width:0.26458332;stroke-linecap:butt;stroke-linejoin:miter;stroke-miterlimit:4;stroke-dasharray:0.26458332, 0.52916663;stroke-dashoffset:0;stroke-opacity:1" />
    <path
       sodipodi:nodetypes="cc"
       inkscape:connector-curvature="0"
       id="path2897"
       d="m 105.45652,231.01955 v 48.4556"
       style="opacity:1;vector-effect:none;fill:none;fill-opacity:1;stroke:#000000;stroke-width:0.26458332;stroke-linecap:butt;stroke-linejoin:miter;stroke-miterlimit:4;stroke-dasharray:0.26458332, 0.52916663;stroke-dashoffset:0;stroke-opacity:1" />
    <path
       inkscape:connector-curvature="0"
       id="path2918"
       d="M 89.430512,278.13005 H 105.49495"
       style="fill:none;stroke:#000000;stroke-width:0.26499999;stroke-linecap:butt;stroke-linejoin:miter;stroke-miterlimit:4;stroke-dasharray:none;stroke-opacity:1;marker-start:url(#Arrow1Mstart);marker-end:url(#Arrow1Mend)" />
    <g
       ns0:jacobian_sqrt="2.481092"
       inkscapeversion="0.92.3"
       ns0:alignment="middle center"
       ns0:scale="7.03301703135"
       ns0:preamble="C:\\Users\\alsai\\AppData\\Roaming\\inkscape\\extensions\\textext\\default_packages.tex"
       ns0:text="$\\frac{1}{f_{count}}$"
       ns0:pdfconverter="pstoedit"
       ns0:texconverter="pdflatex"
       ns0:version="0.9.0"
       word-spacing="normal"
       letter-spacing="normal"
       font-size-adjust="none"
       font-stretch="normal"
       font-weight="normal"
       font-variant="normal"
       font-style="normal"
       stroke-miterlimit="10.433"
       xml:space="preserve"
       transform="matrix(1.7187051,0,0,-1.7187051,-179.3462,1429.5791)"
       id="content"
       style="font-style:normal;font-variant:normal;font-weight:normal;font-stretch:normal;letter-spacing:normal;word-spacing:normal;text-anchor:start;fill:none;fill-opacity:1;fill-rule:evenodd;stroke:#000000;stroke-linecap:butt;stroke-linejoin:miter;stroke-miterlimit:10.43299961;stroke-dasharray:none;stroke-dashoffset:0;stroke-opacity:1">
<path
   id="path3433"
   d="m 161.53,665.58 v 0.01 0.01 0.01 0 0.01 0.01 0.01 0 0.01 0.01 0 0.01 0 0.01 l -0.01,0.01 v 0 0.01 0 0.01 0.01 h -0.01 v 0.01 0.01 h -0.01 v 0.01 h -0.01 v 0.01 h -0.01 -0.01 l -0.01,0.01 h -0.01 v 0 h -0.01 -0.01 v 0 h -0.01 v 0 h -0.01 v 0 h -0.01 -0.01 -0.01 v 0 h -0.01 -0.01 -0.01 v 0 h -0.01 l -0.01,0.01 h -0.01 c -0.45,-0.44 -1.08,-0.45 -1.37,-0.45 v -0.25 c 0.17,0 0.63,0 1.01,0.2 v -3.55 c 0,-0.23 0,-0.32 -0.7,-0.32 H 160 v -0.25 c 0.12,0 0.98,0.03 1.24,0.03 0.22,0 1.1,-0.03 1.25,-0.03 v 0.25 h -0.26 c -0.7,0 -0.7,0.09 -0.7,0.32 z"
   inkscape:connector-curvature="0"
   style="fill:#000000;stroke-width:0" />
<line
   id="line3435"
   y2="659.72998"
   x2="172.44"
   y1="659.72998"
   x1="149.91"
   style="stroke-width:0.398" />
<path
   id="path3437"
   d="m 152.75,656.55 h 0.69 c 0.14,0 0.23,0 0.23,0.15 0,0.1 -0.09,0.1 -0.22,0.1 h -0.65 c 0.16,0.88 0.22,1.2 0.27,1.4 0.04,0.15 0.19,0.3 0.36,0.3 0.01,0 0.2,0 0.33,-0.08 -0.29,-0.09 -0.31,-0.34 -0.31,-0.39 0,-0.15 0.12,-0.25 0.28,-0.25 0.19,0 0.4,0.16 0.4,0.42 0,0.32 -0.34,0.5 -0.7,0.5 -0.31,0 -0.65,-0.18 -0.84,-0.53 -0.14,-0.25 -0.19,-0.57 -0.34,-1.37 h -0.55 c -0.14,0 -0.23,0 -0.23,-0.16 0,-0.09 0.09,-0.09 0.21,-0.09 h 0.52 c -0.01,-0.04 -0.45,-2.55 -0.61,-3.29 -0.04,-0.16 -0.16,-0.68 -0.49,-0.68 -0.01,0 -0.18,0 -0.31,0.08 0.29,0.09 0.31,0.34 0.31,0.38 0,0.16 -0.12,0.26 -0.28,0.26 -0.19,0 -0.4,-0.16 -0.4,-0.42 0,-0.32 0.33,-0.5 0.68,-0.5 0.44,0 0.75,0.46 0.84,0.61 0.25,0.47 0.41,1.33 0.42,1.41 z"
   inkscape:connector-curvature="0"
   style="fill:#000000;stroke-width:0" />
<path
   id="path3439"
   d="m 156.35,654.72 h -0.01 -0.01 l -0.01,-0.01 v 0 l -0.01,-0.01 h -0.01 l -0.01,-0.01 h -0.01 l -0.01,-0.01 -0.01,-0.01 h -0.01 l -0.01,-0.01 -0.01,-0.01 -0.01,-0.01 h -0.01 l -0.01,-0.01 -0.01,-0.01 v -0.01 l -0.01,-0.01 -0.01,-0.02 -0.01,-0.01 v -0.01 l -0.01,-0.01 v -0.01 l -0.01,-0.02 v -0.01 l -0.01,-0.01 v -0.02 -0.01 l -0.01,-0.02 v -0.01 -0.02 c 0,-0.13 0.1,-0.2 0.22,-0.2 0.12,0 0.31,0.09 0.31,0.34 0,0.37 -0.48,0.44 -0.76,0.44 -0.84,0 -1.57,-0.69 -1.57,-1.35 0,-0.43 0.32,-0.9 1.07,-0.9 0.1,0 0.49,0 0.83,0.13 0.33,0.13 0.53,0.36 0.53,0.41 0,0.04 -0.06,0.12 -0.11,0.12 -0.02,0 -0.03,-0.01 -0.1,-0.09 -0.23,-0.25 -0.65,-0.4 -1.14,-0.4 -0.42,0 -0.62,0.23 -0.62,0.57 0,0.51 0.33,1.34 1.11,1.34 0.06,0 0.31,0 0.46,-0.11 z"
   inkscape:connector-curvature="0"
   style="fill:#000000;stroke-width:0" />
<path
   id="path3441"
   d="m 160.17,654.09 v 0.05 l -0.01,0.05 v 0.04 l -0.01,0.05 -0.01,0.04 -0.01,0.04 -0.02,0.04 -0.02,0.05 -0.02,0.04 -0.02,0.03 -0.02,0.04 -0.03,0.04 -0.02,0.03 -0.03,0.04 -0.03,0.03 -0.04,0.03 -0.03,0.03 -0.04,0.03 -0.04,0.03 -0.04,0.02 -0.04,0.03 -0.04,0.02 -0.05,0.02 -0.04,0.02 -0.05,0.01 -0.05,0.02 -0.06,0.01 -0.05,0.01 -0.05,0.01 h -0.06 l -0.06,0.01 h -0.06 l -0.01,-0.17 c 0.28,0 0.6,-0.14 0.6,-0.58 0,-0.14 -0.06,-0.6 -0.3,-0.91 -0.23,-0.3 -0.56,-0.42 -0.8,-0.42 v 0 c -0.25,0 -0.6,0.11 -0.6,0.58 0,0.15 0.07,0.64 0.34,0.96 0.19,0.22 0.48,0.37 0.76,0.37 l 0.01,0.17 c -0.83,0 -1.57,-0.68 -1.57,-1.35 0,-0.5 0.42,-0.9 1.05,-0.9 0.83,0 1.57,0.68 1.57,1.34 z"
   inkscape:connector-curvature="0"
   style="fill:#000000;stroke-width:0" />
<path
   id="path3443"
   d="m 163.28,654.22 -0.15,-0.62 c -0.02,-0.06 -0.05,-0.17 -0.05,-0.19 -0.01,-0.02 -0.28,-0.49 -0.7,-0.49 -0.19,0 -0.41,0.07 -0.41,0.42 0,0.26 0.13,0.6 0.27,0.94 0.05,0.13 0.08,0.2 0.08,0.28 0,0.25 -0.23,0.44 -0.54,0.44 -0.52,0 -0.8,-0.64 -0.8,-0.77 0,-0.07 0.08,-0.07 0.11,-0.07 0.08,0 0.08,0.02 0.11,0.1 0.1,0.33 0.33,0.57 0.56,0.57 0.09,0 0.15,-0.05 0.15,-0.19 0,-0.1 -0.02,-0.15 -0.09,-0.3 -0.26,-0.66 -0.26,-0.79 -0.26,-0.93 0,-0.55 0.47,-0.66 0.79,-0.66 0.28,0 0.53,0.14 0.72,0.34 0.12,-0.32 0.49,-0.34 0.58,-0.34 0.17,0 0.31,0.08 0.43,0.27 0.13,0.19 0.2,0.47 0.2,0.5 0,0.07 -0.08,0.07 -0.1,0.07 -0.09,0 -0.09,-0.03 -0.12,-0.11 -0.09,-0.38 -0.22,-0.56 -0.39,-0.56 -0.14,0 -0.2,0.11 -0.2,0.26 0,0.11 0.15,0.7 0.35,1.47 0.02,0.09 0.02,0.1 0.02,0.12 0,0.11 -0.09,0.18 -0.18,0.18 -0.2,0 -0.24,-0.18 -0.28,-0.31 z"
   inkscape:connector-curvature="0"
   style="fill:#000000;stroke-width:0" />
<path
   id="path3445"
   d="m 165.71,653.29 v -0.01 -0.01 l -0.01,-0.02 v -0.01 -0.01 l -0.01,-0.02 v -0.03 l -0.01,-0.02 -0.01,-0.03 -0.01,-0.03 v -0.02 -0.01 -0.01 l -0.01,-0.02 v -0.01 -0.01 l -0.01,-0.01 v -0.02 -0.01 -0.01 l -0.01,-0.01 v 0 -0.01 -0.01 -0.01 0 0 -0.01 0 c 0,-0.11 0.09,-0.17 0.18,-0.17 0.08,0 0.18,0.04 0.24,0.16 0,0.03 0.06,0.26 0.09,0.39 0.17,0.67 0.17,0.68 0.18,0.7 0.07,0.14 0.42,0.83 1.03,0.83 0.24,0 0.35,-0.13 0.35,-0.36 0,-0.28 -0.21,-0.79 -0.32,-1.07 -0.03,-0.06 -0.05,-0.13 -0.05,-0.21 0,-0.26 0.24,-0.44 0.54,-0.44 0.53,0 0.8,0.65 0.8,0.77 0,0.07 -0.08,0.07 -0.1,0.07 -0.09,0 -0.09,-0.02 -0.12,-0.12 -0.1,-0.29 -0.32,-0.55 -0.56,-0.55 -0.12,0 -0.15,0.08 -0.15,0.19 0,0.1 0.02,0.15 0.06,0.26 0.09,0.2 0.32,0.77 0.32,1.04 0,0.37 -0.27,0.59 -0.74,0.59 -0.45,0 -0.76,-0.27 -0.94,-0.49 -0.02,0.4 -0.42,0.49 -0.6,0.49 -0.5,0 -0.64,-0.76 -0.64,-0.77 0,-0.07 0.07,-0.07 0.1,-0.07 0.08,0 0.09,0.03 0.11,0.09 0.08,0.29 0.19,0.58 0.4,0.58 0.17,0 0.2,-0.16 0.2,-0.26 0,-0.07 -0.05,-0.26 -0.08,-0.39 -0.03,-0.13 -0.08,-0.34 -0.1,-0.45 z"
   inkscape:connector-curvature="0"
   style="fill:#000000;stroke-width:0" />
<path
   id="path3447"
   d="m 170.69,654.72 h 0.59 c 0.1,0 0.11,0.01 0.13,0.03 0.02,0.02 0.04,0.08 0.04,0.11 0,0.09 -0.07,0.09 -0.16,0.09 h -0.55 l 0.11,0.41 c 0.03,0.13 0.09,0.35 0.09,0.38 0,0.08 -0.07,0.17 -0.18,0.17 -0.09,0 -0.21,-0.05 -0.25,-0.19 -0.02,-0.08 0.04,0.15 -0.2,-0.77 h -0.59 c -0.1,0 -0.17,0 -0.17,-0.14 0,-0.09 0.07,-0.09 0.16,-0.09 h 0.55 l -0.3,-1.17 c -0.02,-0.1 -0.06,-0.26 -0.06,-0.32 0,-0.28 0.26,-0.48 0.61,-0.48 0.6,0 0.97,0.67 0.97,0.77 0,0.07 -0.08,0.07 -0.1,0.07 -0.08,0 -0.09,-0.02 -0.12,-0.09 -0.16,-0.35 -0.47,-0.58 -0.73,-0.58 -0.16,0 -0.21,0.11 -0.21,0.26 0,0.08 0.01,0.1 0.02,0.14 z"
   inkscape:connector-curvature="0"
   style="fill:#000000;stroke-width:0" />
</g>    <text
       xml:space="preserve"
       style="font-style:normal;font-weight:normal;font-size:10.58333302px;line-height:1.25;font-family:sans-serif;letter-spacing:0px;word-spacing:0px;fill:#000000;fill-opacity:1;stroke:none;stroke-width:0.26458332"
       x="-15.680125"
       y="162.02797"
       id="text3508"
       inkscape:transform-center-x="7.9937888"
       inkscape:transform-center-y="-6.4565266"><tspan
         sodipodi:role="line"
         id="tspan3506"
         x="-15.680125"
         y="162.02797"
         style="stroke-width:0.26458332">Counter </tspan><tspan
         sodipodi:role="line"
         x="-15.680125"
         y="175.25714"
         style="stroke-width:0.26458332"
         id="tspan3510">AutoLoad</tspan><tspan
         sodipodi:role="line"
         x="-15.680125"
         y="188.4863"
         style="stroke-width:0.26458332"
         id="tspan3512">Value</tspan></text>
  </g>
</svg>
