<?xml version="1.0" encoding="UTF-8" standalone="no"?>
<!-- Created with Inkscape (http://www.inkscape.org/) -->

<svg
   xmlns:ns0="http://www.iki.fi/pav/software/textext/"
   xmlns:dc="http://purl.org/dc/elements/1.1/"
   xmlns:cc="http://creativecommons.org/ns#"
   xmlns:rdf="http://www.w3.org/1999/02/22-rdf-syntax-ns#"
   xmlns:svg="http://www.w3.org/2000/svg"
   xmlns="http://www.w3.org/2000/svg"
   xmlns:sodipodi="http://sodipodi.sourceforge.net/DTD/sodipodi-0.dtd"
   xmlns:inkscape="http://www.inkscape.org/namespaces/inkscape"
   width="111.62193mm"
   height="54.768684mm"
   viewBox="0 0 111.62193 54.768685"
   version="1.1"
   id="svg34379"
   inkscape:version="0.92.3 (2405546, 2018-03-11)"
   sodipodi:docname="PWM_Anatomy.svg">
  <sodipodi:namedview
     id="base"
     pagecolor="#ffffff"
     bordercolor="#666666"
     borderopacity="1.0"
     inkscape:pageopacity="0.0"
     inkscape:pageshadow="2"
     inkscape:zoom="4.7572976"
     inkscape:cx="210.93909"
     inkscape:cy="95.593983"
     inkscape:document-units="mm"
     inkscape:current-layer="layer1"
     showgrid="false"
     inkscape:window-width="2560"
     inkscape:window-height="1377"
     inkscape:window-x="-8"
     inkscape:window-y="-8"
     inkscape:window-maximized="1"
     fit-margin-top="0"
     fit-margin-left="0"
     fit-margin-right="0"
     fit-margin-bottom="0" />
  <defs
     id="defs34373">
    <marker
       inkscape:stockid="Arrow1Sstart"
       orient="auto"
       refY="0"
       refX="0"
       id="Arrow1Sstart"
       style="overflow:visible"
       inkscape:isstock="true">
      <path
         id="path828"
         d="M 0,0 5,-5 -12.5,0 5,5 Z"
         style="fill:#000000;fill-opacity:1;fill-rule:evenodd;stroke:#000000;stroke-width:1.00000003pt;stroke-opacity:1"
         transform="matrix(0.2,0,0,0.2,1.2,0)"
         inkscape:connector-curvature="0" />
    </marker>
    <marker
       inkscape:stockid="Arrow1Send"
       orient="auto"
       refY="0"
       refX="0"
       id="Arrow1Send"
       style="overflow:visible"
       inkscape:isstock="true">
      <path
         id="path831"
         d="M 0,0 5,-5 -12.5,0 5,5 Z"
         style="fill:#000000;fill-opacity:1;fill-rule:evenodd;stroke:#000000;stroke-width:1.00000003pt;stroke-opacity:1"
         transform="matrix(-0.2,0,0,-0.2,-1.2,0)"
         inkscape:connector-curvature="0" />
    </marker>
    <marker
       inkscape:stockid="Arrow1Mend"
       orient="auto"
       refY="0"
       refX="0"
       id="marker2733"
       style="overflow:visible"
       inkscape:isstock="true">
      <path
         id="path2731"
         d="M 0,0 5,-5 -12.5,0 5,5 Z"
         style="fill:#000000;fill-opacity:1;fill-rule:evenodd;stroke:#000000;stroke-width:1.00000003pt;stroke-opacity:1"
         transform="matrix(-0.4,0,0,-0.4,-4,0)"
         inkscape:connector-curvature="0" />
    </marker>
    <marker
       inkscape:stockid="Arrow1Mstart"
       orient="auto"
       refY="0"
       refX="0"
       id="marker2687"
       style="overflow:visible"
       inkscape:isstock="true">
      <path
         id="path2685"
         d="M 0,0 5,-5 -12.5,0 5,5 Z"
         style="fill:#000000;fill-opacity:1;fill-rule:evenodd;stroke:#000000;stroke-width:1.00000003pt;stroke-opacity:1"
         transform="matrix(0.4,0,0,0.4,4,0)"
         inkscape:connector-curvature="0" />
    </marker>
    <marker
       inkscape:stockid="Arrow1Mend"
       orient="auto"
       refY="0"
       refX="0"
       id="marker2170"
       style="overflow:visible"
       inkscape:isstock="true">
      <path
         id="path2168"
         d="M 0,0 5,-5 -12.5,0 5,5 Z"
         style="fill:#000000;fill-opacity:1;fill-rule:evenodd;stroke:#000000;stroke-width:1.00000003pt;stroke-opacity:1"
         transform="matrix(-0.4,0,0,-0.4,-4,0)"
         inkscape:connector-curvature="0" />
    </marker>
    <marker
       inkscape:collect="always"
       inkscape:isstock="true"
       style="overflow:visible"
       id="marker1772"
       refX="0"
       refY="0"
       orient="auto"
       inkscape:stockid="Arrow1Mend">
      <path
         inkscape:connector-curvature="0"
         transform="matrix(-0.4,0,0,-0.4,-4,0)"
         style="fill:#000000;fill-opacity:1;fill-rule:evenodd;stroke:#000000;stroke-width:1.00000003pt;stroke-opacity:1"
         d="M 0,0 5,-5 -12.5,0 5,5 Z"
         id="path1770" />
    </marker>
    <marker
       inkscape:collect="always"
       inkscape:isstock="true"
       style="overflow:visible"
       id="marker1732"
       refX="0"
       refY="0"
       orient="auto"
       inkscape:stockid="Arrow1Mstart">
      <path
         inkscape:connector-curvature="0"
         transform="matrix(0.4,0,0,0.4,4,0)"
         style="fill:#000000;fill-opacity:1;fill-rule:evenodd;stroke:#000000;stroke-width:1.00000003pt;stroke-opacity:1"
         d="M 0,0 5,-5 -12.5,0 5,5 Z"
         id="path1730" />
    </marker>
  </defs>
  <metadata
     id="metadata34376">
    <rdf:RDF>
      <cc:Work
         rdf:about="">
        <dc:format>image/svg+xml</dc:format>
        <dc:type
           rdf:resource="http://purl.org/dc/dcmitype/StillImage" />
        <dc:title></dc:title>
      </cc:Work>
    </rdf:RDF>
  </metadata>
  <g
     transform="translate(-13.546711,-173.90146)"
     id="layer1"
     inkscape:groupmode="layer"
     inkscape:label="Layer 1">
    <path
       sodipodi:nodetypes="ccc"
       inkscape:connector-curvature="0"
       id="path814"
       d="m 29.205297,179.87033 v 28.81841 H 123.3833"
       style="fill:none;stroke:#000000;stroke-width:1;stroke-linecap:butt;stroke-linejoin:round;stroke-miterlimit:4;stroke-dasharray:none;stroke-opacity:1;marker-start:url(#Arrow1Sstart);marker-end:url(#Arrow1Send)" />
    <path
       sodipodi:nodetypes="ccccccccccccc"
       inkscape:connector-curvature="0"
       id="path1130"
       d="m 38.067269,208.56196 v -9.56276 h 12.01092 v 9.56276 h 12.01094 v -9.44094 h 12.01092 v 9.44094 H 86.11099 v -9.31913 h 12.010919 v 9.38004 h 12.010941"
       style="fill:none;stroke:#800000;stroke-width:0.75;stroke-linecap:butt;stroke-linejoin:miter;stroke-miterlimit:4;stroke-dasharray:none;stroke-opacity:1" />
    <path
       sodipodi:nodetypes="cc"
       inkscape:connector-curvature="0"
       id="path2541"
       d="m 38.067269,197.47809 v -8.28158"
       style="fill:none;stroke:#000000;stroke-width:0.26458332px;stroke-linecap:butt;stroke-linejoin:miter;stroke-opacity:1" />
    <path
       sodipodi:nodetypes="cc"
       style="fill:none;stroke:#000000;stroke-width:0.26458332px;stroke-linecap:butt;stroke-linejoin:miter;stroke-opacity:1"
       d="m 50.078189,197.47809 v -8.28158"
       id="path2543"
       inkscape:connector-curvature="0" />
    <path
       sodipodi:nodetypes="cc"
       inkscape:connector-curvature="0"
       id="path2545"
       d="M 38.530828,193.2892 H 49.569734"
       style="fill:none;stroke:#000000;stroke-width:0.26499999;stroke-linecap:butt;stroke-linejoin:miter;stroke-miterlimit:4;stroke-dasharray:none;stroke-opacity:1;marker-start:url(#marker1732);marker-end:url(#marker1772)" />
    <text
       id="text2663"
       y="186.69791"
       x="44.966499"
       style="font-style:normal;font-weight:normal;font-size:3.87145567px;line-height:1.25;font-family:sans-serif;letter-spacing:0px;word-spacing:0px;fill:#000000;fill-opacity:1;stroke:none;stroke-width:0.09678639"
       xml:space="preserve"><tspan
         style="stroke-width:0.09678639"
         y="186.69791"
         x="44.966499"
         id="tspan2661"
         sodipodi:role="line">Pulse Width</tspan></text>
    <path
       inkscape:connector-curvature="0"
       id="path2665"
       d="m 44.745645,191.33348 3.846233,-3.84623"
       style="fill:none;stroke:#000000;stroke-width:0.26458332px;stroke-linecap:butt;stroke-linejoin:miter;stroke-opacity:1" />
    <path
       style="fill:none;stroke:#000000;stroke-width:0.26458332px;stroke-linecap:butt;stroke-linejoin:miter;stroke-opacity:1"
       d="M 38.067269,218.16518 V 209.8836"
       id="path2679"
       inkscape:connector-curvature="0"
       sodipodi:nodetypes="cc" />
    <path
       inkscape:connector-curvature="0"
       id="path2681"
       d="M 61.899381,218.16518 V 209.8836"
       style="fill:none;stroke:#000000;stroke-width:0.26458332px;stroke-linecap:butt;stroke-linejoin:miter;stroke-opacity:1"
       sodipodi:nodetypes="cc" />
    <path
       style="fill:none;stroke:#000000;stroke-width:0.26499999;stroke-linecap:butt;stroke-linejoin:miter;stroke-miterlimit:4;stroke-dasharray:none;stroke-opacity:1;marker-start:url(#marker2687);marker-end:url(#marker2733)"
       d="M 38.530828,213.97629 H 61.477847"
       id="path2683"
       inkscape:connector-curvature="0"
       sodipodi:nodetypes="cc" />
    <g
       id="g2986"
       transform="translate(-4.7371689,-0.08692053)">
      <text
         id="text2905"
         y="224.50833"
         x="46.270306"
         style="font-style:normal;font-weight:normal;font-size:3.87145567px;line-height:1.25;font-family:sans-serif;letter-spacing:0px;word-spacing:0px;fill:#000000;fill-opacity:1;stroke:none;stroke-width:0.09678639"
         xml:space="preserve"><tspan
           style="stroke-width:0.09678639"
           y="224.50833"
           x="46.270306"
           id="tspan2903"
           sodipodi:role="line">Pulse Period =</tspan></text>
      <g
         style="font-style:normal;font-variant:normal;font-weight:normal;font-stretch:normal;letter-spacing:normal;word-spacing:normal;text-anchor:start;fill:none;fill-opacity:1;fill-rule:evenodd;stroke:#000000;stroke-linecap:butt;stroke-linejoin:miter;stroke-miterlimit:10.43299961;stroke-dasharray:none;stroke-dashoffset:0;stroke-opacity:1"
         id="content"
         transform="matrix(0.7462686,0,0,-0.7462686,-36.569536,715.60777)"
         xml:space="preserve"
         stroke-miterlimit="10.433"
         font-style="normal"
         font-variant="normal"
         font-weight="normal"
         font-stretch="normal"
         font-size-adjust="none"
         letter-spacing="normal"
         word-spacing="normal"
         ns0:version="0.9.0"
         ns0:texconverter="pdflatex"
         ns0:pdfconverter="pstoedit"
         ns0:text="$\\frac{1}{f}$"
         ns0:preamble="C:\\Users\\alsai\\AppData\\Roaming\\inkscape\\extensions\\textext\\default_packages.tex"
         ns0:scale="7.03301703135"
         ns0:alignment="middle center"
         inkscapeversion="0.92.3"
         ns0:jacobian_sqrt="2.481092">
<path
   style="fill:#000000;stroke-width:0"
   inkscape:connector-curvature="0"
   d="m 152.6,665.58 v 0.01 0.01 0.01 0 0.01 0.01 0.01 0 0.01 0.01 0 0.01 h -0.01 v 0.01 0.01 0 0.01 0 0.01 0.01 h -0.01 v 0.01 0.01 h -0.01 v 0.01 h -0.01 l -0.01,0.01 v 0 h -0.01 l -0.01,0.01 h -0.01 -0.01 v 0 h -0.01 v 0 h -0.01 v 0 h -0.01 -0.01 v 0 h -0.01 -0.01 v 0 h -0.01 -0.01 -0.01 v 0 h -0.01 l -0.01,0.01 h -0.01 c -0.45,-0.44 -1.09,-0.45 -1.37,-0.45 v -0.25 c 0.17,0 0.63,0 1.01,0.2 v -3.55 c 0,-0.23 0,-0.32 -0.7,-0.32 h -0.26 v -0.25 c 0.12,0 0.98,0.03 1.24,0.03 0.22,0 1.1,-0.03 1.25,-0.03 v 0.25 h -0.26 c -0.7,0 -0.7,0.09 -0.7,0.32 z"
   id="path2937" />
<line
   style="stroke-width:0.398"
   x1="149.91"
   y1="659.72998"
   x2="154.57001"
   y2="659.72998"
   id="line2939" />
<path
   style="fill:#000000;stroke-width:0"
   inkscape:connector-curvature="0"
   d="m 152.75,656.55 h 0.69 c 0.14,0 0.23,0 0.23,0.15 0,0.1 -0.09,0.1 -0.22,0.1 h -0.65 c 0.16,0.88 0.22,1.2 0.27,1.4 0.04,0.15 0.19,0.3 0.36,0.3 0.01,0 0.2,0 0.33,-0.08 -0.29,-0.09 -0.31,-0.34 -0.31,-0.39 0,-0.15 0.12,-0.25 0.28,-0.25 0.19,0 0.4,0.16 0.4,0.42 0,0.32 -0.34,0.5 -0.7,0.5 -0.31,0 -0.65,-0.18 -0.84,-0.53 -0.14,-0.25 -0.19,-0.57 -0.34,-1.37 h -0.55 c -0.14,0 -0.23,0 -0.23,-0.16 0,-0.09 0.09,-0.09 0.21,-0.09 h 0.52 c -0.01,-0.04 -0.45,-2.55 -0.61,-3.29 -0.04,-0.16 -0.16,-0.68 -0.49,-0.68 -0.01,0 -0.18,0 -0.31,0.08 0.29,0.09 0.31,0.34 0.31,0.38 0,0.16 -0.12,0.26 -0.28,0.26 -0.19,0 -0.4,-0.16 -0.4,-0.42 0,-0.32 0.33,-0.5 0.68,-0.5 0.44,0 0.75,0.46 0.84,0.61 0.25,0.47 0.41,1.33 0.42,1.41 z"
   id="path2941" />
</g>    </g>
    <path
       style="fill:none;stroke:#000000;stroke-width:0.26458332px;stroke-linecap:butt;stroke-linejoin:miter;stroke-opacity:1"
       d="M 55.871473,219.9738 50.54759,214.64992"
       id="path2988"
       inkscape:connector-curvature="0" />
    <path
       style="fill:none;stroke:#000000;stroke-width:0.26458332px;stroke-linecap:butt;stroke-linejoin:miter;stroke-opacity:1"
       d="M 30.767265,199.14013 H 23.71339"
       id="path3162"
       inkscape:connector-curvature="0" />
    <path
       inkscape:connector-curvature="0"
       id="path3164"
       d="M 30.767265,208.65466 H 23.71339"
       style="fill:none;stroke:#000000;stroke-width:0.26458332px;stroke-linecap:butt;stroke-linejoin:miter;stroke-opacity:1" />
    <text
       xml:space="preserve"
       style="font-style:normal;font-weight:normal;font-size:4.0421052px;line-height:1.25;font-family:sans-serif;letter-spacing:0px;word-spacing:0px;fill:#000000;fill-opacity:1;stroke:none;stroke-width:0.10105263"
       x="15.452305"
       y="200.57895"
       id="text3168"><tspan
         sodipodi:role="line"
         id="tspan3166"
         x="15.452305"
         y="200.57895"
         style="stroke-width:0.10105263">5V</tspan></text>
    <text
       id="text3172"
       y="210.09348"
       x="13.319737"
       style="font-style:normal;font-weight:normal;font-size:4.0421052px;line-height:1.25;font-family:sans-serif;letter-spacing:0px;word-spacing:0px;fill:#000000;fill-opacity:1;stroke:none;stroke-width:0.10105263"
       xml:space="preserve"><tspan
         style="stroke-width:0.10105263"
         y="210.09348"
         x="13.319737"
         id="tspan3170"
         sodipodi:role="line">GND</tspan></text>
    <text
       xml:space="preserve"
       style="font-style:normal;font-weight:normal;font-size:3.64227653px;line-height:1.25;font-family:sans-serif;letter-spacing:0px;word-spacing:0px;fill:#000000;fill-opacity:1;stroke:none;stroke-width:0.09105691"
       x="37.235729"
       y="176.66873"
       id="text3176"><tspan
         sodipodi:role="line"
         id="tspan3174"
         x="37.235729"
         y="176.66873"
         style="stroke-width:0.09105691">Duty Cyle = Pulse Width x Frequency x 100%</tspan></text>
  </g>
</svg>
