<?xml version="1.0" encoding="utf-8" standalone="no"?>
<!DOCTYPE svg PUBLIC "-//W3C//DTD SVG 1.1//EN"
  "http://www.w3.org/Graphics/SVG/1.1/DTD/svg11.dtd">
<!-- Created with matplotlib (https://matplotlib.org/) -->
<svg height="288pt" version="1.1" viewBox="0 0 576 288" width="576pt" xmlns="http://www.w3.org/2000/svg" xmlns:xlink="http://www.w3.org/1999/xlink">
 <metadata>
  <rdf:RDF xmlns:cc="http://creativecommons.org/ns#" xmlns:dc="http://purl.org/dc/elements/1.1/" xmlns:rdf="http://www.w3.org/1999/02/22-rdf-syntax-ns#">
   <cc:Work>
    <dc:type rdf:resource="http://purl.org/dc/dcmitype/StillImage"/>
    <dc:date>2021-05-30T22:43:07.017155</dc:date>
    <dc:format>image/svg+xml</dc:format>
    <dc:creator>
     <cc:Agent>
      <dc:title>Matplotlib v3.3.1, https://matplotlib.org/</dc:title>
     </cc:Agent>
    </dc:creator>
   </cc:Work>
  </rdf:RDF>
 </metadata>
 <defs>
  <style type="text/css">*{stroke-linecap:butt;stroke-linejoin:round;}</style>
 </defs>
 <g id="figure_1">
  <g id="patch_1">
   <path d="M 0 288 
L 576 288 
L 576 0 
L 0 0 
z
" style="fill:none;"/>
  </g>
  <g id="axes_1">
   <g id="patch_2">
    <path d="M 42.378227 266.305898 
L 565.088535 266.305898 
L 565.088535 2.834646 
L 42.378227 2.834646 
z
" style="fill:none;"/>
   </g>
   <g id="matplotlib.axis_1">
    <g id="xtick_1">
     <g id="line2d_1">
      <path clip-path="url(#pd55addecc3)" d="M 42.378227 266.305898 
L 42.378227 2.834646 
" style="fill:none;stroke:#000000;stroke-linecap:square;stroke-opacity:0.1;stroke-width:0.5;"/>
     </g>
     <g id="line2d_2">
      <defs>
       <path d="M 0 0 
L 0 -2.5 
" id="m1867f43025" style="stroke:#000000;stroke-width:0.5;"/>
      </defs>
      <g>
       <use style="stroke:#000000;stroke-width:0.5;" x="42.378227" xlink:href="#m1867f43025" y="258.913568"/>
      </g>
     </g>
     <g id="text_1">
      <!-- $\mathregular{}$ -->
      <g transform="translate(42.378227 268.492318)scale(0.08 -0.08)"/>
     </g>
    </g>
    <g id="xtick_2">
     <g id="line2d_3">
      <path clip-path="url(#pd55addecc3)" d="M 146.920289 266.305898 
L 146.920289 2.834646 
" style="fill:none;stroke:#000000;stroke-linecap:square;stroke-opacity:0.1;stroke-width:0.5;"/>
     </g>
     <g id="line2d_4">
      <g>
       <use style="stroke:#000000;stroke-width:0.5;" x="146.920289" xlink:href="#m1867f43025" y="258.913568"/>
      </g>
     </g>
     <g id="text_2">
      <!-- $\mathregular{50}$ -->
      <g transform="translate(141.800289 268.492318)scale(0.08 -0.08)">
       <defs>
        <path d="M 10.796875 72.90625 
L 49.515625 72.90625 
L 49.515625 64.59375 
L 19.828125 64.59375 
L 19.828125 46.734375 
Q 21.96875 47.46875 24.109375 47.828125 
Q 26.265625 48.1875 28.421875 48.1875 
Q 40.625 48.1875 47.75 41.5 
Q 54.890625 34.8125 54.890625 23.390625 
Q 54.890625 11.625 47.5625 5.09375 
Q 40.234375 -1.421875 26.90625 -1.421875 
Q 22.3125 -1.421875 17.546875 -0.640625 
Q 12.796875 0.140625 7.71875 1.703125 
L 7.71875 11.625 
Q 12.109375 9.234375 16.796875 8.0625 
Q 21.484375 6.890625 26.703125 6.890625 
Q 35.15625 6.890625 40.078125 11.328125 
Q 45.015625 15.765625 45.015625 23.390625 
Q 45.015625 31 40.078125 35.4375 
Q 35.15625 39.890625 26.703125 39.890625 
Q 22.75 39.890625 18.8125 39.015625 
Q 14.890625 38.140625 10.796875 36.28125 
z
" id="DejaVuSans-53"/>
        <path d="M 31.78125 66.40625 
Q 24.171875 66.40625 20.328125 58.90625 
Q 16.5 51.421875 16.5 36.375 
Q 16.5 21.390625 20.328125 13.890625 
Q 24.171875 6.390625 31.78125 6.390625 
Q 39.453125 6.390625 43.28125 13.890625 
Q 47.125 21.390625 47.125 36.375 
Q 47.125 51.421875 43.28125 58.90625 
Q 39.453125 66.40625 31.78125 66.40625 
z
M 31.78125 74.21875 
Q 44.046875 74.21875 50.515625 64.515625 
Q 56.984375 54.828125 56.984375 36.375 
Q 56.984375 17.96875 50.515625 8.265625 
Q 44.046875 -1.421875 31.78125 -1.421875 
Q 19.53125 -1.421875 13.0625 8.265625 
Q 6.59375 17.96875 6.59375 36.375 
Q 6.59375 54.828125 13.0625 64.515625 
Q 19.53125 74.21875 31.78125 74.21875 
z
" id="DejaVuSans-48"/>
       </defs>
       <use transform="translate(0 0.78125)" xlink:href="#DejaVuSans-53"/>
       <use transform="translate(63.623047 0.78125)" xlink:href="#DejaVuSans-48"/>
      </g>
     </g>
    </g>
    <g id="xtick_3">
     <g id="line2d_5">
      <path clip-path="url(#pd55addecc3)" d="M 251.462351 266.305898 
L 251.462351 2.834646 
" style="fill:none;stroke:#000000;stroke-linecap:square;stroke-opacity:0.1;stroke-width:0.5;"/>
     </g>
     <g id="line2d_6">
      <g>
       <use style="stroke:#000000;stroke-width:0.5;" x="251.462351" xlink:href="#m1867f43025" y="258.913568"/>
      </g>
     </g>
     <g id="text_3">
      <!-- $\mathregular{100}$ -->
      <g transform="translate(243.822351 268.492318)scale(0.08 -0.08)">
       <defs>
        <path d="M 12.40625 8.296875 
L 28.515625 8.296875 
L 28.515625 63.921875 
L 10.984375 60.40625 
L 10.984375 69.390625 
L 28.421875 72.90625 
L 38.28125 72.90625 
L 38.28125 8.296875 
L 54.390625 8.296875 
L 54.390625 0 
L 12.40625 0 
z
" id="DejaVuSans-49"/>
       </defs>
       <use transform="translate(0 0.78125)" xlink:href="#DejaVuSans-49"/>
       <use transform="translate(63.623047 0.78125)" xlink:href="#DejaVuSans-48"/>
       <use transform="translate(127.246094 0.78125)" xlink:href="#DejaVuSans-48"/>
      </g>
     </g>
    </g>
    <g id="xtick_4">
     <g id="line2d_7">
      <path clip-path="url(#pd55addecc3)" d="M 356.004412 266.305898 
L 356.004412 2.834646 
" style="fill:none;stroke:#000000;stroke-linecap:square;stroke-opacity:0.1;stroke-width:0.5;"/>
     </g>
     <g id="line2d_8">
      <g>
       <use style="stroke:#000000;stroke-width:0.5;" x="356.004412" xlink:href="#m1867f43025" y="258.913568"/>
      </g>
     </g>
     <g id="text_4">
      <!-- $\mathregular{150}$ -->
      <g transform="translate(348.364412 268.492318)scale(0.08 -0.08)">
       <use transform="translate(0 0.78125)" xlink:href="#DejaVuSans-49"/>
       <use transform="translate(63.623047 0.78125)" xlink:href="#DejaVuSans-53"/>
       <use transform="translate(127.246094 0.78125)" xlink:href="#DejaVuSans-48"/>
      </g>
     </g>
    </g>
    <g id="xtick_5">
     <g id="line2d_9">
      <path clip-path="url(#pd55addecc3)" d="M 460.546474 266.305898 
L 460.546474 2.834646 
" style="fill:none;stroke:#000000;stroke-linecap:square;stroke-opacity:0.1;stroke-width:0.5;"/>
     </g>
     <g id="line2d_10">
      <g>
       <use style="stroke:#000000;stroke-width:0.5;" x="460.546474" xlink:href="#m1867f43025" y="258.913568"/>
      </g>
     </g>
     <g id="text_5">
      <!-- $\mathregular{200}$ -->
      <g transform="translate(452.906474 268.492318)scale(0.08 -0.08)">
       <defs>
        <path d="M 19.1875 8.296875 
L 53.609375 8.296875 
L 53.609375 0 
L 7.328125 0 
L 7.328125 8.296875 
Q 12.9375 14.109375 22.625 23.890625 
Q 32.328125 33.6875 34.8125 36.53125 
Q 39.546875 41.84375 41.421875 45.53125 
Q 43.3125 49.21875 43.3125 52.78125 
Q 43.3125 58.59375 39.234375 62.25 
Q 35.15625 65.921875 28.609375 65.921875 
Q 23.96875 65.921875 18.8125 64.3125 
Q 13.671875 62.703125 7.8125 59.421875 
L 7.8125 69.390625 
Q 13.765625 71.78125 18.9375 73 
Q 24.125 74.21875 28.421875 74.21875 
Q 39.75 74.21875 46.484375 68.546875 
Q 53.21875 62.890625 53.21875 53.421875 
Q 53.21875 48.921875 51.53125 44.890625 
Q 49.859375 40.875 45.40625 35.40625 
Q 44.1875 33.984375 37.640625 27.21875 
Q 31.109375 20.453125 19.1875 8.296875 
z
" id="DejaVuSans-50"/>
       </defs>
       <use transform="translate(0 0.78125)" xlink:href="#DejaVuSans-50"/>
       <use transform="translate(63.623047 0.78125)" xlink:href="#DejaVuSans-48"/>
       <use transform="translate(127.246094 0.78125)" xlink:href="#DejaVuSans-48"/>
      </g>
     </g>
    </g>
    <g id="xtick_6">
     <g id="line2d_11">
      <path clip-path="url(#pd55addecc3)" d="M 565.088535 266.305898 
L 565.088535 2.834646 
" style="fill:none;stroke:#000000;stroke-linecap:square;stroke-opacity:0.1;stroke-width:0.5;"/>
     </g>
     <g id="line2d_12">
      <g>
       <use style="stroke:#000000;stroke-width:0.5;" x="565.088535" xlink:href="#m1867f43025" y="258.913568"/>
      </g>
     </g>
     <g id="text_6">
      <!-- $\mathregular{250}$ -->
      <g transform="translate(557.448535 268.492318)scale(0.08 -0.08)">
       <use transform="translate(0 0.78125)" xlink:href="#DejaVuSans-50"/>
       <use transform="translate(63.623047 0.78125)" xlink:href="#DejaVuSans-53"/>
       <use transform="translate(127.246094 0.78125)" xlink:href="#DejaVuSans-48"/>
      </g>
     </g>
    </g>
    <g id="xtick_7">
     <g id="line2d_13">
      <path clip-path="url(#pd55addecc3)" d="M 63.28664 266.305898 
L 63.28664 2.834646 
" style="fill:none;stroke:#000000;stroke-linecap:square;stroke-opacity:0.05;stroke-width:0.5;"/>
     </g>
     <g id="line2d_14">
      <defs>
       <path d="M 0 0 
L 0 -2 
" id="me0dcda5327" style="stroke:#000000;stroke-width:0.5;"/>
      </defs>
      <g>
       <use style="stroke:#000000;stroke-width:0.5;" x="63.28664" xlink:href="#me0dcda5327" y="258.913568"/>
      </g>
     </g>
    </g>
    <g id="xtick_8">
     <g id="line2d_15">
      <path clip-path="url(#pd55addecc3)" d="M 84.195052 266.305898 
L 84.195052 2.834646 
" style="fill:none;stroke:#000000;stroke-linecap:square;stroke-opacity:0.05;stroke-width:0.5;"/>
     </g>
     <g id="line2d_16">
      <g>
       <use style="stroke:#000000;stroke-width:0.5;" x="84.195052" xlink:href="#me0dcda5327" y="258.913568"/>
      </g>
     </g>
    </g>
    <g id="xtick_9">
     <g id="line2d_17">
      <path clip-path="url(#pd55addecc3)" d="M 105.103464 266.305898 
L 105.103464 2.834646 
" style="fill:none;stroke:#000000;stroke-linecap:square;stroke-opacity:0.05;stroke-width:0.5;"/>
     </g>
     <g id="line2d_18">
      <g>
       <use style="stroke:#000000;stroke-width:0.5;" x="105.103464" xlink:href="#me0dcda5327" y="258.913568"/>
      </g>
     </g>
    </g>
    <g id="xtick_10">
     <g id="line2d_19">
      <path clip-path="url(#pd55addecc3)" d="M 126.011877 266.305898 
L 126.011877 2.834646 
" style="fill:none;stroke:#000000;stroke-linecap:square;stroke-opacity:0.05;stroke-width:0.5;"/>
     </g>
     <g id="line2d_20">
      <g>
       <use style="stroke:#000000;stroke-width:0.5;" x="126.011877" xlink:href="#me0dcda5327" y="258.913568"/>
      </g>
     </g>
    </g>
    <g id="xtick_11">
     <g id="line2d_21">
      <path clip-path="url(#pd55addecc3)" d="M 167.828701 266.305898 
L 167.828701 2.834646 
" style="fill:none;stroke:#000000;stroke-linecap:square;stroke-opacity:0.05;stroke-width:0.5;"/>
     </g>
     <g id="line2d_22">
      <g>
       <use style="stroke:#000000;stroke-width:0.5;" x="167.828701" xlink:href="#me0dcda5327" y="258.913568"/>
      </g>
     </g>
    </g>
    <g id="xtick_12">
     <g id="line2d_23">
      <path clip-path="url(#pd55addecc3)" d="M 188.737114 266.305898 
L 188.737114 2.834646 
" style="fill:none;stroke:#000000;stroke-linecap:square;stroke-opacity:0.05;stroke-width:0.5;"/>
     </g>
     <g id="line2d_24">
      <g>
       <use style="stroke:#000000;stroke-width:0.5;" x="188.737114" xlink:href="#me0dcda5327" y="258.913568"/>
      </g>
     </g>
    </g>
    <g id="xtick_13">
     <g id="line2d_25">
      <path clip-path="url(#pd55addecc3)" d="M 209.645526 266.305898 
L 209.645526 2.834646 
" style="fill:none;stroke:#000000;stroke-linecap:square;stroke-opacity:0.05;stroke-width:0.5;"/>
     </g>
     <g id="line2d_26">
      <g>
       <use style="stroke:#000000;stroke-width:0.5;" x="209.645526" xlink:href="#me0dcda5327" y="258.913568"/>
      </g>
     </g>
    </g>
    <g id="xtick_14">
     <g id="line2d_27">
      <path clip-path="url(#pd55addecc3)" d="M 230.553938 266.305898 
L 230.553938 2.834646 
" style="fill:none;stroke:#000000;stroke-linecap:square;stroke-opacity:0.05;stroke-width:0.5;"/>
     </g>
     <g id="line2d_28">
      <g>
       <use style="stroke:#000000;stroke-width:0.5;" x="230.553938" xlink:href="#me0dcda5327" y="258.913568"/>
      </g>
     </g>
    </g>
    <g id="xtick_15">
     <g id="line2d_29">
      <path clip-path="url(#pd55addecc3)" d="M 272.370763 266.305898 
L 272.370763 2.834646 
" style="fill:none;stroke:#000000;stroke-linecap:square;stroke-opacity:0.05;stroke-width:0.5;"/>
     </g>
     <g id="line2d_30">
      <g>
       <use style="stroke:#000000;stroke-width:0.5;" x="272.370763" xlink:href="#me0dcda5327" y="258.913568"/>
      </g>
     </g>
    </g>
    <g id="xtick_16">
     <g id="line2d_31">
      <path clip-path="url(#pd55addecc3)" d="M 293.279175 266.305898 
L 293.279175 2.834646 
" style="fill:none;stroke:#000000;stroke-linecap:square;stroke-opacity:0.05;stroke-width:0.5;"/>
     </g>
     <g id="line2d_32">
      <g>
       <use style="stroke:#000000;stroke-width:0.5;" x="293.279175" xlink:href="#me0dcda5327" y="258.913568"/>
      </g>
     </g>
    </g>
    <g id="xtick_17">
     <g id="line2d_33">
      <path clip-path="url(#pd55addecc3)" d="M 314.187588 266.305898 
L 314.187588 2.834646 
" style="fill:none;stroke:#000000;stroke-linecap:square;stroke-opacity:0.05;stroke-width:0.5;"/>
     </g>
     <g id="line2d_34">
      <g>
       <use style="stroke:#000000;stroke-width:0.5;" x="314.187588" xlink:href="#me0dcda5327" y="258.913568"/>
      </g>
     </g>
    </g>
    <g id="xtick_18">
     <g id="line2d_35">
      <path clip-path="url(#pd55addecc3)" d="M 335.096 266.305898 
L 335.096 2.834646 
" style="fill:none;stroke:#000000;stroke-linecap:square;stroke-opacity:0.05;stroke-width:0.5;"/>
     </g>
     <g id="line2d_36">
      <g>
       <use style="stroke:#000000;stroke-width:0.5;" x="335.096" xlink:href="#me0dcda5327" y="258.913568"/>
      </g>
     </g>
    </g>
    <g id="xtick_19">
     <g id="line2d_37">
      <path clip-path="url(#pd55addecc3)" d="M 376.912825 266.305898 
L 376.912825 2.834646 
" style="fill:none;stroke:#000000;stroke-linecap:square;stroke-opacity:0.05;stroke-width:0.5;"/>
     </g>
     <g id="line2d_38">
      <g>
       <use style="stroke:#000000;stroke-width:0.5;" x="376.912825" xlink:href="#me0dcda5327" y="258.913568"/>
      </g>
     </g>
    </g>
    <g id="xtick_20">
     <g id="line2d_39">
      <path clip-path="url(#pd55addecc3)" d="M 397.821237 266.305898 
L 397.821237 2.834646 
" style="fill:none;stroke:#000000;stroke-linecap:square;stroke-opacity:0.05;stroke-width:0.5;"/>
     </g>
     <g id="line2d_40">
      <g>
       <use style="stroke:#000000;stroke-width:0.5;" x="397.821237" xlink:href="#me0dcda5327" y="258.913568"/>
      </g>
     </g>
    </g>
    <g id="xtick_21">
     <g id="line2d_41">
      <path clip-path="url(#pd55addecc3)" d="M 418.729649 266.305898 
L 418.729649 2.834646 
" style="fill:none;stroke:#000000;stroke-linecap:square;stroke-opacity:0.05;stroke-width:0.5;"/>
     </g>
     <g id="line2d_42">
      <g>
       <use style="stroke:#000000;stroke-width:0.5;" x="418.729649" xlink:href="#me0dcda5327" y="258.913568"/>
      </g>
     </g>
    </g>
    <g id="xtick_22">
     <g id="line2d_43">
      <path clip-path="url(#pd55addecc3)" d="M 439.638061 266.305898 
L 439.638061 2.834646 
" style="fill:none;stroke:#000000;stroke-linecap:square;stroke-opacity:0.05;stroke-width:0.5;"/>
     </g>
     <g id="line2d_44">
      <g>
       <use style="stroke:#000000;stroke-width:0.5;" x="439.638061" xlink:href="#me0dcda5327" y="258.913568"/>
      </g>
     </g>
    </g>
    <g id="xtick_23">
     <g id="line2d_45">
      <path clip-path="url(#pd55addecc3)" d="M 481.454886 266.305898 
L 481.454886 2.834646 
" style="fill:none;stroke:#000000;stroke-linecap:square;stroke-opacity:0.05;stroke-width:0.5;"/>
     </g>
     <g id="line2d_46">
      <g>
       <use style="stroke:#000000;stroke-width:0.5;" x="481.454886" xlink:href="#me0dcda5327" y="258.913568"/>
      </g>
     </g>
    </g>
    <g id="xtick_24">
     <g id="line2d_47">
      <path clip-path="url(#pd55addecc3)" d="M 502.363298 266.305898 
L 502.363298 2.834646 
" style="fill:none;stroke:#000000;stroke-linecap:square;stroke-opacity:0.05;stroke-width:0.5;"/>
     </g>
     <g id="line2d_48">
      <g>
       <use style="stroke:#000000;stroke-width:0.5;" x="502.363298" xlink:href="#me0dcda5327" y="258.913568"/>
      </g>
     </g>
    </g>
    <g id="xtick_25">
     <g id="line2d_49">
      <path clip-path="url(#pd55addecc3)" d="M 523.271711 266.305898 
L 523.271711 2.834646 
" style="fill:none;stroke:#000000;stroke-linecap:square;stroke-opacity:0.05;stroke-width:0.5;"/>
     </g>
     <g id="line2d_50">
      <g>
       <use style="stroke:#000000;stroke-width:0.5;" x="523.271711" xlink:href="#me0dcda5327" y="258.913568"/>
      </g>
     </g>
    </g>
    <g id="xtick_26">
     <g id="line2d_51">
      <path clip-path="url(#pd55addecc3)" d="M 544.180123 266.305898 
L 544.180123 2.834646 
" style="fill:none;stroke:#000000;stroke-linecap:square;stroke-opacity:0.05;stroke-width:0.5;"/>
     </g>
     <g id="line2d_52">
      <g>
       <use style="stroke:#000000;stroke-width:0.5;" x="544.180123" xlink:href="#me0dcda5327" y="258.913568"/>
      </g>
     </g>
    </g>
    <g id="text_7">
     <!-- Time (s) -->
     <g transform="translate(514.459317 282.51435)scale(0.11 -0.11)">
      <defs>
       <path d="M 0.484375 72.90625 
L 67.671875 72.90625 
L 67.671875 58.6875 
L 43.5 58.6875 
L 43.5 0 
L 24.703125 0 
L 24.703125 58.6875 
L 0.484375 58.6875 
z
" id="DejaVuSans-Bold-84"/>
       <path d="M 8.40625 54.6875 
L 25.875 54.6875 
L 25.875 0 
L 8.40625 0 
z
M 8.40625 75.984375 
L 25.875 75.984375 
L 25.875 61.71875 
L 8.40625 61.71875 
z
" id="DejaVuSans-Bold-105"/>
       <path d="M 59.078125 45.609375 
Q 62.40625 50.6875 66.96875 53.34375 
Q 71.53125 56 77 56 
Q 86.421875 56 91.359375 50.1875 
Q 96.296875 44.390625 96.296875 33.296875 
L 96.296875 0 
L 78.71875 0 
L 78.71875 28.515625 
Q 78.765625 29.15625 78.78125 29.828125 
Q 78.8125 30.515625 78.8125 31.78125 
Q 78.8125 37.59375 77.09375 40.203125 
Q 75.390625 42.828125 71.578125 42.828125 
Q 66.609375 42.828125 63.890625 38.71875 
Q 61.1875 34.625 61.078125 26.859375 
L 61.078125 0 
L 43.5 0 
L 43.5 28.515625 
Q 43.5 37.59375 41.9375 40.203125 
Q 40.375 42.828125 36.375 42.828125 
Q 31.34375 42.828125 28.609375 38.703125 
Q 25.875 34.578125 25.875 26.90625 
L 25.875 0 
L 8.296875 0 
L 8.296875 54.6875 
L 25.875 54.6875 
L 25.875 46.6875 
Q 29.109375 51.3125 33.28125 53.65625 
Q 37.453125 56 42.484375 56 
Q 48.140625 56 52.484375 53.265625 
Q 56.84375 50.53125 59.078125 45.609375 
z
" id="DejaVuSans-Bold-109"/>
       <path d="M 62.984375 27.484375 
L 62.984375 22.515625 
L 22.125 22.515625 
Q 22.75 16.359375 26.5625 13.28125 
Q 30.375 10.203125 37.203125 10.203125 
Q 42.71875 10.203125 48.5 11.84375 
Q 54.296875 13.484375 60.40625 16.796875 
L 60.40625 3.328125 
Q 54.203125 0.984375 48 -0.21875 
Q 41.796875 -1.421875 35.59375 -1.421875 
Q 20.75 -1.421875 12.515625 6.125 
Q 4.296875 13.671875 4.296875 27.296875 
Q 4.296875 40.671875 12.375 48.328125 
Q 20.453125 56 34.625 56 
Q 47.515625 56 55.25 48.234375 
Q 62.984375 40.484375 62.984375 27.484375 
z
M 45.015625 33.296875 
Q 45.015625 38.28125 42.109375 41.328125 
Q 39.203125 44.390625 34.515625 44.390625 
Q 29.4375 44.390625 26.265625 41.53125 
Q 23.09375 38.671875 22.3125 33.296875 
z
" id="DejaVuSans-Bold-101"/>
       <path id="DejaVuSans-Bold-32"/>
       <path d="M 37.703125 -13.1875 
L 23.1875 -13.1875 
Q 15.71875 -1.125 12.15625 9.734375 
Q 8.59375 20.609375 8.59375 31.296875 
Q 8.59375 42 12.171875 52.953125 
Q 15.765625 63.921875 23.1875 75.875 
L 37.703125 75.875 
Q 31.453125 64.3125 28.328125 53.25 
Q 25.203125 42.1875 25.203125 31.390625 
Q 25.203125 20.609375 28.296875 9.515625 
Q 31.390625 -1.5625 37.703125 -13.1875 
z
" id="DejaVuSans-Bold-40"/>
       <path d="M 51.125 52.984375 
L 51.125 39.703125 
Q 45.515625 42.046875 40.28125 43.21875 
Q 35.0625 44.390625 30.421875 44.390625 
Q 25.4375 44.390625 23.015625 43.140625 
Q 20.609375 41.890625 20.609375 39.3125 
Q 20.609375 37.203125 22.4375 36.078125 
Q 24.265625 34.96875 29 34.421875 
L 32.078125 33.984375 
Q 45.515625 32.28125 50.140625 28.375 
Q 54.78125 24.46875 54.78125 16.109375 
Q 54.78125 7.375 48.328125 2.96875 
Q 41.890625 -1.421875 29.109375 -1.421875 
Q 23.6875 -1.421875 17.890625 -0.5625 
Q 12.109375 0.296875 6 2 
L 6 15.28125 
Q 11.234375 12.75 16.71875 11.46875 
Q 22.21875 10.203125 27.875 10.203125 
Q 33.015625 10.203125 35.59375 11.609375 
Q 38.1875 13.03125 38.1875 15.828125 
Q 38.1875 18.171875 36.40625 19.3125 
Q 34.625 20.453125 29.296875 21.09375 
L 26.21875 21.484375 
Q 14.546875 22.953125 9.859375 26.90625 
Q 5.171875 30.859375 5.171875 38.921875 
Q 5.171875 47.609375 11.125 51.796875 
Q 17.09375 56 29.390625 56 
Q 34.234375 56 39.546875 55.265625 
Q 44.875 54.546875 51.125 52.984375 
z
" id="DejaVuSans-Bold-115"/>
       <path d="M 8.015625 -13.1875 
Q 14.265625 -1.5625 17.390625 9.515625 
Q 20.515625 20.609375 20.515625 31.390625 
Q 20.515625 42.1875 17.390625 53.25 
Q 14.265625 64.3125 8.015625 75.875 
L 22.515625 75.875 
Q 29.9375 63.921875 33.515625 52.953125 
Q 37.109375 42 37.109375 31.296875 
Q 37.109375 20.609375 33.546875 9.734375 
Q 29.984375 -1.125 22.515625 -13.1875 
z
" id="DejaVuSans-Bold-41"/>
      </defs>
      <use xlink:href="#DejaVuSans-Bold-84"/>
      <use x="68.212891" xlink:href="#DejaVuSans-Bold-105"/>
      <use x="102.490234" xlink:href="#DejaVuSans-Bold-109"/>
      <use x="206.689453" xlink:href="#DejaVuSans-Bold-101"/>
      <use x="274.511719" xlink:href="#DejaVuSans-Bold-32"/>
      <use x="309.326172" xlink:href="#DejaVuSans-Bold-40"/>
      <use x="355.029297" xlink:href="#DejaVuSans-Bold-115"/>
      <use x="414.550781" xlink:href="#DejaVuSans-Bold-41"/>
     </g>
    </g>
   </g>
   <g id="matplotlib.axis_2">
    <g id="ytick_1">
     <g id="line2d_53">
      <path clip-path="url(#pd55addecc3)" d="M 42.378227 258.913568 
L 565.088535 258.913568 
" style="fill:none;stroke:#000000;stroke-linecap:square;stroke-opacity:0.1;stroke-width:0.5;"/>
     </g>
     <g id="line2d_54">
      <defs>
       <path d="M 0 0 
L 2.5 0 
" id="mcd6c947b7e" style="stroke:#000000;stroke-width:0.5;"/>
      </defs>
      <g>
       <use style="stroke:#000000;stroke-width:0.5;" x="42.378227" xlink:href="#mcd6c947b7e" y="258.913568"/>
      </g>
     </g>
     <g id="text_8">
      <!-- $\mathregular{}$ -->
      <g transform="translate(38.878227 261.952943)scale(0.08 -0.08)"/>
     </g>
    </g>
    <g id="ytick_2">
     <g id="line2d_55">
      <path clip-path="url(#pd55addecc3)" d="M 42.378227 176.321814 
L 565.088535 176.321814 
" style="fill:none;stroke:#000000;stroke-linecap:square;stroke-opacity:0.1;stroke-width:0.5;"/>
     </g>
     <g id="line2d_56">
      <g>
       <use style="stroke:#000000;stroke-width:0.5;" x="42.378227" xlink:href="#mcd6c947b7e" y="176.321814"/>
      </g>
     </g>
     <g id="text_9">
      <!-- $\mathregular{500}$ -->
      <g transform="translate(23.598227 179.361189)scale(0.08 -0.08)">
       <use transform="translate(0 0.78125)" xlink:href="#DejaVuSans-53"/>
       <use transform="translate(63.623047 0.78125)" xlink:href="#DejaVuSans-48"/>
       <use transform="translate(127.246094 0.78125)" xlink:href="#DejaVuSans-48"/>
      </g>
     </g>
    </g>
    <g id="ytick_3">
     <g id="line2d_57">
      <path clip-path="url(#pd55addecc3)" d="M 42.378227 93.73006 
L 565.088535 93.73006 
" style="fill:none;stroke:#000000;stroke-linecap:square;stroke-opacity:0.1;stroke-width:0.5;"/>
     </g>
     <g id="line2d_58">
      <g>
       <use style="stroke:#000000;stroke-width:0.5;" x="42.378227" xlink:href="#mcd6c947b7e" y="93.73006"/>
      </g>
     </g>
     <g id="text_10">
      <!-- $\mathregular{1000}$ -->
      <g transform="translate(18.478227 96.769435)scale(0.08 -0.08)">
       <use transform="translate(0 0.78125)" xlink:href="#DejaVuSans-49"/>
       <use transform="translate(63.623047 0.78125)" xlink:href="#DejaVuSans-48"/>
       <use transform="translate(127.246094 0.78125)" xlink:href="#DejaVuSans-48"/>
       <use transform="translate(190.869141 0.78125)" xlink:href="#DejaVuSans-48"/>
      </g>
     </g>
    </g>
    <g id="ytick_4">
     <g id="line2d_59">
      <path clip-path="url(#pd55addecc3)" d="M 42.378227 11.138306 
L 565.088535 11.138306 
" style="fill:none;stroke:#000000;stroke-linecap:square;stroke-opacity:0.1;stroke-width:0.5;"/>
     </g>
     <g id="line2d_60">
      <g>
       <use style="stroke:#000000;stroke-width:0.5;" x="42.378227" xlink:href="#mcd6c947b7e" y="11.138306"/>
      </g>
     </g>
     <g id="text_11">
      <!-- $\mathregular{1500}$ -->
      <g transform="translate(18.478227 14.177681)scale(0.08 -0.08)">
       <use transform="translate(0 0.78125)" xlink:href="#DejaVuSans-49"/>
       <use transform="translate(63.623047 0.78125)" xlink:href="#DejaVuSans-53"/>
       <use transform="translate(127.246094 0.78125)" xlink:href="#DejaVuSans-48"/>
       <use transform="translate(190.869141 0.78125)" xlink:href="#DejaVuSans-48"/>
      </g>
     </g>
    </g>
    <g id="ytick_5">
     <g id="line2d_61">
      <path clip-path="url(#pd55addecc3)" d="M 42.378227 242.395217 
L 565.088535 242.395217 
" style="fill:none;stroke:#000000;stroke-linecap:square;stroke-opacity:0.05;stroke-width:0.5;"/>
     </g>
     <g id="line2d_62">
      <defs>
       <path d="M 0 0 
L 2 0 
" id="m7c32b4212c" style="stroke:#000000;stroke-width:0.5;"/>
      </defs>
      <g>
       <use style="stroke:#000000;stroke-width:0.5;" x="42.378227" xlink:href="#m7c32b4212c" y="242.395217"/>
      </g>
     </g>
    </g>
    <g id="ytick_6">
     <g id="line2d_63">
      <path clip-path="url(#pd55addecc3)" d="M 42.378227 225.876867 
L 565.088535 225.876867 
" style="fill:none;stroke:#000000;stroke-linecap:square;stroke-opacity:0.05;stroke-width:0.5;"/>
     </g>
     <g id="line2d_64">
      <g>
       <use style="stroke:#000000;stroke-width:0.5;" x="42.378227" xlink:href="#m7c32b4212c" y="225.876867"/>
      </g>
     </g>
    </g>
    <g id="ytick_7">
     <g id="line2d_65">
      <path clip-path="url(#pd55addecc3)" d="M 42.378227 209.358516 
L 565.088535 209.358516 
" style="fill:none;stroke:#000000;stroke-linecap:square;stroke-opacity:0.05;stroke-width:0.5;"/>
     </g>
     <g id="line2d_66">
      <g>
       <use style="stroke:#000000;stroke-width:0.5;" x="42.378227" xlink:href="#m7c32b4212c" y="209.358516"/>
      </g>
     </g>
    </g>
    <g id="ytick_8">
     <g id="line2d_67">
      <path clip-path="url(#pd55addecc3)" d="M 42.378227 192.840165 
L 565.088535 192.840165 
" style="fill:none;stroke:#000000;stroke-linecap:square;stroke-opacity:0.05;stroke-width:0.5;"/>
     </g>
     <g id="line2d_68">
      <g>
       <use style="stroke:#000000;stroke-width:0.5;" x="42.378227" xlink:href="#m7c32b4212c" y="192.840165"/>
      </g>
     </g>
    </g>
    <g id="ytick_9">
     <g id="line2d_69">
      <path clip-path="url(#pd55addecc3)" d="M 42.378227 159.803463 
L 565.088535 159.803463 
" style="fill:none;stroke:#000000;stroke-linecap:square;stroke-opacity:0.05;stroke-width:0.5;"/>
     </g>
     <g id="line2d_70">
      <g>
       <use style="stroke:#000000;stroke-width:0.5;" x="42.378227" xlink:href="#m7c32b4212c" y="159.803463"/>
      </g>
     </g>
    </g>
    <g id="ytick_10">
     <g id="line2d_71">
      <path clip-path="url(#pd55addecc3)" d="M 42.378227 143.285112 
L 565.088535 143.285112 
" style="fill:none;stroke:#000000;stroke-linecap:square;stroke-opacity:0.05;stroke-width:0.5;"/>
     </g>
     <g id="line2d_72">
      <g>
       <use style="stroke:#000000;stroke-width:0.5;" x="42.378227" xlink:href="#m7c32b4212c" y="143.285112"/>
      </g>
     </g>
    </g>
    <g id="ytick_11">
     <g id="line2d_73">
      <path clip-path="url(#pd55addecc3)" d="M 42.378227 126.766762 
L 565.088535 126.766762 
" style="fill:none;stroke:#000000;stroke-linecap:square;stroke-opacity:0.05;stroke-width:0.5;"/>
     </g>
     <g id="line2d_74">
      <g>
       <use style="stroke:#000000;stroke-width:0.5;" x="42.378227" xlink:href="#m7c32b4212c" y="126.766762"/>
      </g>
     </g>
    </g>
    <g id="ytick_12">
     <g id="line2d_75">
      <path clip-path="url(#pd55addecc3)" d="M 42.378227 110.248411 
L 565.088535 110.248411 
" style="fill:none;stroke:#000000;stroke-linecap:square;stroke-opacity:0.05;stroke-width:0.5;"/>
     </g>
     <g id="line2d_76">
      <g>
       <use style="stroke:#000000;stroke-width:0.5;" x="42.378227" xlink:href="#m7c32b4212c" y="110.248411"/>
      </g>
     </g>
    </g>
    <g id="ytick_13">
     <g id="line2d_77">
      <path clip-path="url(#pd55addecc3)" d="M 42.378227 77.211709 
L 565.088535 77.211709 
" style="fill:none;stroke:#000000;stroke-linecap:square;stroke-opacity:0.05;stroke-width:0.5;"/>
     </g>
     <g id="line2d_78">
      <g>
       <use style="stroke:#000000;stroke-width:0.5;" x="42.378227" xlink:href="#m7c32b4212c" y="77.211709"/>
      </g>
     </g>
    </g>
    <g id="ytick_14">
     <g id="line2d_79">
      <path clip-path="url(#pd55addecc3)" d="M 42.378227 60.693358 
L 565.088535 60.693358 
" style="fill:none;stroke:#000000;stroke-linecap:square;stroke-opacity:0.05;stroke-width:0.5;"/>
     </g>
     <g id="line2d_80">
      <g>
       <use style="stroke:#000000;stroke-width:0.5;" x="42.378227" xlink:href="#m7c32b4212c" y="60.693358"/>
      </g>
     </g>
    </g>
    <g id="ytick_15">
     <g id="line2d_81">
      <path clip-path="url(#pd55addecc3)" d="M 42.378227 44.175007 
L 565.088535 44.175007 
" style="fill:none;stroke:#000000;stroke-linecap:square;stroke-opacity:0.05;stroke-width:0.5;"/>
     </g>
     <g id="line2d_82">
      <g>
       <use style="stroke:#000000;stroke-width:0.5;" x="42.378227" xlink:href="#m7c32b4212c" y="44.175007"/>
      </g>
     </g>
    </g>
    <g id="ytick_16">
     <g id="line2d_83">
      <path clip-path="url(#pd55addecc3)" d="M 42.378227 27.656657 
L 565.088535 27.656657 
" style="fill:none;stroke:#000000;stroke-linecap:square;stroke-opacity:0.05;stroke-width:0.5;"/>
     </g>
     <g id="line2d_84">
      <g>
       <use style="stroke:#000000;stroke-width:0.5;" x="42.378227" xlink:href="#m7c32b4212c" y="27.656657"/>
      </g>
     </g>
    </g>
    <g id="text_12">
     <!-- A -->
     <g transform="translate(12.190571 11.347614)rotate(-90)scale(0.11 -0.11)">
      <defs>
       <path d="M 53.421875 13.28125 
L 24.03125 13.28125 
L 19.390625 0 
L 0.484375 0 
L 27.484375 72.90625 
L 49.90625 72.90625 
L 76.90625 0 
L 58.015625 0 
z
M 28.71875 26.8125 
L 48.6875 26.8125 
L 38.71875 55.8125 
z
" id="DejaVuSans-Bold-65"/>
      </defs>
      <use xlink:href="#DejaVuSans-Bold-65"/>
     </g>
    </g>
   </g>
   <g id="line2d_85">
    <path clip-path="url(#pd55addecc3)" d="M 40.289475 254.460339 
L 42.378227 254.733149 
L 44.46698 254.460339 
L 46.555732 257.113164 
L 48.644485 258.822473 
L 50.733237 255.72832 
L 52.82199 10.291379 
L 54.910742 255.202986 
L 56.999495 252.168268 
L 59.088247 255.521857 
L 61.177 256.740581 
L 63.265752 252.349608 
L 65.354504 255.503329 
L 67.443257 256.912585 
L 69.532009 256.081465 
L 71.620762 255.046554 
L 73.709514 257.821905 
L 75.798267 256.866574 
L 77.887019 254.303501 
L 79.975772 255.803075 
L 82.064524 252.977697 
L 84.153277 212.947718 
L 86.242029 258.420771 
L 88.330782 254.478835 
L 90.419534 258.412138 
L 92.508287 254.287523 
L 94.597039 256.87442 
L 96.685792 255.435397 
L 98.774544 255.054459 
L 100.863297 254.376005 
L 102.952049 257.498097 
L 105.040802 252.665481 
L 107.129554 255.786191 
L 109.218307 255.131719 
L 111.307059 257.612604 
L 113.395812 257.472282 
L 115.484564 255.799293 
L 117.573317 254.937513 
L 121.750821 256.293839 
L 123.839574 254.707358 
L 125.928326 258.334517 
L 128.017079 254.399201 
L 130.105831 256.678763 
L 132.194584 256.716143 
L 134.283336 257.368835 
L 136.372089 255.902948 
L 138.460841 255.730692 
L 140.549594 255.002494 
L 142.638346 256.329111 
L 144.727099 256.390707 
L 146.815851 254.911578 
L 148.904604 254.367633 
L 150.993356 255.166544 
L 153.082109 256.407592 
L 155.170861 255.406176 
L 157.259614 255.43324 
L 159.348366 256.914748 
L 161.437119 256.299014 
L 163.525871 258.255502 
L 165.614624 255.389485 
L 167.703376 256.233472 
L 169.792129 255.164047 
L 171.880881 256.763462 
L 173.969633 255.182497 
L 176.058386 255.765241 
L 178.147138 255.273646 
L 180.235891 253.583102 
L 182.324643 252.787621 
L 184.413396 256.132302 
L 186.502148 250.668815 
L 188.590901 254.238382 
L 190.679653 253.05682 
L 192.768406 255.630651 
L 194.857158 255.873965 
L 196.945911 258.038508 
L 199.034663 254.282956 
L 201.123416 252.520246 
L 203.212168 253.158299 
L 205.300921 256.542646 
L 207.389673 252.254668 
L 209.478426 208.964459 
L 211.567178 253.37692 
L 213.655931 256.399104 
L 215.744683 252.056448 
L 217.833436 257.91017 
L 219.922188 253.267685 
L 222.010941 256.303378 
L 224.099693 252.309716 
L 226.188446 256.937108 
L 228.277198 251.284378 
L 230.36595 256.243092 
L 232.454703 256.684438 
L 234.543455 254.190336 
L 236.632208 258.11437 
L 238.72096 255.000298 
L 240.809713 256.634714 
L 242.898465 254.45197 
L 247.07597 253.59985 
L 249.164723 256.870742 
L 253.342228 257.35672 
L 255.43098 256.806663 
L 257.519733 257.098315 
L 259.608485 251.947369 
L 261.697238 257.948481 
L 263.78599 256.770352 
L 265.874743 256.458662 
L 267.963495 255.936593 
L 270.052248 256.677562 
L 274.229753 256.948288 
L 276.318505 255.238705 
L 278.407258 254.408956 
L 280.49601 255.059494 
L 282.584762 257.474496 
L 284.673515 256.207867 
L 286.762267 253.049118 
L 288.85102 252.515299 
L 290.939772 256.576771 
L 293.028525 256.877593 
L 295.117277 255.374059 
L 297.20603 256.059628 
L 299.294782 257.964298 
L 301.383535 251.334187 
L 303.472287 254.573251 
L 305.56104 256.168432 
L 307.649792 254.629251 
L 309.738545 252.093614 
L 311.827297 254.780685 
L 313.91605 256.528456 
L 316.004802 256.229293 
L 318.093555 255.032269 
L 320.182307 257.074014 
L 322.27106 255.527908 
L 324.359812 253.294417 
L 326.448565 253.531421 
L 328.537317 251.501671 
L 330.62607 255.382411 
L 332.714822 257.542824 
L 334.803574 254.992705 
L 336.892327 255.333795 
L 338.981079 254.58993 
L 341.069832 256.336996 
L 343.158584 254.902798 
L 345.247337 255.157893 
L 347.336089 256.872398 
L 349.424842 256.394781 
L 351.513594 252.977157 
L 353.602347 255.644389 
L 355.691099 256.726241 
L 357.779852 255.865356 
L 359.868604 255.324358 
L 361.957357 257.004458 
L 364.046109 255.647582 
L 366.134862 255.341381 
L 368.223614 254.157124 
L 370.312367 252.506181 
L 372.401119 255.588221 
L 374.489872 256.807446 
L 376.578624 253.342211 
L 378.667377 257.965967 
L 380.756129 256.688608 
L 382.844882 255.168089 
L 384.933634 256.147345 
L 387.022387 252.159519 
L 389.111139 255.382397 
L 391.199891 255.622491 
L 393.288644 257.047271 
L 395.377396 255.938398 
L 397.466149 257.129012 
L 399.554901 252.743749 
L 401.643654 253.780064 
L 403.732406 254.005766 
L 405.821159 254.955781 
L 407.909911 253.891804 
L 409.998664 256.654917 
L 412.087416 255.14113 
L 414.176169 257.573672 
L 416.264921 252.066056 
L 418.353674 256.916581 
L 420.442426 257.489293 
L 422.531179 256.53918 
L 424.619931 256.671592 
L 426.708684 256.067022 
L 428.797436 258.551893 
L 430.886189 255.958478 
L 432.974941 255.797784 
L 435.063694 255.433163 
L 437.152446 255.837575 
L 439.241199 254.574477 
L 441.329951 252.1279 
L 443.418703 255.248019 
L 445.507456 255.61637 
L 447.596208 254.359859 
L 449.684961 255.94551 
L 451.773713 256.160688 
L 453.862466 256.734468 
L 455.951218 255.833684 
L 458.039971 255.333484 
L 460.128723 255.669997 
L 462.217476 250.151582 
L 464.306228 254.825448 
L 466.394981 254.124746 
L 468.483733 252.378709 
L 470.572486 255.993068 
L 472.661238 251.734419 
L 474.749991 255.150645 
L 476.838743 257.266259 
L 478.927496 255.828651 
L 481.016248 256.737568 
L 483.105001 254.120673 
L 485.193753 256.034907 
L 487.282506 251.191594 
L 489.371258 254.0094 
L 491.460011 258.516542 
L 493.548763 254.795577 
L 495.637516 256.696924 
L 497.726268 253.929444 
L 501.903773 253.341923 
L 503.992525 255.840203 
L 506.081278 257.417148 
L 508.17003 257.111922 
L 510.258783 256.123111 
L 512.347535 253.421319 
L 514.436288 257.469003 
L 516.52504 256.904594 
L 518.613793 258.606831 
L 520.702545 253.077446 
L 522.791298 251.36002 
L 524.88005 256.969271 
L 526.968803 254.049096 
L 531.146308 254.904756 
L 533.23506 251.414538 
L 535.323813 256.658768 
L 537.412565 257.621959 
L 539.501318 257.236895 
L 541.59007 255.703668 
L 543.678823 258.430208 
L 545.767575 256.598224 
L 547.856328 257.366886 
L 549.94508 254.26989 
L 552.033832 256.553781 
L 554.122585 257.567367 
L 556.211337 255.970395 
L 558.30009 253.617158 
L 560.388842 254.472816 
L 562.477595 256.86393 
L 564.566347 257.208417 
L 566.6551 257.831198 
L 566.6551 257.831198 
" style="fill:none;stroke:#009afa;stroke-width:3;"/>
   </g>
   <g id="patch_3">
    <path d="M 42.378227 266.305898 
L 42.378227 2.834646 
" style="fill:none;stroke:#000000;stroke-linecap:square;stroke-linejoin:miter;"/>
   </g>
   <g id="patch_4">
    <path d="M 42.378227 258.913568 
L 565.088535 258.913568 
" style="fill:none;stroke:#000000;stroke-linecap:square;stroke-linejoin:miter;"/>
   </g>
   <g id="legend_1">
    <g id="patch_5">
     <path d="M 511.939785 27.377146 
L 561.088535 27.377146 
L 561.088535 6.834646 
L 511.939785 6.834646 
z
" style="fill:none;opacity:0;"/>
    </g>
    <g id="line2d_86">
     <path d="M 518.339785 16.513396 
L 534.339785 16.513396 
" style="fill:none;stroke:#009afa;stroke-linejoin:miter;"/>
    </g>
    <g id="line2d_87"/>
    <g id="text_13">
     <!-- FFT -->
     <g transform="translate(540.739785 19.313396)scale(0.08 -0.08)">
      <defs>
       <path d="M 9.8125 72.90625 
L 51.703125 72.90625 
L 51.703125 64.59375 
L 19.671875 64.59375 
L 19.671875 43.109375 
L 48.578125 43.109375 
L 48.578125 34.8125 
L 19.671875 34.8125 
L 19.671875 0 
L 9.8125 0 
z
" id="DejaVuSans-70"/>
       <path d="M -0.296875 72.90625 
L 61.375 72.90625 
L 61.375 64.59375 
L 35.5 64.59375 
L 35.5 0 
L 25.59375 0 
L 25.59375 64.59375 
L -0.296875 64.59375 
z
" id="DejaVuSans-84"/>
      </defs>
      <use xlink:href="#DejaVuSans-70"/>
      <use x="57.519531" xlink:href="#DejaVuSans-70"/>
      <use x="113.289062" xlink:href="#DejaVuSans-84"/>
     </g>
    </g>
   </g>
  </g>
 </g>
 <defs>
  <clipPath id="pd55addecc3">
   <rect height="263.471252" width="522.710308" x="42.378227" y="2.834646"/>
  </clipPath>
 </defs>
</svg>
