<?xml version="1.0" encoding="utf-8" standalone="no"?>
<!DOCTYPE svg PUBLIC "-//W3C//DTD SVG 1.1//EN"
  "http://www.w3.org/Graphics/SVG/1.1/DTD/svg11.dtd">
<!-- Created with matplotlib (https://matplotlib.org/) -->
<svg height="288pt" version="1.1" viewBox="0 0 576 288" width="576pt" xmlns="http://www.w3.org/2000/svg" xmlns:xlink="http://www.w3.org/1999/xlink">
 <metadata>
  <rdf:RDF xmlns:cc="http://creativecommons.org/ns#" xmlns:dc="http://purl.org/dc/elements/1.1/" xmlns:rdf="http://www.w3.org/1999/02/22-rdf-syntax-ns#">
   <cc:Work>
    <dc:type rdf:resource="http://purl.org/dc/dcmitype/StillImage"/>
    <dc:date>2021-05-30T22:43:05.542488</dc:date>
    <dc:format>image/svg+xml</dc:format>
    <dc:creator>
     <cc:Agent>
      <dc:title>Matplotlib v3.3.1, https://matplotlib.org/</dc:title>
     </cc:Agent>
    </dc:creator>
   </cc:Work>
  </rdf:RDF>
 </metadata>
 <defs>
  <style type="text/css">*{stroke-linecap:butt;stroke-linejoin:round;}</style>
 </defs>
 <g id="figure_1">
  <g id="patch_1">
   <path d="M 0 288 
L 576 288 
L 576 0 
L 0 0 
z
" style="fill:none;"/>
  </g>
  <g id="axes_1">
   <g id="patch_2">
    <path d="M 17.532262 285.165354 
L 573.165354 285.165354 
L 573.165354 2.834646 
L 17.532262 2.834646 
z
" style="fill:none;"/>
   </g>
   <g id="matplotlib.axis_1">
    <g id="xtick_1">
     <g id="line2d_1">
      <path clip-path="url(#pece1c3be5d)" d="M 33.257727 285.165354 
L 33.257727 2.834646 
" style="fill:none;stroke:#000000;stroke-linecap:square;stroke-opacity:0.1;stroke-width:0.5;"/>
     </g>
     <g id="line2d_2">
      <defs>
       <path d="M 0 0 
L 0 -2.5 
" id="m25cf0db964" style="stroke:#000000;stroke-width:0.5;"/>
      </defs>
      <g>
       <use style="stroke:#000000;stroke-width:0.5;" x="33.257727" xlink:href="#m25cf0db964" y="141.079524"/>
      </g>
     </g>
     <g id="text_1">
      <!-- $\mathregular{}$ -->
      <g transform="translate(33.257727 150.658274)scale(0.08 -0.08)"/>
     </g>
    </g>
    <g id="xtick_2">
     <g id="line2d_3">
      <path clip-path="url(#pece1c3be5d)" d="M 164.303268 285.165354 
L 164.303268 2.834646 
" style="fill:none;stroke:#000000;stroke-linecap:square;stroke-opacity:0.1;stroke-width:0.5;"/>
     </g>
     <g id="line2d_4">
      <g>
       <use style="stroke:#000000;stroke-width:0.5;" x="164.303268" xlink:href="#m25cf0db964" y="141.079524"/>
      </g>
     </g>
     <g id="text_2">
      <!-- $\mathregular{0.25}$ -->
      <g transform="translate(155.583268 150.658274)scale(0.08 -0.08)">
       <defs>
        <path d="M 31.78125 66.40625 
Q 24.171875 66.40625 20.328125 58.90625 
Q 16.5 51.421875 16.5 36.375 
Q 16.5 21.390625 20.328125 13.890625 
Q 24.171875 6.390625 31.78125 6.390625 
Q 39.453125 6.390625 43.28125 13.890625 
Q 47.125 21.390625 47.125 36.375 
Q 47.125 51.421875 43.28125 58.90625 
Q 39.453125 66.40625 31.78125 66.40625 
z
M 31.78125 74.21875 
Q 44.046875 74.21875 50.515625 64.515625 
Q 56.984375 54.828125 56.984375 36.375 
Q 56.984375 17.96875 50.515625 8.265625 
Q 44.046875 -1.421875 31.78125 -1.421875 
Q 19.53125 -1.421875 13.0625 8.265625 
Q 6.59375 17.96875 6.59375 36.375 
Q 6.59375 54.828125 13.0625 64.515625 
Q 19.53125 74.21875 31.78125 74.21875 
z
" id="DejaVuSans-48"/>
        <path d="M 10.6875 12.40625 
L 21 12.40625 
L 21 0 
L 10.6875 0 
z
" id="DejaVuSans-46"/>
        <path d="M 19.1875 8.296875 
L 53.609375 8.296875 
L 53.609375 0 
L 7.328125 0 
L 7.328125 8.296875 
Q 12.9375 14.109375 22.625 23.890625 
Q 32.328125 33.6875 34.8125 36.53125 
Q 39.546875 41.84375 41.421875 45.53125 
Q 43.3125 49.21875 43.3125 52.78125 
Q 43.3125 58.59375 39.234375 62.25 
Q 35.15625 65.921875 28.609375 65.921875 
Q 23.96875 65.921875 18.8125 64.3125 
Q 13.671875 62.703125 7.8125 59.421875 
L 7.8125 69.390625 
Q 13.765625 71.78125 18.9375 73 
Q 24.125 74.21875 28.421875 74.21875 
Q 39.75 74.21875 46.484375 68.546875 
Q 53.21875 62.890625 53.21875 53.421875 
Q 53.21875 48.921875 51.53125 44.890625 
Q 49.859375 40.875 45.40625 35.40625 
Q 44.1875 33.984375 37.640625 27.21875 
Q 31.109375 20.453125 19.1875 8.296875 
z
" id="DejaVuSans-50"/>
        <path d="M 10.796875 72.90625 
L 49.515625 72.90625 
L 49.515625 64.59375 
L 19.828125 64.59375 
L 19.828125 46.734375 
Q 21.96875 47.46875 24.109375 47.828125 
Q 26.265625 48.1875 28.421875 48.1875 
Q 40.625 48.1875 47.75 41.5 
Q 54.890625 34.8125 54.890625 23.390625 
Q 54.890625 11.625 47.5625 5.09375 
Q 40.234375 -1.421875 26.90625 -1.421875 
Q 22.3125 -1.421875 17.546875 -0.640625 
Q 12.796875 0.140625 7.71875 1.703125 
L 7.71875 11.625 
Q 12.109375 9.234375 16.796875 8.0625 
Q 21.484375 6.890625 26.703125 6.890625 
Q 35.15625 6.890625 40.078125 11.328125 
Q 45.015625 15.765625 45.015625 23.390625 
Q 45.015625 31 40.078125 35.4375 
Q 35.15625 39.890625 26.703125 39.890625 
Q 22.75 39.890625 18.8125 39.015625 
Q 14.890625 38.140625 10.796875 36.28125 
z
" id="DejaVuSans-53"/>
       </defs>
       <use transform="translate(0 0.78125)" xlink:href="#DejaVuSans-48"/>
       <use transform="translate(63.623047 0.78125)" xlink:href="#DejaVuSans-46"/>
       <use transform="translate(89.910156 0.78125)" xlink:href="#DejaVuSans-50"/>
       <use transform="translate(153.533203 0.78125)" xlink:href="#DejaVuSans-53"/>
      </g>
     </g>
    </g>
    <g id="xtick_3">
     <g id="line2d_5">
      <path clip-path="url(#pece1c3be5d)" d="M 295.348808 285.165354 
L 295.348808 2.834646 
" style="fill:none;stroke:#000000;stroke-linecap:square;stroke-opacity:0.1;stroke-width:0.5;"/>
     </g>
     <g id="line2d_6">
      <g>
       <use style="stroke:#000000;stroke-width:0.5;" x="295.348808" xlink:href="#m25cf0db964" y="141.079524"/>
      </g>
     </g>
     <g id="text_3">
      <!-- $\mathregular{0.50}$ -->
      <g transform="translate(286.428808 150.658274)scale(0.08 -0.08)">
       <use transform="translate(0 0.78125)" xlink:href="#DejaVuSans-48"/>
       <use transform="translate(63.623047 0.78125)" xlink:href="#DejaVuSans-46"/>
       <use transform="translate(95.410156 0.78125)" xlink:href="#DejaVuSans-53"/>
       <use transform="translate(159.033203 0.78125)" xlink:href="#DejaVuSans-48"/>
      </g>
     </g>
    </g>
    <g id="xtick_4">
     <g id="line2d_7">
      <path clip-path="url(#pece1c3be5d)" d="M 426.394349 285.165354 
L 426.394349 2.834646 
" style="fill:none;stroke:#000000;stroke-linecap:square;stroke-opacity:0.1;stroke-width:0.5;"/>
     </g>
     <g id="line2d_8">
      <g>
       <use style="stroke:#000000;stroke-width:0.5;" x="426.394349" xlink:href="#m25cf0db964" y="141.079524"/>
      </g>
     </g>
     <g id="text_4">
      <!-- $\mathregular{0.75}$ -->
      <g transform="translate(417.794349 150.658274)scale(0.08 -0.08)">
       <defs>
        <path d="M 8.203125 72.90625 
L 55.078125 72.90625 
L 55.078125 68.703125 
L 28.609375 0 
L 18.3125 0 
L 43.21875 64.59375 
L 8.203125 64.59375 
z
" id="DejaVuSans-55"/>
       </defs>
       <use transform="translate(0 0.78125)" xlink:href="#DejaVuSans-48"/>
       <use transform="translate(63.623047 0.78125)" xlink:href="#DejaVuSans-46"/>
       <use transform="translate(87.660156 0.78125)" xlink:href="#DejaVuSans-55"/>
       <use transform="translate(151.283203 0.78125)" xlink:href="#DejaVuSans-53"/>
      </g>
     </g>
    </g>
    <g id="xtick_5">
     <g id="line2d_9">
      <path clip-path="url(#pece1c3be5d)" d="M 557.439889 285.165354 
L 557.439889 2.834646 
" style="fill:none;stroke:#000000;stroke-linecap:square;stroke-opacity:0.1;stroke-width:0.5;"/>
     </g>
     <g id="line2d_10">
      <g>
       <use style="stroke:#000000;stroke-width:0.5;" x="557.439889" xlink:href="#m25cf0db964" y="141.079524"/>
      </g>
     </g>
     <g id="text_5">
      <!-- $\mathregular{1.00}$ -->
      <g transform="translate(548.519889 150.658274)scale(0.08 -0.08)">
       <defs>
        <path d="M 12.40625 8.296875 
L 28.515625 8.296875 
L 28.515625 63.921875 
L 10.984375 60.40625 
L 10.984375 69.390625 
L 28.421875 72.90625 
L 38.28125 72.90625 
L 38.28125 8.296875 
L 54.390625 8.296875 
L 54.390625 0 
L 12.40625 0 
z
" id="DejaVuSans-49"/>
       </defs>
       <use transform="translate(0 0.78125)" xlink:href="#DejaVuSans-49"/>
       <use transform="translate(63.623047 0.78125)" xlink:href="#DejaVuSans-46"/>
       <use transform="translate(95.410156 0.78125)" xlink:href="#DejaVuSans-48"/>
       <use transform="translate(159.033203 0.78125)" xlink:href="#DejaVuSans-48"/>
      </g>
     </g>
    </g>
    <g id="xtick_6">
     <g id="line2d_11">
      <path clip-path="url(#pece1c3be5d)" d="M 59.466835 285.165354 
L 59.466835 2.834646 
" style="fill:none;stroke:#000000;stroke-linecap:square;stroke-opacity:0.05;stroke-width:0.5;"/>
     </g>
     <g id="line2d_12">
      <defs>
       <path d="M 0 0 
L 0 -2 
" id="m7c85cdc782" style="stroke:#000000;stroke-width:0.5;"/>
      </defs>
      <g>
       <use style="stroke:#000000;stroke-width:0.5;" x="59.466835" xlink:href="#m7c85cdc782" y="141.079524"/>
      </g>
     </g>
    </g>
    <g id="xtick_7">
     <g id="line2d_13">
      <path clip-path="url(#pece1c3be5d)" d="M 85.675943 285.165354 
L 85.675943 2.834646 
" style="fill:none;stroke:#000000;stroke-linecap:square;stroke-opacity:0.05;stroke-width:0.5;"/>
     </g>
     <g id="line2d_14">
      <g>
       <use style="stroke:#000000;stroke-width:0.5;" x="85.675943" xlink:href="#m7c85cdc782" y="141.079524"/>
      </g>
     </g>
    </g>
    <g id="xtick_8">
     <g id="line2d_15">
      <path clip-path="url(#pece1c3be5d)" d="M 111.885051 285.165354 
L 111.885051 2.834646 
" style="fill:none;stroke:#000000;stroke-linecap:square;stroke-opacity:0.05;stroke-width:0.5;"/>
     </g>
     <g id="line2d_16">
      <g>
       <use style="stroke:#000000;stroke-width:0.5;" x="111.885051" xlink:href="#m7c85cdc782" y="141.079524"/>
      </g>
     </g>
    </g>
    <g id="xtick_9">
     <g id="line2d_17">
      <path clip-path="url(#pece1c3be5d)" d="M 138.094159 285.165354 
L 138.094159 2.834646 
" style="fill:none;stroke:#000000;stroke-linecap:square;stroke-opacity:0.05;stroke-width:0.5;"/>
     </g>
     <g id="line2d_18">
      <g>
       <use style="stroke:#000000;stroke-width:0.5;" x="138.094159" xlink:href="#m7c85cdc782" y="141.079524"/>
      </g>
     </g>
    </g>
    <g id="xtick_10">
     <g id="line2d_19">
      <path clip-path="url(#pece1c3be5d)" d="M 190.512376 285.165354 
L 190.512376 2.834646 
" style="fill:none;stroke:#000000;stroke-linecap:square;stroke-opacity:0.05;stroke-width:0.5;"/>
     </g>
     <g id="line2d_20">
      <g>
       <use style="stroke:#000000;stroke-width:0.5;" x="190.512376" xlink:href="#m7c85cdc782" y="141.079524"/>
      </g>
     </g>
    </g>
    <g id="xtick_11">
     <g id="line2d_21">
      <path clip-path="url(#pece1c3be5d)" d="M 216.721484 285.165354 
L 216.721484 2.834646 
" style="fill:none;stroke:#000000;stroke-linecap:square;stroke-opacity:0.05;stroke-width:0.5;"/>
     </g>
     <g id="line2d_22">
      <g>
       <use style="stroke:#000000;stroke-width:0.5;" x="216.721484" xlink:href="#m7c85cdc782" y="141.079524"/>
      </g>
     </g>
    </g>
    <g id="xtick_12">
     <g id="line2d_23">
      <path clip-path="url(#pece1c3be5d)" d="M 242.930592 285.165354 
L 242.930592 2.834646 
" style="fill:none;stroke:#000000;stroke-linecap:square;stroke-opacity:0.05;stroke-width:0.5;"/>
     </g>
     <g id="line2d_24">
      <g>
       <use style="stroke:#000000;stroke-width:0.5;" x="242.930592" xlink:href="#m7c85cdc782" y="141.079524"/>
      </g>
     </g>
    </g>
    <g id="xtick_13">
     <g id="line2d_25">
      <path clip-path="url(#pece1c3be5d)" d="M 269.1397 285.165354 
L 269.1397 2.834646 
" style="fill:none;stroke:#000000;stroke-linecap:square;stroke-opacity:0.05;stroke-width:0.5;"/>
     </g>
     <g id="line2d_26">
      <g>
       <use style="stroke:#000000;stroke-width:0.5;" x="269.1397" xlink:href="#m7c85cdc782" y="141.079524"/>
      </g>
     </g>
    </g>
    <g id="xtick_14">
     <g id="line2d_27">
      <path clip-path="url(#pece1c3be5d)" d="M 321.557916 285.165354 
L 321.557916 2.834646 
" style="fill:none;stroke:#000000;stroke-linecap:square;stroke-opacity:0.05;stroke-width:0.5;"/>
     </g>
     <g id="line2d_28">
      <g>
       <use style="stroke:#000000;stroke-width:0.5;" x="321.557916" xlink:href="#m7c85cdc782" y="141.079524"/>
      </g>
     </g>
    </g>
    <g id="xtick_15">
     <g id="line2d_29">
      <path clip-path="url(#pece1c3be5d)" d="M 347.767024 285.165354 
L 347.767024 2.834646 
" style="fill:none;stroke:#000000;stroke-linecap:square;stroke-opacity:0.05;stroke-width:0.5;"/>
     </g>
     <g id="line2d_30">
      <g>
       <use style="stroke:#000000;stroke-width:0.5;" x="347.767024" xlink:href="#m7c85cdc782" y="141.079524"/>
      </g>
     </g>
    </g>
    <g id="xtick_16">
     <g id="line2d_31">
      <path clip-path="url(#pece1c3be5d)" d="M 373.976133 285.165354 
L 373.976133 2.834646 
" style="fill:none;stroke:#000000;stroke-linecap:square;stroke-opacity:0.05;stroke-width:0.5;"/>
     </g>
     <g id="line2d_32">
      <g>
       <use style="stroke:#000000;stroke-width:0.5;" x="373.976133" xlink:href="#m7c85cdc782" y="141.079524"/>
      </g>
     </g>
    </g>
    <g id="xtick_17">
     <g id="line2d_33">
      <path clip-path="url(#pece1c3be5d)" d="M 400.185241 285.165354 
L 400.185241 2.834646 
" style="fill:none;stroke:#000000;stroke-linecap:square;stroke-opacity:0.05;stroke-width:0.5;"/>
     </g>
     <g id="line2d_34">
      <g>
       <use style="stroke:#000000;stroke-width:0.5;" x="400.185241" xlink:href="#m7c85cdc782" y="141.079524"/>
      </g>
     </g>
    </g>
    <g id="xtick_18">
     <g id="line2d_35">
      <path clip-path="url(#pece1c3be5d)" d="M 452.603457 285.165354 
L 452.603457 2.834646 
" style="fill:none;stroke:#000000;stroke-linecap:square;stroke-opacity:0.05;stroke-width:0.5;"/>
     </g>
     <g id="line2d_36">
      <g>
       <use style="stroke:#000000;stroke-width:0.5;" x="452.603457" xlink:href="#m7c85cdc782" y="141.079524"/>
      </g>
     </g>
    </g>
    <g id="xtick_19">
     <g id="line2d_37">
      <path clip-path="url(#pece1c3be5d)" d="M 478.812565 285.165354 
L 478.812565 2.834646 
" style="fill:none;stroke:#000000;stroke-linecap:square;stroke-opacity:0.05;stroke-width:0.5;"/>
     </g>
     <g id="line2d_38">
      <g>
       <use style="stroke:#000000;stroke-width:0.5;" x="478.812565" xlink:href="#m7c85cdc782" y="141.079524"/>
      </g>
     </g>
    </g>
    <g id="xtick_20">
     <g id="line2d_39">
      <path clip-path="url(#pece1c3be5d)" d="M 505.021673 285.165354 
L 505.021673 2.834646 
" style="fill:none;stroke:#000000;stroke-linecap:square;stroke-opacity:0.05;stroke-width:0.5;"/>
     </g>
     <g id="line2d_40">
      <g>
       <use style="stroke:#000000;stroke-width:0.5;" x="505.021673" xlink:href="#m7c85cdc782" y="141.079524"/>
      </g>
     </g>
    </g>
    <g id="xtick_21">
     <g id="line2d_41">
      <path clip-path="url(#pece1c3be5d)" d="M 531.230781 285.165354 
L 531.230781 2.834646 
" style="fill:none;stroke:#000000;stroke-linecap:square;stroke-opacity:0.05;stroke-width:0.5;"/>
     </g>
     <g id="line2d_42">
      <g>
       <use style="stroke:#000000;stroke-width:0.5;" x="531.230781" xlink:href="#m7c85cdc782" y="141.079524"/>
      </g>
     </g>
    </g>
    <g id="text_6">
     <!-- Time (s) -->
     <g transform="translate(522.536136 164.680305)scale(0.11 -0.11)">
      <defs>
       <path d="M 0.484375 72.90625 
L 67.671875 72.90625 
L 67.671875 58.6875 
L 43.5 58.6875 
L 43.5 0 
L 24.703125 0 
L 24.703125 58.6875 
L 0.484375 58.6875 
z
" id="DejaVuSans-Bold-84"/>
       <path d="M 8.40625 54.6875 
L 25.875 54.6875 
L 25.875 0 
L 8.40625 0 
z
M 8.40625 75.984375 
L 25.875 75.984375 
L 25.875 61.71875 
L 8.40625 61.71875 
z
" id="DejaVuSans-Bold-105"/>
       <path d="M 59.078125 45.609375 
Q 62.40625 50.6875 66.96875 53.34375 
Q 71.53125 56 77 56 
Q 86.421875 56 91.359375 50.1875 
Q 96.296875 44.390625 96.296875 33.296875 
L 96.296875 0 
L 78.71875 0 
L 78.71875 28.515625 
Q 78.765625 29.15625 78.78125 29.828125 
Q 78.8125 30.515625 78.8125 31.78125 
Q 78.8125 37.59375 77.09375 40.203125 
Q 75.390625 42.828125 71.578125 42.828125 
Q 66.609375 42.828125 63.890625 38.71875 
Q 61.1875 34.625 61.078125 26.859375 
L 61.078125 0 
L 43.5 0 
L 43.5 28.515625 
Q 43.5 37.59375 41.9375 40.203125 
Q 40.375 42.828125 36.375 42.828125 
Q 31.34375 42.828125 28.609375 38.703125 
Q 25.875 34.578125 25.875 26.90625 
L 25.875 0 
L 8.296875 0 
L 8.296875 54.6875 
L 25.875 54.6875 
L 25.875 46.6875 
Q 29.109375 51.3125 33.28125 53.65625 
Q 37.453125 56 42.484375 56 
Q 48.140625 56 52.484375 53.265625 
Q 56.84375 50.53125 59.078125 45.609375 
z
" id="DejaVuSans-Bold-109"/>
       <path d="M 62.984375 27.484375 
L 62.984375 22.515625 
L 22.125 22.515625 
Q 22.75 16.359375 26.5625 13.28125 
Q 30.375 10.203125 37.203125 10.203125 
Q 42.71875 10.203125 48.5 11.84375 
Q 54.296875 13.484375 60.40625 16.796875 
L 60.40625 3.328125 
Q 54.203125 0.984375 48 -0.21875 
Q 41.796875 -1.421875 35.59375 -1.421875 
Q 20.75 -1.421875 12.515625 6.125 
Q 4.296875 13.671875 4.296875 27.296875 
Q 4.296875 40.671875 12.375 48.328125 
Q 20.453125 56 34.625 56 
Q 47.515625 56 55.25 48.234375 
Q 62.984375 40.484375 62.984375 27.484375 
z
M 45.015625 33.296875 
Q 45.015625 38.28125 42.109375 41.328125 
Q 39.203125 44.390625 34.515625 44.390625 
Q 29.4375 44.390625 26.265625 41.53125 
Q 23.09375 38.671875 22.3125 33.296875 
z
" id="DejaVuSans-Bold-101"/>
       <path id="DejaVuSans-Bold-32"/>
       <path d="M 37.703125 -13.1875 
L 23.1875 -13.1875 
Q 15.71875 -1.125 12.15625 9.734375 
Q 8.59375 20.609375 8.59375 31.296875 
Q 8.59375 42 12.171875 52.953125 
Q 15.765625 63.921875 23.1875 75.875 
L 37.703125 75.875 
Q 31.453125 64.3125 28.328125 53.25 
Q 25.203125 42.1875 25.203125 31.390625 
Q 25.203125 20.609375 28.296875 9.515625 
Q 31.390625 -1.5625 37.703125 -13.1875 
z
" id="DejaVuSans-Bold-40"/>
       <path d="M 51.125 52.984375 
L 51.125 39.703125 
Q 45.515625 42.046875 40.28125 43.21875 
Q 35.0625 44.390625 30.421875 44.390625 
Q 25.4375 44.390625 23.015625 43.140625 
Q 20.609375 41.890625 20.609375 39.3125 
Q 20.609375 37.203125 22.4375 36.078125 
Q 24.265625 34.96875 29 34.421875 
L 32.078125 33.984375 
Q 45.515625 32.28125 50.140625 28.375 
Q 54.78125 24.46875 54.78125 16.109375 
Q 54.78125 7.375 48.328125 2.96875 
Q 41.890625 -1.421875 29.109375 -1.421875 
Q 23.6875 -1.421875 17.890625 -0.5625 
Q 12.109375 0.296875 6 2 
L 6 15.28125 
Q 11.234375 12.75 16.71875 11.46875 
Q 22.21875 10.203125 27.875 10.203125 
Q 33.015625 10.203125 35.59375 11.609375 
Q 38.1875 13.03125 38.1875 15.828125 
Q 38.1875 18.171875 36.40625 19.3125 
Q 34.625 20.453125 29.296875 21.09375 
L 26.21875 21.484375 
Q 14.546875 22.953125 9.859375 26.90625 
Q 5.171875 30.859375 5.171875 38.921875 
Q 5.171875 47.609375 11.125 51.796875 
Q 17.09375 56 29.390625 56 
Q 34.234375 56 39.546875 55.265625 
Q 44.875 54.546875 51.125 52.984375 
z
" id="DejaVuSans-Bold-115"/>
       <path d="M 8.015625 -13.1875 
Q 14.265625 -1.5625 17.390625 9.515625 
Q 20.515625 20.609375 20.515625 31.390625 
Q 20.515625 42.1875 17.390625 53.25 
Q 14.265625 64.3125 8.015625 75.875 
L 22.515625 75.875 
Q 29.9375 63.921875 33.515625 52.953125 
Q 37.109375 42 37.109375 31.296875 
Q 37.109375 20.609375 33.546875 9.734375 
Q 29.984375 -1.125 22.515625 -13.1875 
z
" id="DejaVuSans-Bold-41"/>
      </defs>
      <use xlink:href="#DejaVuSans-Bold-84"/>
      <use x="68.212891" xlink:href="#DejaVuSans-Bold-105"/>
      <use x="102.490234" xlink:href="#DejaVuSans-Bold-109"/>
      <use x="206.689453" xlink:href="#DejaVuSans-Bold-101"/>
      <use x="274.511719" xlink:href="#DejaVuSans-Bold-32"/>
      <use x="309.326172" xlink:href="#DejaVuSans-Bold-40"/>
      <use x="355.029297" xlink:href="#DejaVuSans-Bold-115"/>
      <use x="414.550781" xlink:href="#DejaVuSans-Bold-41"/>
     </g>
    </g>
   </g>
   <g id="matplotlib.axis_2">
    <g id="ytick_1">
     <g id="line2d_43">
      <path clip-path="url(#pece1c3be5d)" d="M 17.532262 238.136288 
L 573.165354 238.136288 
" style="fill:none;stroke:#000000;stroke-linecap:square;stroke-opacity:0.1;stroke-width:0.5;"/>
     </g>
     <g id="line2d_44">
      <defs>
       <path d="M 0 0 
L 2.5 0 
" id="m1de6f65da0" style="stroke:#000000;stroke-width:0.5;"/>
      </defs>
      <g>
       <use style="stroke:#000000;stroke-width:0.5;" x="33.257727" xlink:href="#m1de6f65da0" y="238.136288"/>
      </g>
     </g>
     <g id="text_7">
      <!-- $\mathregular{-4}$ -->
      <g transform="translate(17.917727 241.175663)scale(0.08 -0.08)">
       <defs>
        <path d="M 10.59375 35.5 
L 73.1875 35.5 
L 73.1875 27.203125 
L 10.59375 27.203125 
z
" id="DejaVuSans-8722"/>
        <path d="M 37.796875 64.3125 
L 12.890625 25.390625 
L 37.796875 25.390625 
z
M 35.203125 72.90625 
L 47.609375 72.90625 
L 47.609375 25.390625 
L 58.015625 25.390625 
L 58.015625 17.1875 
L 47.609375 17.1875 
L 47.609375 0 
L 37.796875 0 
L 37.796875 17.1875 
L 4.890625 17.1875 
L 4.890625 26.703125 
z
" id="DejaVuSans-52"/>
       </defs>
       <use transform="translate(0 0.09375)" xlink:href="#DejaVuSans-8722"/>
       <use transform="translate(83.789062 0.09375)" xlink:href="#DejaVuSans-52"/>
      </g>
     </g>
    </g>
    <g id="ytick_2">
     <g id="line2d_45">
      <path clip-path="url(#pece1c3be5d)" d="M 17.532262 189.607906 
L 573.165354 189.607906 
" style="fill:none;stroke:#000000;stroke-linecap:square;stroke-opacity:0.1;stroke-width:0.5;"/>
     </g>
     <g id="line2d_46">
      <g>
       <use style="stroke:#000000;stroke-width:0.5;" x="33.257727" xlink:href="#m1de6f65da0" y="189.607906"/>
      </g>
     </g>
     <g id="text_8">
      <!-- $\mathregular{-2}$ -->
      <g transform="translate(17.917727 192.647281)scale(0.08 -0.08)">
       <use transform="translate(0 0.78125)" xlink:href="#DejaVuSans-8722"/>
       <use transform="translate(83.789062 0.78125)" xlink:href="#DejaVuSans-50"/>
      </g>
     </g>
    </g>
    <g id="ytick_3">
     <g id="line2d_47">
      <path clip-path="url(#pece1c3be5d)" d="M 17.532262 141.079524 
L 573.165354 141.079524 
" style="fill:none;stroke:#000000;stroke-linecap:square;stroke-opacity:0.1;stroke-width:0.5;"/>
     </g>
     <g id="line2d_48">
      <g>
       <use style="stroke:#000000;stroke-width:0.5;" x="33.257727" xlink:href="#m1de6f65da0" y="141.079524"/>
      </g>
     </g>
     <g id="text_9">
      <!-- $\mathregular{}$ -->
      <g transform="translate(29.757727 144.118899)scale(0.08 -0.08)"/>
     </g>
    </g>
    <g id="ytick_4">
     <g id="line2d_49">
      <path clip-path="url(#pece1c3be5d)" d="M 17.532262 92.551142 
L 573.165354 92.551142 
" style="fill:none;stroke:#000000;stroke-linecap:square;stroke-opacity:0.1;stroke-width:0.5;"/>
     </g>
     <g id="line2d_50">
      <g>
       <use style="stroke:#000000;stroke-width:0.5;" x="33.257727" xlink:href="#m1de6f65da0" y="92.551142"/>
      </g>
     </g>
     <g id="text_10">
      <!-- $\mathregular{2}$ -->
      <g transform="translate(24.637727 95.590517)scale(0.08 -0.08)">
       <use transform="translate(0 0.78125)" xlink:href="#DejaVuSans-50"/>
      </g>
     </g>
    </g>
    <g id="ytick_5">
     <g id="line2d_51">
      <path clip-path="url(#pece1c3be5d)" d="M 17.532262 44.02276 
L 573.165354 44.02276 
" style="fill:none;stroke:#000000;stroke-linecap:square;stroke-opacity:0.1;stroke-width:0.5;"/>
     </g>
     <g id="line2d_52">
      <g>
       <use style="stroke:#000000;stroke-width:0.5;" x="33.257727" xlink:href="#m1de6f65da0" y="44.02276"/>
      </g>
     </g>
     <g id="text_11">
      <!-- $\mathregular{4}$ -->
      <g transform="translate(24.637727 47.062135)scale(0.08 -0.08)">
       <use transform="translate(0 0.09375)" xlink:href="#DejaVuSans-52"/>
      </g>
     </g>
    </g>
    <g id="ytick_6">
     <g id="line2d_53">
      <path clip-path="url(#pece1c3be5d)" d="M 17.532262 274.532575 
L 573.165354 274.532575 
" style="fill:none;stroke:#000000;stroke-linecap:square;stroke-opacity:0.05;stroke-width:0.5;"/>
     </g>
     <g id="line2d_54">
      <defs>
       <path d="M 0 0 
L 2 0 
" id="me0512d2d03" style="stroke:#000000;stroke-width:0.5;"/>
      </defs>
      <g>
       <use style="stroke:#000000;stroke-width:0.5;" x="33.257727" xlink:href="#me0512d2d03" y="274.532575"/>
      </g>
     </g>
    </g>
    <g id="ytick_7">
     <g id="line2d_55">
      <path clip-path="url(#pece1c3be5d)" d="M 17.532262 262.400479 
L 573.165354 262.400479 
" style="fill:none;stroke:#000000;stroke-linecap:square;stroke-opacity:0.05;stroke-width:0.5;"/>
     </g>
     <g id="line2d_56">
      <g>
       <use style="stroke:#000000;stroke-width:0.5;" x="33.257727" xlink:href="#me0512d2d03" y="262.400479"/>
      </g>
     </g>
    </g>
    <g id="ytick_8">
     <g id="line2d_57">
      <path clip-path="url(#pece1c3be5d)" d="M 17.532262 250.268384 
L 573.165354 250.268384 
" style="fill:none;stroke:#000000;stroke-linecap:square;stroke-opacity:0.05;stroke-width:0.5;"/>
     </g>
     <g id="line2d_58">
      <g>
       <use style="stroke:#000000;stroke-width:0.5;" x="33.257727" xlink:href="#me0512d2d03" y="250.268384"/>
      </g>
     </g>
    </g>
    <g id="ytick_9">
     <g id="line2d_59">
      <path clip-path="url(#pece1c3be5d)" d="M 17.532262 226.004193 
L 573.165354 226.004193 
" style="fill:none;stroke:#000000;stroke-linecap:square;stroke-opacity:0.05;stroke-width:0.5;"/>
     </g>
     <g id="line2d_60">
      <g>
       <use style="stroke:#000000;stroke-width:0.5;" x="33.257727" xlink:href="#me0512d2d03" y="226.004193"/>
      </g>
     </g>
    </g>
    <g id="ytick_10">
     <g id="line2d_61">
      <path clip-path="url(#pece1c3be5d)" d="M 17.532262 213.872097 
L 573.165354 213.872097 
" style="fill:none;stroke:#000000;stroke-linecap:square;stroke-opacity:0.05;stroke-width:0.5;"/>
     </g>
     <g id="line2d_62">
      <g>
       <use style="stroke:#000000;stroke-width:0.5;" x="33.257727" xlink:href="#me0512d2d03" y="213.872097"/>
      </g>
     </g>
    </g>
    <g id="ytick_11">
     <g id="line2d_63">
      <path clip-path="url(#pece1c3be5d)" d="M 17.532262 201.740002 
L 573.165354 201.740002 
" style="fill:none;stroke:#000000;stroke-linecap:square;stroke-opacity:0.05;stroke-width:0.5;"/>
     </g>
     <g id="line2d_64">
      <g>
       <use style="stroke:#000000;stroke-width:0.5;" x="33.257727" xlink:href="#me0512d2d03" y="201.740002"/>
      </g>
     </g>
    </g>
    <g id="ytick_12">
     <g id="line2d_65">
      <path clip-path="url(#pece1c3be5d)" d="M 17.532262 177.475811 
L 573.165354 177.475811 
" style="fill:none;stroke:#000000;stroke-linecap:square;stroke-opacity:0.05;stroke-width:0.5;"/>
     </g>
     <g id="line2d_66">
      <g>
       <use style="stroke:#000000;stroke-width:0.5;" x="33.257727" xlink:href="#me0512d2d03" y="177.475811"/>
      </g>
     </g>
    </g>
    <g id="ytick_13">
     <g id="line2d_67">
      <path clip-path="url(#pece1c3be5d)" d="M 17.532262 165.343715 
L 573.165354 165.343715 
" style="fill:none;stroke:#000000;stroke-linecap:square;stroke-opacity:0.05;stroke-width:0.5;"/>
     </g>
     <g id="line2d_68">
      <g>
       <use style="stroke:#000000;stroke-width:0.5;" x="33.257727" xlink:href="#me0512d2d03" y="165.343715"/>
      </g>
     </g>
    </g>
    <g id="ytick_14">
     <g id="line2d_69">
      <path clip-path="url(#pece1c3be5d)" d="M 17.532262 153.21162 
L 573.165354 153.21162 
" style="fill:none;stroke:#000000;stroke-linecap:square;stroke-opacity:0.05;stroke-width:0.5;"/>
     </g>
     <g id="line2d_70">
      <g>
       <use style="stroke:#000000;stroke-width:0.5;" x="33.257727" xlink:href="#me0512d2d03" y="153.21162"/>
      </g>
     </g>
    </g>
    <g id="ytick_15">
     <g id="line2d_71">
      <path clip-path="url(#pece1c3be5d)" d="M 17.532262 128.947429 
L 573.165354 128.947429 
" style="fill:none;stroke:#000000;stroke-linecap:square;stroke-opacity:0.05;stroke-width:0.5;"/>
     </g>
     <g id="line2d_72">
      <g>
       <use style="stroke:#000000;stroke-width:0.5;" x="33.257727" xlink:href="#me0512d2d03" y="128.947429"/>
      </g>
     </g>
    </g>
    <g id="ytick_16">
     <g id="line2d_73">
      <path clip-path="url(#pece1c3be5d)" d="M 17.532262 116.815333 
L 573.165354 116.815333 
" style="fill:none;stroke:#000000;stroke-linecap:square;stroke-opacity:0.05;stroke-width:0.5;"/>
     </g>
     <g id="line2d_74">
      <g>
       <use style="stroke:#000000;stroke-width:0.5;" x="33.257727" xlink:href="#me0512d2d03" y="116.815333"/>
      </g>
     </g>
    </g>
    <g id="ytick_17">
     <g id="line2d_75">
      <path clip-path="url(#pece1c3be5d)" d="M 17.532262 104.683238 
L 573.165354 104.683238 
" style="fill:none;stroke:#000000;stroke-linecap:square;stroke-opacity:0.05;stroke-width:0.5;"/>
     </g>
     <g id="line2d_76">
      <g>
       <use style="stroke:#000000;stroke-width:0.5;" x="33.257727" xlink:href="#me0512d2d03" y="104.683238"/>
      </g>
     </g>
    </g>
    <g id="ytick_18">
     <g id="line2d_77">
      <path clip-path="url(#pece1c3be5d)" d="M 17.532262 80.419046 
L 573.165354 80.419046 
" style="fill:none;stroke:#000000;stroke-linecap:square;stroke-opacity:0.05;stroke-width:0.5;"/>
     </g>
     <g id="line2d_78">
      <g>
       <use style="stroke:#000000;stroke-width:0.5;" x="33.257727" xlink:href="#me0512d2d03" y="80.419046"/>
      </g>
     </g>
    </g>
    <g id="ytick_19">
     <g id="line2d_79">
      <path clip-path="url(#pece1c3be5d)" d="M 17.532262 68.286951 
L 573.165354 68.286951 
" style="fill:none;stroke:#000000;stroke-linecap:square;stroke-opacity:0.05;stroke-width:0.5;"/>
     </g>
     <g id="line2d_80">
      <g>
       <use style="stroke:#000000;stroke-width:0.5;" x="33.257727" xlink:href="#me0512d2d03" y="68.286951"/>
      </g>
     </g>
    </g>
    <g id="ytick_20">
     <g id="line2d_81">
      <path clip-path="url(#pece1c3be5d)" d="M 17.532262 56.154855 
L 573.165354 56.154855 
" style="fill:none;stroke:#000000;stroke-linecap:square;stroke-opacity:0.05;stroke-width:0.5;"/>
     </g>
     <g id="line2d_82">
      <g>
       <use style="stroke:#000000;stroke-width:0.5;" x="33.257727" xlink:href="#me0512d2d03" y="56.154855"/>
      </g>
     </g>
    </g>
    <g id="ytick_21">
     <g id="line2d_83">
      <path clip-path="url(#pece1c3be5d)" d="M 17.532262 31.890664 
L 573.165354 31.890664 
" style="fill:none;stroke:#000000;stroke-linecap:square;stroke-opacity:0.05;stroke-width:0.5;"/>
     </g>
     <g id="line2d_84">
      <g>
       <use style="stroke:#000000;stroke-width:0.5;" x="33.257727" xlink:href="#me0512d2d03" y="31.890664"/>
      </g>
     </g>
    </g>
    <g id="ytick_22">
     <g id="line2d_85">
      <path clip-path="url(#pece1c3be5d)" d="M 17.532262 19.758569 
L 573.165354 19.758569 
" style="fill:none;stroke:#000000;stroke-linecap:square;stroke-opacity:0.05;stroke-width:0.5;"/>
     </g>
     <g id="line2d_86">
      <g>
       <use style="stroke:#000000;stroke-width:0.5;" x="33.257727" xlink:href="#me0512d2d03" y="19.758569"/>
      </g>
     </g>
    </g>
    <g id="ytick_23">
     <g id="line2d_87">
      <path clip-path="url(#pece1c3be5d)" d="M 17.532262 7.626473 
L 573.165354 7.626473 
" style="fill:none;stroke:#000000;stroke-linecap:square;stroke-opacity:0.05;stroke-width:0.5;"/>
     </g>
     <g id="line2d_88">
      <g>
       <use style="stroke:#000000;stroke-width:0.5;" x="33.257727" xlink:href="#me0512d2d03" y="7.626473"/>
      </g>
     </g>
    </g>
    <g id="text_12">
     <!-- A -->
     <g transform="translate(11.630071 11.347614)rotate(-90)scale(0.11 -0.11)">
      <defs>
       <path d="M 53.421875 13.28125 
L 24.03125 13.28125 
L 19.390625 0 
L 0.484375 0 
L 27.484375 72.90625 
L 49.90625 72.90625 
L 76.90625 0 
L 58.015625 0 
z
M 28.71875 26.8125 
L 48.6875 26.8125 
L 38.71875 55.8125 
z
" id="DejaVuSans-Bold-65"/>
      </defs>
      <use xlink:href="#DejaVuSans-Bold-65"/>
     </g>
    </g>
   </g>
   <g id="line2d_89">
    <path clip-path="url(#pece1c3be5d)" d="M 33.257727 141.079524 
L 39.023731 116.421919 
L 42.168824 104.02509 
L 44.789735 94.679792 
L 46.886463 88.016022 
L 48.983192 82.189095 
L 50.555738 78.423897 
L 52.128285 75.214835 
L 53.700831 72.590392 
L 54.749196 71.177276 
L 55.79756 70.040032 
L 56.845924 69.183148 
L 57.894289 68.610007 
L 58.942653 68.32287 
L 59.991017 68.32287 
L 61.039382 68.610007 
L 62.087746 69.183148 
L 63.13611 70.040032 
L 64.184475 71.177276 
L 65.232839 72.590392 
L 66.805385 75.214835 
L 68.377932 78.423897 
L 69.950478 82.189095 
L 71.523025 86.477009 
L 73.619753 92.940932 
L 75.716482 100.164029 
L 78.337393 110.085954 
L 81.482486 122.976747 
L 86.724308 145.650208 
L 91.441947 165.737129 
L 94.58704 178.133959 
L 97.207951 187.479256 
L 99.304679 194.143026 
L 101.401408 199.969953 
L 102.973955 203.735151 
L 104.546501 206.944213 
L 106.119048 209.568656 
L 107.167412 210.981772 
L 108.215776 212.119016 
L 109.26414 212.9759 
L 110.312505 213.549041 
L 111.360869 213.836178 
L 112.409233 213.836178 
L 113.457598 213.549041 
L 114.505962 212.9759 
L 115.554326 212.119016 
L 116.602691 210.981772 
L 117.651055 209.568656 
L 119.223602 206.944213 
L 120.796148 203.735151 
L 122.368695 199.969953 
L 123.941241 195.682039 
L 126.03797 189.218116 
L 128.134698 181.995019 
L 130.755609 172.073094 
L 133.900702 159.182301 
L 139.142524 136.508841 
L 143.860163 116.421919 
L 147.005256 104.02509 
L 149.626167 94.679792 
L 151.722896 88.016022 
L 153.819624 82.189095 
L 155.392171 78.423897 
L 156.964717 75.214835 
L 158.537264 72.590392 
L 159.585628 71.177276 
L 160.633992 70.040032 
L 161.682357 69.183148 
L 162.730721 68.610007 
L 163.779085 68.32287 
L 164.82745 68.32287 
L 165.875814 68.610007 
L 166.924178 69.183148 
L 167.972543 70.040032 
L 169.020907 71.177276 
L 170.069271 72.590392 
L 171.641818 75.214835 
L 173.214364 78.423897 
L 174.786911 82.189095 
L 176.359457 86.477009 
L 178.456186 92.940932 
L 180.552915 100.164029 
L 183.173825 110.085954 
L 186.318918 122.976747 
L 191.56074 145.650208 
L 196.278379 165.737129 
L 199.423472 178.133959 
L 202.044383 187.479256 
L 204.141112 194.143026 
L 206.237841 199.969953 
L 207.810387 203.735151 
L 209.382934 206.944213 
L 210.95548 209.568656 
L 212.003844 210.981772 
L 213.052209 212.119016 
L 214.100573 212.9759 
L 215.148937 213.549041 
L 216.197302 213.836178 
L 217.245666 213.836178 
L 218.29403 213.549041 
L 219.342395 212.9759 
L 220.390759 212.119016 
L 221.439123 210.981772 
L 222.487488 209.568656 
L 224.060034 206.944213 
L 225.632581 203.735151 
L 227.205127 199.969953 
L 228.777674 195.682039 
L 230.874402 189.218116 
L 232.971131 181.995019 
L 235.592042 172.073094 
L 238.737135 159.182301 
L 243.978956 136.508841 
L 248.696596 116.421919 
L 251.841689 104.02509 
L 254.4626 94.679792 
L 256.559328 88.016022 
L 258.656057 82.189095 
L 260.228603 78.423897 
L 261.80115 75.214835 
L 263.373696 72.590392 
L 264.422061 71.177276 
L 265.470425 70.040032 
L 266.518789 69.183148 
L 267.567154 68.610007 
L 268.615518 68.32287 
L 269.663882 68.32287 
L 270.712247 68.610007 
L 271.760611 69.183148 
L 272.808975 70.040032 
L 273.85734 71.177276 
L 274.905704 72.590392 
L 276.47825 75.214835 
L 278.050797 78.423897 
L 279.623343 82.189095 
L 281.19589 86.477009 
L 283.292618 92.940932 
L 285.389347 100.164029 
L 288.010258 110.085954 
L 291.155351 122.976747 
L 296.397173 145.650208 
L 301.114812 165.737129 
L 304.259905 178.133959 
L 306.880816 187.479256 
L 308.977544 194.143026 
L 311.074273 199.969953 
L 312.64682 203.735151 
L 314.219366 206.944213 
L 315.791913 209.568656 
L 316.840277 210.981772 
L 317.888641 212.119016 
L 318.937006 212.9759 
L 319.98537 213.549041 
L 321.033734 213.836178 
L 322.082098 213.836178 
L 323.130463 213.549041 
L 324.178827 212.9759 
L 325.227191 212.119016 
L 326.275556 210.981772 
L 327.32392 209.568656 
L 328.896467 206.944213 
L 330.469013 203.735151 
L 332.04156 199.969953 
L 333.614106 195.682039 
L 335.710835 189.218116 
L 337.807563 181.995019 
L 340.428474 172.073094 
L 343.573567 159.182301 
L 348.815389 136.508841 
L 353.533028 116.421919 
L 356.678121 104.02509 
L 359.299032 94.679792 
L 361.395761 88.016022 
L 363.492489 82.189095 
L 365.065036 78.423897 
L 366.637582 75.214835 
L 368.210129 72.590392 
L 369.258493 71.177276 
L 370.306857 70.040032 
L 371.355222 69.183148 
L 372.403586 68.610007 
L 373.45195 68.32287 
L 374.500315 68.32287 
L 375.548679 68.610007 
L 376.597043 69.183148 
L 377.645408 70.040032 
L 378.693772 71.177276 
L 379.742136 72.590392 
L 381.314683 75.214835 
L 382.887229 78.423897 
L 384.459776 82.189095 
L 386.032322 86.477009 
L 388.129051 92.940932 
L 390.22578 100.164029 
L 392.84669 110.085954 
L 395.991783 122.976747 
L 401.233605 145.650208 
L 405.951244 165.737129 
L 409.096337 178.133959 
L 411.717248 187.479256 
L 413.813977 194.143026 
L 415.910706 199.969953 
L 417.483252 203.735151 
L 419.055799 206.944213 
L 420.628345 209.568656 
L 421.676709 210.981772 
L 422.725074 212.119016 
L 423.773438 212.9759 
L 424.821802 213.549041 
L 425.870167 213.836178 
L 426.918531 213.836178 
L 427.966895 213.549041 
L 429.01526 212.9759 
L 430.063624 212.119016 
L 431.111988 210.981772 
L 432.160353 209.568656 
L 433.732899 206.944213 
L 435.305446 203.735151 
L 436.877992 199.969953 
L 438.450539 195.682039 
L 440.547267 189.218116 
L 442.643996 181.995019 
L 445.264907 172.073094 
L 448.41 159.182301 
L 453.651821 136.508841 
L 458.369461 116.421919 
L 461.514554 104.02509 
L 464.135465 94.679792 
L 466.232193 88.016022 
L 468.328922 82.189095 
L 469.901468 78.423897 
L 471.474015 75.214835 
L 473.046561 72.590392 
L 474.094926 71.177276 
L 475.14329 70.040032 
L 476.191654 69.183148 
L 477.240019 68.610007 
L 478.288383 68.32287 
L 479.336747 68.32287 
L 480.385112 68.610007 
L 481.433476 69.183148 
L 482.48184 70.040032 
L 483.530205 71.177276 
L 484.578569 72.590392 
L 486.151115 75.214835 
L 487.723662 78.423897 
L 489.296208 82.189095 
L 490.868755 86.477009 
L 492.965483 92.940932 
L 495.062212 100.164029 
L 497.683123 110.085954 
L 500.828216 122.976747 
L 506.070038 145.650208 
L 510.787677 165.737129 
L 513.93277 178.133959 
L 516.553681 187.479256 
L 518.650409 194.143026 
L 520.747138 199.969953 
L 522.319685 203.735151 
L 523.892231 206.944213 
L 525.464778 209.568656 
L 526.513142 210.981772 
L 527.561506 212.119016 
L 528.609871 212.9759 
L 529.658235 213.549041 
L 530.706599 213.836178 
L 531.754963 213.836178 
L 532.803328 213.549041 
L 533.851692 212.9759 
L 534.900056 212.119016 
L 535.948421 210.981772 
L 536.996785 209.568656 
L 538.569332 206.944213 
L 540.141878 203.735151 
L 541.714425 199.969953 
L 543.286971 195.682039 
L 545.3837 189.218116 
L 547.480428 181.995019 
L 550.101339 172.073094 
L 553.246432 159.182301 
L 557.439889 141.079524 
L 557.439889 141.079524 
" style="fill:none;stroke:#009afa;stroke-width:4;"/>
   </g>
   <g id="line2d_90">
    <path clip-path="url(#pece1c3be5d)" d="M 33.257727 158.417371 
L 33.781909 124.298171 
L 34.306091 77.376076 
L 35.354456 108.090896 
L 35.878638 100.568258 
L 36.40282 101.028452 
L 36.927002 112.855334 
L 37.451184 135.026397 
L 37.975366 110.173574 
L 38.499549 142.182269 
L 39.023731 96.104716 
L 39.547913 121.11709 
L 40.072095 88.538467 
L 40.596277 98.244085 
L 41.120459 68.397977 
L 41.644642 71.116284 
L 42.168824 80.202768 
L 42.693006 96.240253 
L 43.217188 60.345418 
L 43.74137 91.40516 
L 44.265552 101.958626 
L 44.789735 87.738164 
L 45.313917 104.975349 
L 45.838099 114.848357 
L 46.362281 72.975743 
L 46.886463 85.86819 
L 47.410645 74.852607 
L 47.934827 82.129611 
L 48.45901 36.590801 
L 48.983192 68.187846 
L 49.507374 73.011519 
L 50.031556 89.115225 
L 50.555738 133.220326 
L 51.07992 97.201037 
L 51.604103 79.154037 
L 52.128285 125.14142 
L 52.652467 84.025255 
L 53.176649 73.796582 
L 53.700831 110.090515 
L 54.225013 66.909526 
L 54.749196 72.562327 
L 55.273378 47.470523 
L 55.79756 105.443334 
L 56.321742 66.46327 
L 56.845924 68.936808 
L 57.370106 36.499042 
L 57.894289 124.18998 
L 58.942653 74.679716 
L 59.466835 80.304689 
L 59.991017 58.569777 
L 60.515199 52.544356 
L 61.039382 60.551543 
L 61.563564 28.60633 
L 62.087746 41.816031 
L 62.611928 63.669162 
L 63.13611 56.326616 
L 63.660292 60.932629 
L 64.184475 84.710879 
L 64.708657 47.471853 
L 65.232839 65.732984 
L 65.757021 71.800746 
L 66.281203 58.903451 
L 66.805385 73.600261 
L 67.329567 71.368485 
L 67.85375 72.19995 
L 68.377932 74.44823 
L 68.902114 78.509209 
L 69.426296 42.33328 
L 69.950478 41.842101 
L 70.47466 76.237082 
L 70.998843 122.414435 
L 71.523025 136.105916 
L 72.047207 97.984738 
L 72.571389 101.047906 
L 73.095571 109.086522 
L 73.619753 69.098146 
L 74.143936 94.970657 
L 74.668118 85.83469 
L 75.1923 85.288789 
L 75.716482 91.071351 
L 76.240664 101.700563 
L 76.764846 136.916558 
L 77.289029 132.549272 
L 77.813211 129.630719 
L 78.337393 140.908202 
L 78.861575 156.411182 
L 79.385757 120.280311 
L 80.434122 145.65969 
L 81.482486 89.450601 
L 82.006668 163.613598 
L 82.53085 123.380576 
L 83.055032 156.569597 
L 83.579215 152.476794 
L 84.627579 140.746275 
L 85.151761 114.063977 
L 85.675943 144.938698 
L 86.200125 131.684197 
L 86.724308 145.293921 
L 87.24849 140.601474 
L 87.772672 138.36585 
L 88.296854 129.583161 
L 88.821036 145.186683 
L 89.345218 169.795389 
L 89.8694 137.521651 
L 90.393583 175.293596 
L 90.917765 154.018787 
L 91.441947 166.957815 
L 91.966129 176.402116 
L 92.490311 131.67503 
L 93.538676 147.67617 
L 94.062858 158.797264 
L 94.58704 207.442237 
L 95.111222 154.486445 
L 95.635404 169.387615 
L 96.159586 149.198871 
L 96.683769 210.698492 
L 97.207951 210.869933 
L 97.732133 152.550025 
L 98.256315 201.95938 
L 98.780497 202.357078 
L 99.304679 168.944209 
L 99.828862 194.16119 
L 100.353044 179.401672 
L 100.877226 180.038468 
L 101.401408 185.519631 
L 101.92559 219.314534 
L 102.449772 232.251228 
L 102.973955 202.141973 
L 103.498137 211.09769 
L 104.022319 213.916956 
L 104.546501 238.80448 
L 105.070683 238.541617 
L 105.594865 201.213058 
L 106.119048 198.252958 
L 106.64323 231.051998 
L 107.167412 226.887487 
L 108.215776 208.876944 
L 108.739958 248.085981 
L 109.26414 253.061597 
L 109.788323 228.781817 
L 110.312505 215.350408 
L 110.836687 250.352673 
L 111.360869 207.846064 
L 111.885051 199.398977 
L 112.409233 268.35508 
L 112.933416 161.13461 
L 113.457598 191.214269 
L 113.98178 211.889478 
L 114.505962 189.24178 
L 115.030144 181.809904 
L 115.554326 207.780184 
L 116.078509 172.035859 
L 116.602691 217.668187 
L 117.126873 222.559374 
L 117.651055 221.984352 
L 118.175237 214.26331 
L 119.223602 177.748502 
L 119.747784 161.180942 
L 120.271966 157.091373 
L 120.796148 176.171626 
L 121.32033 209.746366 
L 121.844512 185.146153 
L 122.368695 199.580408 
L 122.892877 208.853321 
L 123.417059 177.680716 
L 123.941241 188.751436 
L 124.465423 190.919754 
L 124.989605 206.431457 
L 126.03797 175.024746 
L 126.562152 178.64 
L 127.086334 194.172089 
L 127.610516 187.969858 
L 128.134698 211.650144 
L 128.658881 212.079111 
L 129.707245 189.381156 
L 130.231427 183.701469 
L 130.755609 195.194999 
L 131.279791 161.066353 
L 131.803973 188.594104 
L 132.328156 149.61034 
L 132.852338 187.6169 
L 133.37652 171.883002 
L 133.900702 131.735751 
L 134.424884 146.87917 
L 134.949066 166.84767 
L 135.473249 195.678782 
L 135.997431 153.220203 
L 136.521613 157.465875 
L 137.045795 157.0007 
L 137.569977 119.510561 
L 138.094159 150.564925 
L 138.618342 129.144997 
L 139.142524 102.195294 
L 139.666706 95.689958 
L 140.190888 123.521825 
L 140.71507 133.894336 
L 141.239252 140.428689 
L 141.763435 124.445746 
L 142.287617 103.931256 
L 142.811799 102.065172 
L 143.335981 97.386174 
L 143.860163 126.22616 
L 144.384345 98.677827 
L 144.908528 81.283167 
L 145.43271 34.512168 
L 145.956892 92.435439 
L 146.481074 55.222284 
L 147.005256 82.652472 
L 147.529438 117.889847 
L 148.053621 112.038858 
L 148.577803 101.479804 
L 149.101985 131.305057 
L 149.626167 119.980678 
L 150.150349 85.171913 
L 150.674531 82.104753 
L 151.198713 81.4489 
L 151.722896 76.271454 
L 152.247078 34.986354 
L 152.77126 101.299396 
L 153.295442 79.237453 
L 153.819624 108.337493 
L 154.343806 110.242998 
L 154.867989 107.974179 
L 155.392171 101.398114 
L 155.916353 107.922586 
L 156.440535 120.700542 
L 156.964717 112.736785 
L 157.488899 109.258654 
L 158.013082 90.983883 
L 158.537264 78.263465 
L 159.061446 53.271451 
L 159.585628 64.073036 
L 160.10981 85.068784 
L 160.633992 90.891633 
L 161.158175 108.202128 
L 161.682357 60.175699 
L 162.206539 117.006078 
L 162.730721 88.223105 
L 163.254903 73.938989 
L 163.779085 84.704448 
L 164.303268 53.804591 
L 164.82745 92.915518 
L 165.351632 53.8958 
L 165.875814 61.71515 
L 166.399996 43.270165 
L 166.924178 46.983965 
L 167.448361 44.991381 
L 167.972543 95.930764 
L 168.496725 63.874615 
L 169.020907 70.683324 
L 169.545089 84.278921 
L 170.069271 48.00696 
L 170.593454 79.52966 
L 171.117636 77.19977 
L 171.641818 57.856844 
L 172.166 68.111525 
L 172.690182 66.167327 
L 173.738546 33.728171 
L 174.786911 77.358032 
L 175.311093 65.924752 
L 175.835275 100.5637 
L 176.359457 113.940114 
L 176.883639 120.54731 
L 177.407822 53.918397 
L 177.932004 100.433459 
L 178.456186 84.643832 
L 178.980368 74.162088 
L 179.50455 81.244129 
L 180.028732 80.720407 
L 181.077097 123.88119 
L 181.601279 95.395273 
L 182.125461 127.956953 
L 182.649643 118.928961 
L 183.173825 147.39702 
L 183.698008 102.396821 
L 184.22219 117.210618 
L 184.746372 101.207575 
L 185.270554 128.632038 
L 185.794736 95.800593 
L 186.318918 122.380686 
L 186.843101 126.513584 
L 187.367283 112.703897 
L 187.891465 145.265949 
L 188.415647 132.61866 
L 188.939829 178.521253 
L 189.464011 156.012042 
L 189.988194 122.08391 
L 190.512376 124.077955 
L 191.036558 101.157937 
L 191.56074 126.955253 
L 192.084922 125.990875 
L 192.609104 143.508646 
L 193.133286 122.414438 
L 193.657469 139.22019 
L 194.181651 138.229832 
L 194.705833 168.235997 
L 195.230015 179.452076 
L 195.754197 183.777231 
L 196.278379 182.721679 
L 196.802562 171.146659 
L 197.326744 134.552419 
L 197.850926 140.794877 
L 198.375108 181.663905 
L 198.89929 168.692627 
L 199.423472 142.964128 
L 199.947655 141.045229 
L 200.471837 122.699651 
L 200.996019 220.600627 
L 201.520201 182.671352 
L 202.044383 197.625418 
L 202.568565 201.302509 
L 203.092748 212.705294 
L 203.61693 210.024255 
L 204.141112 173.529617 
L 204.665294 188.876468 
L 205.189476 184.306448 
L 205.713658 188.650542 
L 206.237841 184.213718 
L 206.762023 200.804686 
L 207.286205 183.319592 
L 207.810387 229.940874 
L 208.334569 240.758701 
L 208.858751 224.8065 
L 209.382934 216.774289 
L 209.907116 232.845981 
L 210.431298 240.892161 
L 210.95548 199.019776 
L 212.003844 211.578792 
L 212.528027 174.864455 
L 213.052209 221.453339 
L 213.576391 210.024439 
L 214.100573 250.347157 
L 214.624755 246.643204 
L 215.148937 219.795382 
L 215.673119 202.955489 
L 216.197302 206.382566 
L 216.721484 218.726877 
L 217.245666 188.754374 
L 217.769848 229.801757 
L 218.29403 193.408665 
L 218.818212 192.922435 
L 219.342395 219.833292 
L 219.866577 235.927864 
L 220.390759 179.814024 
L 220.914941 250.113139 
L 221.439123 196.890402 
L 221.963305 214.752096 
L 222.487488 167.190576 
L 223.01167 233.597404 
L 223.535852 173.64649 
L 224.060034 184.015129 
L 224.584216 178.124553 
L 225.108398 221.300252 
L 225.632581 202.444321 
L 226.156763 208.752878 
L 226.680945 181.318217 
L 227.205127 195.999963 
L 227.729309 219.49818 
L 228.253491 228.579562 
L 228.777674 211.963273 
L 229.301856 159.16964 
L 229.826038 222.637944 
L 230.35022 188.58623 
L 230.874402 165.566558 
L 231.398584 162.392042 
L 231.922767 149.701786 
L 232.446949 214.872361 
L 232.971131 198.32901 
L 233.495313 217.44326 
L 234.019495 182.537589 
L 234.543677 179.502475 
L 235.592042 221.997912 
L 236.116224 181.307759 
L 236.640406 158.763725 
L 237.164588 186.74591 
L 237.68877 139.329444 
L 238.212952 153.690032 
L 238.737135 188.867095 
L 239.261317 150.060647 
L 239.785499 131.143856 
L 240.309681 163.035496 
L 240.833863 172.531827 
L 241.358045 193.257011 
L 241.882228 192.718081 
L 242.930592 117.297702 
L 243.454774 143.042543 
L 243.978956 136.248728 
L 244.503138 120.377077 
L 245.027321 117.351406 
L 245.551503 109.732133 
L 246.075685 143.259736 
L 246.599867 97.127798 
L 247.124049 145.545645 
L 247.648231 96.215831 
L 248.172414 110.941743 
L 248.696596 140.645725 
L 249.220778 106.903422 
L 249.74496 91.389475 
L 250.269142 92.512426 
L 250.793324 87.145783 
L 251.317507 69.884638 
L 251.841689 88.768079 
L 252.365871 85.553962 
L 252.890053 88.201636 
L 253.414235 86.617517 
L 253.938417 103.608037 
L 254.4626 92.666717 
L 254.986782 113.422231 
L 255.510964 121.047151 
L 256.035146 123.396704 
L 256.559328 101.765075 
L 257.08351 70.513568 
L 257.607692 60.807914 
L 258.656057 98.309677 
L 259.180239 77.045113 
L 259.704421 73.271167 
L 260.228603 106.008393 
L 260.752785 94.336736 
L 261.276968 106.378795 
L 261.80115 112.672431 
L 262.849514 81.938349 
L 263.373696 81.787917 
L 263.897878 68.761988 
L 264.422061 77.25929 
L 264.946243 56.122345 
L 265.470425 59.176374 
L 265.994607 80.948827 
L 266.518789 45.495462 
L 267.567154 104.031206 
L 268.091336 99.6531 
L 268.615518 61.202356 
L 269.1397 65.613193 
L 269.663882 87.444875 
L 270.188064 39.394228 
L 270.712247 56.275734 
L 271.236429 32.412709 
L 271.760611 66.101629 
L 272.284793 64.517485 
L 272.808975 69.595427 
L 273.333157 76.222076 
L 273.85734 69.896805 
L 274.381522 102.113926 
L 274.905704 65.988123 
L 275.429886 64.55782 
L 275.954068 32.985864 
L 276.47825 39.631252 
L 277.002433 11.87974 
L 277.526615 47.561799 
L 278.050797 66.854806 
L 278.574979 66.890627 
L 279.099161 82.196487 
L 279.623343 105.792547 
L 280.147525 108.518237 
L 280.671708 92.492595 
L 281.19589 91.55821 
L 281.720072 95.729838 
L 282.244254 108.219994 
L 282.768436 82.917591 
L 283.292618 89.169227 
L 283.816801 103.7324 
L 284.340983 107.792664 
L 284.865165 100.19904 
L 285.389347 130.125091 
L 285.913529 129.767097 
L 286.961894 113.574311 
L 287.486076 155.632839 
L 288.010258 138.762323 
L 288.53444 138.849271 
L 289.058622 116.184652 
L 289.582804 132.46569 
L 290.106987 71.666949 
L 290.631169 95.301621 
L 291.155351 109.390178 
L 291.679533 84.126412 
L 292.203715 134.558777 
L 292.727897 157.516426 
L 293.25208 108.838892 
L 293.776262 146.48143 
L 294.300444 146.509862 
L 294.824626 155.5488 
L 295.348808 157.30944 
L 295.87299 151.583968 
L 296.397173 126.942663 
L 296.921355 121.476319 
L 297.445537 106.651812 
L 297.969719 122.044354 
L 298.493901 150.888899 
L 299.018083 164.059034 
L 299.542265 162.792414 
L 300.066448 173.809254 
L 300.59063 165.170294 
L 301.114812 170.126923 
L 301.638994 116.152738 
L 302.163176 180.454035 
L 302.687358 129.877554 
L 303.211541 163.400889 
L 303.735723 127.31507 
L 304.259905 140.276836 
L 304.784087 159.286886 
L 305.308269 168.735099 
L 305.832451 183.0577 
L 306.356634 212.474888 
L 306.880816 204.536212 
L 307.404998 167.299999 
L 307.92918 205.471417 
L 308.453362 224.345271 
L 308.977544 160.724524 
L 309.501727 189.984038 
L 310.025909 169.216503 
L 310.550091 178.436239 
L 311.074273 218.330153 
L 311.598455 177.857739 
L 312.122637 238.430831 
L 312.64682 219.30263 
L 313.171002 277.174863 
L 313.695184 222.333314 
L 314.219366 225.336938 
L 314.743548 235.027231 
L 315.26773 219.139726 
L 315.791913 231.52413 
L 316.316095 203.680191 
L 316.840277 222.891292 
L 317.364459 210.502492 
L 317.888641 237.843942 
L 318.412823 237.247278 
L 318.937006 222.000671 
L 319.461188 254.970338 
L 319.98537 228.770954 
L 320.509552 213.282454 
L 321.033734 259.22721 
L 321.557916 213.416218 
L 322.082098 195.655229 
L 322.606281 189.560431 
L 323.130463 165.509329 
L 323.654645 194.674329 
L 324.178827 206.9118 
L 324.703009 205.799046 
L 325.227191 224.599882 
L 325.751374 221.743901 
L 326.275556 223.462948 
L 326.799738 207.025179 
L 327.32392 182.718009 
L 327.848102 180.383547 
L 328.372284 194.759001 
L 328.896467 175.625675 
L 329.420649 175.713921 
L 329.944831 190.231517 
L 330.469013 178.282369 
L 330.993195 203.494897 
L 331.517377 190.172408 
L 332.04156 203.212839 
L 332.565742 168.683798 
L 333.089924 211.199161 
L 333.614106 202.414594 
L 334.138288 218.092576 
L 334.66247 171.719538 
L 335.186653 218.053806 
L 335.710835 166.31893 
L 336.235017 212.09176 
L 336.759199 184.998965 
L 337.283381 203.920216 
L 337.807563 227.097787 
L 338.855928 185.860372 
L 339.38011 235.373531 
L 340.952656 184.485055 
L 341.476838 154.229519 
L 342.001021 171.917678 
L 342.525203 130.931385 
L 343.049385 152.564014 
L 343.573567 153.543172 
L 344.097749 176.081376 
L 344.621931 143.114403 
L 345.146114 167.612449 
L 345.670296 170.013297 
L 346.194478 148.693827 
L 346.71866 183.613526 
L 347.242842 162.710334 
L 347.767024 151.946909 
L 348.291207 130.002586 
L 348.815389 118.66571 
L 349.339571 119.481277 
L 349.863753 123.967816 
L 350.387935 107.308408 
L 350.912117 98.398908 
L 351.4363 94.460926 
L 351.960482 165.83551 
L 352.484664 119.884334 
L 353.008846 96.584411 
L 353.533028 118.784629 
L 354.05721 118.667243 
L 354.581393 112.373926 
L 355.105575 88.586107 
L 356.678121 58.808468 
L 357.202303 56.661335 
L 357.726486 102.325424 
L 358.250668 112.981036 
L 358.77485 98.776112 
L 359.299032 120.758446 
L 359.823214 91.177288 
L 360.347396 85.005422 
L 360.871579 98.794222 
L 361.395761 77.346575 
L 361.919943 81.83217 
L 362.444125 61.364988 
L 362.968307 54.689243 
L 363.492489 77.957679 
L 364.016671 83.482274 
L 364.540854 56.820294 
L 365.065036 65.44827 
L 365.589218 120.2832 
L 366.1134 97.195852 
L 366.637582 97.973789 
L 367.685947 68.417217 
L 368.210129 95.192646 
L 368.734311 72.949324 
L 369.258493 93.584109 
L 369.782675 68.873031 
L 370.306857 99.046292 
L 370.83104 110.327736 
L 371.355222 85.572593 
L 371.879404 70.9941 
L 372.403586 107.421943 
L 372.927768 108.760332 
L 373.45195 87.603382 
L 373.976133 79.568386 
L 374.500315 10.825137 
L 375.024497 53.802281 
L 375.548679 64.077012 
L 376.072861 43.775478 
L 377.121226 66.686837 
L 377.645408 58.441874 
L 378.16959 40.854 
L 379.217954 97.268042 
L 379.742136 110.885717 
L 380.266319 47.038343 
L 380.790501 54.438755 
L 381.314683 63.584261 
L 382.363047 55.485948 
L 382.887229 42.081507 
L 383.411411 58.943538 
L 383.935594 51.07061 
L 384.983958 96.620721 
L 385.50814 113.425157 
L 386.032322 109.14584 
L 386.556504 91.489219 
L 387.080687 89.088325 
L 387.604869 85.912209 
L 388.129051 114.496895 
L 388.653233 96.059802 
L 389.177415 84.087994 
L 389.701597 119.145884 
L 390.22578 131.429499 
L 390.749962 125.109813 
L 391.274144 157.349834 
L 391.798326 129.364743 
L 392.322508 147.842917 
L 392.84669 134.41727 
L 393.370873 149.937151 
L 393.895055 124.513887 
L 394.419237 113.932916 
L 394.943419 129.432216 
L 395.467601 138.876825 
L 395.991783 122.291704 
L 396.515966 121.855608 
L 397.040148 149.97547 
L 397.56433 117.911084 
L 398.088512 152.880631 
L 398.612694 154.76213 
L 399.136876 136.617269 
L 400.185241 177.454906 
L 400.709423 106.29674 
L 401.233605 121.965905 
L 401.757787 154.635614 
L 402.281969 114.585967 
L 402.806152 119.222431 
L 403.330334 126.272462 
L 403.854516 109.109994 
L 404.378698 181.002847 
L 404.90288 178.835005 
L 405.427062 159.027415 
L 405.951244 171.839563 
L 406.475427 180.53054 
L 406.999609 151.582796 
L 407.523791 154.602587 
L 408.047973 153.036835 
L 408.572155 129.308205 
L 409.096337 154.501183 
L 409.62052 160.042795 
L 410.144702 151.918383 
L 410.668884 195.09164 
L 411.193066 172.906636 
L 411.717248 190.883087 
L 412.24143 193.950254 
L 412.765613 248.316374 
L 413.289795 183.826651 
L 413.813977 169.684856 
L 414.338159 176.036647 
L 414.862341 189.425285 
L 415.386523 222.331505 
L 415.910706 170.677855 
L 416.434888 199.620272 
L 416.95907 235.220453 
L 417.483252 229.460604 
L 418.007434 235.548139 
L 418.531616 264.36065 
L 419.055799 254.404722 
L 419.579981 237.810366 
L 420.104163 261.05524 
L 420.628345 231.51354 
L 421.152527 179.203607 
L 421.676709 170.229296 
L 422.725074 229.400271 
L 423.249256 220.150971 
L 423.773438 230.213406 
L 424.29762 233.801411 
L 424.821802 276.835529 
L 425.345984 191.832548 
L 425.870167 216.337709 
L 426.394349 202.646453 
L 426.918531 210.306614 
L 427.442713 199.916658 
L 427.966895 184.635731 
L 428.491077 197.012939 
L 429.01526 175.56784 
L 429.539442 180.467809 
L 430.063624 190.800092 
L 430.587806 185.914252 
L 431.111988 227.909663 
L 431.63617 252.551937 
L 432.160353 224.931018 
L 432.684535 220.047218 
L 433.208717 179.430324 
L 433.732899 163.601863 
L 434.257081 163.403672 
L 435.305446 204.56834 
L 435.829628 200.570707 
L 436.35381 215.358318 
L 436.877992 186.957548 
L 437.402174 202.571805 
L 437.926356 201.51186 
L 438.450539 216.812271 
L 438.974721 211.024661 
L 439.498903 184.430173 
L 440.023085 216.551222 
L 440.547267 206.940432 
L 441.071449 182.022507 
L 441.595632 181.961423 
L 442.119814 163.983315 
L 442.643996 193.86422 
L 443.168178 198.559912 
L 443.69236 191.52764 
L 444.216542 214.893197 
L 444.740725 211.716232 
L 445.264907 177.201747 
L 445.789089 170.541301 
L 446.313271 165.974111 
L 446.837453 192.637307 
L 447.361635 149.268239 
L 448.41 168.630707 
L 448.934182 169.701421 
L 449.458364 204.873998 
L 449.982546 165.359224 
L 450.506728 158.178478 
L 451.03091 177.922478 
L 451.555093 176.826603 
L 452.079275 159.184045 
L 452.603457 160.394037 
L 453.127639 134.14059 
L 454.176003 116.363069 
L 454.700186 112.486336 
L 455.224368 105.755017 
L 456.272732 115.037459 
L 456.796914 146.97412 
L 457.321096 123.118597 
L 457.845279 92.25378 
L 458.369461 117.988612 
L 458.893643 101.282118 
L 459.417825 108.624183 
L 459.942007 103.939355 
L 460.466189 50.948367 
L 460.990372 67.255026 
L 461.514554 136.952648 
L 462.038736 84.601732 
L 462.562918 111.028207 
L 463.0871 68.022083 
L 463.611282 93.104637 
L 464.135465 105.59074 
L 464.659647 96.314568 
L 465.183829 93.349708 
L 465.708011 104.041174 
L 466.232193 94.486194 
L 466.756375 89.421177 
L 467.280557 72.046433 
L 467.80474 63.184701 
L 468.328922 100.568533 
L 468.853104 70.085572 
L 469.377286 87.586677 
L 469.901468 79.975888 
L 470.42565 117.074858 
L 470.949833 73.328671 
L 471.474015 128.371752 
L 471.998197 95.152626 
L 472.522379 118.791879 
L 473.046561 82.039081 
L 473.570743 87.429357 
L 474.094926 77.828103 
L 474.619108 74.530698 
L 475.14329 60.787093 
L 475.667472 68.570256 
L 476.191654 86.445082 
L 477.240019 103.261042 
L 477.764201 116.837655 
L 478.812565 69.752126 
L 479.336747 57.721071 
L 479.860929 14.669554 
L 480.385112 65.987038 
L 480.909294 58.690915 
L 481.433476 53.857369 
L 481.957658 52.420448 
L 482.48184 55.57904 
L 483.006022 67.442662 
L 483.530205 61.543976 
L 484.054387 101.027772 
L 484.578569 64.32726 
L 485.102751 97.553922 
L 485.626933 48.990062 
L 486.151115 68.219637 
L 486.675298 57.922654 
L 487.19948 50.682064 
L 487.723662 56.388874 
L 488.247844 19.650048 
L 488.772026 60.514108 
L 489.296208 92.149982 
L 489.82039 103.676339 
L 490.344573 94.176512 
L 490.868755 103.746463 
L 491.392937 92.210743 
L 491.917119 95.369999 
L 492.441301 99.548823 
L 492.965483 83.631631 
L 493.489666 104.642025 
L 494.013848 99.407179 
L 494.53803 63.897603 
L 495.062212 119.467031 
L 495.586394 97.425061 
L 496.110576 133.713479 
L 496.634759 129.271993 
L 497.158941 120.676657 
L 497.683123 105.615231 
L 498.731487 150.150507 
L 499.255669 104.59845 
L 499.779852 129.155027 
L 500.304034 117.415028 
L 500.828216 119.761067 
L 501.352398 138.115513 
L 501.87658 127.762733 
L 502.400762 156.531719 
L 502.924945 149.065199 
L 503.449127 129.49101 
L 503.973309 150.86118 
L 504.497491 165.346821 
L 505.021673 114.111698 
L 505.545855 132.259676 
L 506.070038 123.827737 
L 506.59422 158.874716 
L 507.118402 145.546328 
L 507.642584 147.244535 
L 508.166766 133.764886 
L 508.690948 174.538842 
L 509.215131 149.847255 
L 509.739313 165.967722 
L 510.263495 155.738623 
L 510.787677 163.561727 
L 511.311859 144.241411 
L 511.836041 173.587117 
L 512.360223 145.598674 
L 512.884406 126.158086 
L 513.408588 165.028541 
L 513.93277 157.302985 
L 514.456952 176.218672 
L 514.981134 182.034944 
L 515.505316 184.046292 
L 516.029499 161.964001 
L 516.553681 197.625218 
L 517.077863 202.820189 
L 517.602045 184.104338 
L 518.126227 169.457922 
L 518.650409 179.413531 
L 519.174592 206.004276 
L 519.698774 173.812872 
L 520.222956 203.432287 
L 520.747138 216.087574 
L 521.27132 199.390102 
L 521.795502 240.067794 
L 522.319685 218.426428 
L 522.843867 210.421969 
L 523.368049 263.60546 
L 523.892231 234.670927 
L 524.416413 199.447704 
L 524.940595 239.788536 
L 525.464778 219.236752 
L 525.98896 213.541936 
L 526.513142 221.23034 
L 527.037324 212.966118 
L 527.561506 212.637293 
L 528.085688 240.648285 
L 528.609871 232.824835 
L 529.134053 249.795761 
L 529.658235 228.299885 
L 530.182417 258.4894 
L 530.706599 258.525611 
L 531.230781 244.685283 
L 531.754963 223.588512 
L 532.279146 213.982474 
L 532.803328 179.414442 
L 533.32751 223.244886 
L 533.851692 193.76386 
L 534.375874 183.852171 
L 534.900056 214.225081 
L 535.424239 218.005927 
L 535.948421 206.12372 
L 536.472603 223.223713 
L 536.996785 218.305337 
L 537.520967 203.069233 
L 538.045149 218.492397 
L 538.569332 184.406831 
L 539.617696 197.78293 
L 540.141878 214.461733 
L 541.190242 178.074376 
L 541.714425 187.047972 
L 542.238607 188.04478 
L 542.762789 196.876214 
L 543.286971 191.304848 
L 543.811153 213.080587 
L 544.335335 195.735984 
L 544.859518 190.332635 
L 545.3837 191.725233 
L 545.907882 189.023889 
L 546.432064 190.106368 
L 546.956246 170.530558 
L 547.480428 210.809672 
L 548.528793 189.993458 
L 549.052975 159.394718 
L 549.577157 188.956382 
L 550.101339 206.055046 
L 550.625521 179.582998 
L 551.149704 194.362928 
L 551.673886 131.925915 
L 552.198068 171.782665 
L 552.72225 166.355754 
L 553.246432 181.615493 
L 553.770614 154.326038 
L 554.294796 184.764699 
L 554.818979 180.243857 
L 555.343161 166.796908 
L 555.867343 138.002068 
L 556.391525 149.70553 
L 556.915707 172.108452 
L 557.439889 167.827687 
L 557.439889 167.827687 
" style="fill:none;stroke:#e36f47;"/>
   </g>
   <g id="patch_3">
    <path d="M 33.257727 285.165354 
L 33.257727 2.834646 
" style="fill:none;stroke:#000000;stroke-linecap:square;stroke-linejoin:miter;"/>
   </g>
   <g id="patch_4">
    <path d="M 17.532262 141.079524 
L 573.165354 141.079524 
" style="fill:none;stroke:#000000;stroke-linecap:square;stroke-linejoin:miter;"/>
   </g>
   <g id="legend_1">
    <g id="patch_5">
     <path d="M 502.660354 39.119646 
L 569.165354 39.119646 
L 569.165354 6.834646 
L 502.660354 6.834646 
z
" style="fill:none;opacity:0;"/>
    </g>
    <g id="line2d_91">
     <path d="M 509.060354 16.513396 
L 525.060354 16.513396 
" style="fill:none;stroke:#009afa;stroke-linejoin:miter;"/>
    </g>
    <g id="line2d_92"/>
    <g id="text_13">
     <!-- Original -->
     <g transform="translate(531.460354 19.313396)scale(0.08 -0.08)">
      <defs>
       <path d="M 39.40625 66.21875 
Q 28.65625 66.21875 22.328125 58.203125 
Q 16.015625 50.203125 16.015625 36.375 
Q 16.015625 22.609375 22.328125 14.59375 
Q 28.65625 6.59375 39.40625 6.59375 
Q 50.140625 6.59375 56.421875 14.59375 
Q 62.703125 22.609375 62.703125 36.375 
Q 62.703125 50.203125 56.421875 58.203125 
Q 50.140625 66.21875 39.40625 66.21875 
z
M 39.40625 74.21875 
Q 54.734375 74.21875 63.90625 63.9375 
Q 73.09375 53.65625 73.09375 36.375 
Q 73.09375 19.140625 63.90625 8.859375 
Q 54.734375 -1.421875 39.40625 -1.421875 
Q 24.03125 -1.421875 14.8125 8.828125 
Q 5.609375 19.09375 5.609375 36.375 
Q 5.609375 53.65625 14.8125 63.9375 
Q 24.03125 74.21875 39.40625 74.21875 
z
" id="DejaVuSans-79"/>
       <path d="M 41.109375 46.296875 
Q 39.59375 47.171875 37.8125 47.578125 
Q 36.03125 48 33.890625 48 
Q 26.265625 48 22.1875 43.046875 
Q 18.109375 38.09375 18.109375 28.8125 
L 18.109375 0 
L 9.078125 0 
L 9.078125 54.6875 
L 18.109375 54.6875 
L 18.109375 46.1875 
Q 20.953125 51.171875 25.484375 53.578125 
Q 30.03125 56 36.53125 56 
Q 37.453125 56 38.578125 55.875 
Q 39.703125 55.765625 41.0625 55.515625 
z
" id="DejaVuSans-114"/>
       <path d="M 9.421875 54.6875 
L 18.40625 54.6875 
L 18.40625 0 
L 9.421875 0 
z
M 9.421875 75.984375 
L 18.40625 75.984375 
L 18.40625 64.59375 
L 9.421875 64.59375 
z
" id="DejaVuSans-105"/>
       <path d="M 45.40625 27.984375 
Q 45.40625 37.75 41.375 43.109375 
Q 37.359375 48.484375 30.078125 48.484375 
Q 22.859375 48.484375 18.828125 43.109375 
Q 14.796875 37.75 14.796875 27.984375 
Q 14.796875 18.265625 18.828125 12.890625 
Q 22.859375 7.515625 30.078125 7.515625 
Q 37.359375 7.515625 41.375 12.890625 
Q 45.40625 18.265625 45.40625 27.984375 
z
M 54.390625 6.78125 
Q 54.390625 -7.171875 48.1875 -13.984375 
Q 42 -20.796875 29.203125 -20.796875 
Q 24.46875 -20.796875 20.265625 -20.09375 
Q 16.0625 -19.390625 12.109375 -17.921875 
L 12.109375 -9.1875 
Q 16.0625 -11.328125 19.921875 -12.34375 
Q 23.78125 -13.375 27.78125 -13.375 
Q 36.625 -13.375 41.015625 -8.765625 
Q 45.40625 -4.15625 45.40625 5.171875 
L 45.40625 9.625 
Q 42.625 4.78125 38.28125 2.390625 
Q 33.9375 0 27.875 0 
Q 17.828125 0 11.671875 7.65625 
Q 5.515625 15.328125 5.515625 27.984375 
Q 5.515625 40.671875 11.671875 48.328125 
Q 17.828125 56 27.875 56 
Q 33.9375 56 38.28125 53.609375 
Q 42.625 51.21875 45.40625 46.390625 
L 45.40625 54.6875 
L 54.390625 54.6875 
z
" id="DejaVuSans-103"/>
       <path d="M 54.890625 33.015625 
L 54.890625 0 
L 45.90625 0 
L 45.90625 32.71875 
Q 45.90625 40.484375 42.875 44.328125 
Q 39.84375 48.1875 33.796875 48.1875 
Q 26.515625 48.1875 22.3125 43.546875 
Q 18.109375 38.921875 18.109375 30.90625 
L 18.109375 0 
L 9.078125 0 
L 9.078125 54.6875 
L 18.109375 54.6875 
L 18.109375 46.1875 
Q 21.34375 51.125 25.703125 53.5625 
Q 30.078125 56 35.796875 56 
Q 45.21875 56 50.046875 50.171875 
Q 54.890625 44.34375 54.890625 33.015625 
z
" id="DejaVuSans-110"/>
       <path d="M 34.28125 27.484375 
Q 23.390625 27.484375 19.1875 25 
Q 14.984375 22.515625 14.984375 16.5 
Q 14.984375 11.71875 18.140625 8.90625 
Q 21.296875 6.109375 26.703125 6.109375 
Q 34.1875 6.109375 38.703125 11.40625 
Q 43.21875 16.703125 43.21875 25.484375 
L 43.21875 27.484375 
z
M 52.203125 31.203125 
L 52.203125 0 
L 43.21875 0 
L 43.21875 8.296875 
Q 40.140625 3.328125 35.546875 0.953125 
Q 30.953125 -1.421875 24.3125 -1.421875 
Q 15.921875 -1.421875 10.953125 3.296875 
Q 6 8.015625 6 15.921875 
Q 6 25.140625 12.171875 29.828125 
Q 18.359375 34.515625 30.609375 34.515625 
L 43.21875 34.515625 
L 43.21875 35.40625 
Q 43.21875 41.609375 39.140625 45 
Q 35.0625 48.390625 27.6875 48.390625 
Q 23 48.390625 18.546875 47.265625 
Q 14.109375 46.140625 10.015625 43.890625 
L 10.015625 52.203125 
Q 14.9375 54.109375 19.578125 55.046875 
Q 24.21875 56 28.609375 56 
Q 40.484375 56 46.34375 49.84375 
Q 52.203125 43.703125 52.203125 31.203125 
z
" id="DejaVuSans-97"/>
       <path d="M 9.421875 75.984375 
L 18.40625 75.984375 
L 18.40625 0 
L 9.421875 0 
z
" id="DejaVuSans-108"/>
      </defs>
      <use xlink:href="#DejaVuSans-79"/>
      <use x="78.710938" xlink:href="#DejaVuSans-114"/>
      <use x="119.824219" xlink:href="#DejaVuSans-105"/>
      <use x="147.607422" xlink:href="#DejaVuSans-103"/>
      <use x="211.083984" xlink:href="#DejaVuSans-105"/>
      <use x="238.867188" xlink:href="#DejaVuSans-110"/>
      <use x="302.246094" xlink:href="#DejaVuSans-97"/>
      <use x="363.525391" xlink:href="#DejaVuSans-108"/>
     </g>
    </g>
    <g id="line2d_93">
     <path d="M 509.060354 28.255896 
L 525.060354 28.255896 
" style="fill:none;stroke:#e36f47;stroke-linejoin:miter;"/>
    </g>
    <g id="line2d_94"/>
    <g id="text_14">
     <!-- Noisy -->
     <g transform="translate(531.460354 31.055896)scale(0.08 -0.08)">
      <defs>
       <path d="M 9.8125 72.90625 
L 23.09375 72.90625 
L 55.421875 11.921875 
L 55.421875 72.90625 
L 64.984375 72.90625 
L 64.984375 0 
L 51.703125 0 
L 19.390625 60.984375 
L 19.390625 0 
L 9.8125 0 
z
" id="DejaVuSans-78"/>
       <path d="M 30.609375 48.390625 
Q 23.390625 48.390625 19.1875 42.75 
Q 14.984375 37.109375 14.984375 27.296875 
Q 14.984375 17.484375 19.15625 11.84375 
Q 23.34375 6.203125 30.609375 6.203125 
Q 37.796875 6.203125 41.984375 11.859375 
Q 46.1875 17.53125 46.1875 27.296875 
Q 46.1875 37.015625 41.984375 42.703125 
Q 37.796875 48.390625 30.609375 48.390625 
z
M 30.609375 56 
Q 42.328125 56 49.015625 48.375 
Q 55.71875 40.765625 55.71875 27.296875 
Q 55.71875 13.875 49.015625 6.21875 
Q 42.328125 -1.421875 30.609375 -1.421875 
Q 18.84375 -1.421875 12.171875 6.21875 
Q 5.515625 13.875 5.515625 27.296875 
Q 5.515625 40.765625 12.171875 48.375 
Q 18.84375 56 30.609375 56 
z
" id="DejaVuSans-111"/>
       <path d="M 44.28125 53.078125 
L 44.28125 44.578125 
Q 40.484375 46.53125 36.375 47.5 
Q 32.28125 48.484375 27.875 48.484375 
Q 21.1875 48.484375 17.84375 46.4375 
Q 14.5 44.390625 14.5 40.28125 
Q 14.5 37.15625 16.890625 35.375 
Q 19.28125 33.59375 26.515625 31.984375 
L 29.59375 31.296875 
Q 39.15625 29.25 43.1875 25.515625 
Q 47.21875 21.78125 47.21875 15.09375 
Q 47.21875 7.46875 41.1875 3.015625 
Q 35.15625 -1.421875 24.609375 -1.421875 
Q 20.21875 -1.421875 15.453125 -0.5625 
Q 10.6875 0.296875 5.421875 2 
L 5.421875 11.28125 
Q 10.40625 8.6875 15.234375 7.390625 
Q 20.0625 6.109375 24.8125 6.109375 
Q 31.15625 6.109375 34.5625 8.28125 
Q 37.984375 10.453125 37.984375 14.40625 
Q 37.984375 18.0625 35.515625 20.015625 
Q 33.0625 21.96875 24.703125 23.78125 
L 21.578125 24.515625 
Q 13.234375 26.265625 9.515625 29.90625 
Q 5.8125 33.546875 5.8125 39.890625 
Q 5.8125 47.609375 11.28125 51.796875 
Q 16.75 56 26.8125 56 
Q 31.78125 56 36.171875 55.265625 
Q 40.578125 54.546875 44.28125 53.078125 
z
" id="DejaVuSans-115"/>
       <path d="M 32.171875 -5.078125 
Q 28.375 -14.84375 24.75 -17.8125 
Q 21.140625 -20.796875 15.09375 -20.796875 
L 7.90625 -20.796875 
L 7.90625 -13.28125 
L 13.1875 -13.28125 
Q 16.890625 -13.28125 18.9375 -11.515625 
Q 21 -9.765625 23.484375 -3.21875 
L 25.09375 0.875 
L 2.984375 54.6875 
L 12.5 54.6875 
L 29.59375 11.921875 
L 46.6875 54.6875 
L 56.203125 54.6875 
z
" id="DejaVuSans-121"/>
      </defs>
      <use xlink:href="#DejaVuSans-78"/>
      <use x="74.804688" xlink:href="#DejaVuSans-111"/>
      <use x="135.986328" xlink:href="#DejaVuSans-105"/>
      <use x="163.769531" xlink:href="#DejaVuSans-115"/>
      <use x="215.869141" xlink:href="#DejaVuSans-121"/>
     </g>
    </g>
   </g>
  </g>
 </g>
 <defs>
  <clipPath id="pece1c3be5d">
   <rect height="282.330709" width="555.633092" x="17.532262" y="2.834646"/>
  </clipPath>
 </defs>
</svg>
